<?xml version="1.0" encoding="utf-8" standalone="no"?>
<!DOCTYPE svg PUBLIC "-//W3C//DTD SVG 1.1//EN"
  "http://www.w3.org/Graphics/SVG/1.1/DTD/svg11.dtd">
<svg xmlns:xlink="http://www.w3.org/1999/xlink" width="460.8pt" height="345.6pt" viewBox="0 0 460.8 345.6" xmlns="http://www.w3.org/2000/svg" version="1.1">
 <metadata>
  <rdf:RDF xmlns:dc="http://purl.org/dc/elements/1.1/" xmlns:cc="http://creativecommons.org/ns#" xmlns:rdf="http://www.w3.org/1999/02/22-rdf-syntax-ns#">
   <cc:Work>
    <dc:type rdf:resource="http://purl.org/dc/dcmitype/StillImage"/>
    <dc:date>2025-11-28T12:52:49.450739</dc:date>
    <dc:format>image/svg+xml</dc:format>
    <dc:creator>
     <cc:Agent>
      <dc:title>Matplotlib v3.10.6, https://matplotlib.org/</dc:title>
     </cc:Agent>
    </dc:creator>
   </cc:Work>
  </rdf:RDF>
 </metadata>
 <defs>
  <style type="text/css">*{stroke-linejoin: round; stroke-linecap: butt}</style>
 </defs>
 <g id="figure_1">
  <g id="patch_1">
   <path d="M 0 345.6 
L 460.8 345.6 
L 460.8 0 
L 0 0 
z
" style="fill: #ffffff"/>
  </g>
  <g id="axes_1">
   <g id="patch_2">
    <path d="M 57.6 307.584 
L 414.72 307.584 
L 414.72 41.472 
L 57.6 41.472 
z
" style="fill: #ffffff"/>
   </g>
   <g id="matplotlib.axis_1">
    <g id="xtick_1">
     <g id="line2d_1">
      <defs>
       <path id="md70282b8f3" d="M 0 0 
L 0 3.5 
" style="stroke: #000000; stroke-width: 0.8"/>
      </defs>
      <g>
       <use xlink:href="#md70282b8f3" x="73.832727" y="307.584" style="stroke: #000000; stroke-width: 0.8"/>
      </g>
     </g>
     <g id="text_1">
      <!-- 0 -->
      <g transform="translate(70.651477 322.182437) scale(0.1 -0.1)">
       <defs>
        <path id="DejaVuSans-30" d="M 2034 4250 
Q 1547 4250 1301 3770 
Q 1056 3291 1056 2328 
Q 1056 1369 1301 889 
Q 1547 409 2034 409 
Q 2525 409 2770 889 
Q 3016 1369 3016 2328 
Q 3016 3291 2770 3770 
Q 2525 4250 2034 4250 
z
M 2034 4750 
Q 2819 4750 3233 4129 
Q 3647 3509 3647 2328 
Q 3647 1150 3233 529 
Q 2819 -91 2034 -91 
Q 1250 -91 836 529 
Q 422 1150 422 2328 
Q 422 3509 836 4129 
Q 1250 4750 2034 4750 
z
" transform="scale(0.015625)"/>
       </defs>
       <use xlink:href="#DejaVuSans-30"/>
      </g>
     </g>
    </g>
    <g id="xtick_2">
     <g id="line2d_2">
      <g>
       <use xlink:href="#md70282b8f3" x="127.896765" y="307.584" style="stroke: #000000; stroke-width: 0.8"/>
      </g>
     </g>
     <g id="text_2">
      <!-- 200 -->
      <g transform="translate(118.353015 322.182437) scale(0.1 -0.1)">
       <defs>
        <path id="DejaVuSans-32" d="M 1228 531 
L 3431 531 
L 3431 0 
L 469 0 
L 469 531 
Q 828 903 1448 1529 
Q 2069 2156 2228 2338 
Q 2531 2678 2651 2914 
Q 2772 3150 2772 3378 
Q 2772 3750 2511 3984 
Q 2250 4219 1831 4219 
Q 1534 4219 1204 4116 
Q 875 4013 500 3803 
L 500 4441 
Q 881 4594 1212 4672 
Q 1544 4750 1819 4750 
Q 2544 4750 2975 4387 
Q 3406 4025 3406 3419 
Q 3406 3131 3298 2873 
Q 3191 2616 2906 2266 
Q 2828 2175 2409 1742 
Q 1991 1309 1228 531 
z
" transform="scale(0.015625)"/>
       </defs>
       <use xlink:href="#DejaVuSans-32"/>
       <use xlink:href="#DejaVuSans-30" transform="translate(63.623047 0)"/>
       <use xlink:href="#DejaVuSans-30" transform="translate(127.246094 0)"/>
      </g>
     </g>
    </g>
    <g id="xtick_3">
     <g id="line2d_3">
      <g>
       <use xlink:href="#md70282b8f3" x="181.960802" y="307.584" style="stroke: #000000; stroke-width: 0.8"/>
      </g>
     </g>
     <g id="text_3">
      <!-- 400 -->
      <g transform="translate(172.417052 322.182437) scale(0.1 -0.1)">
       <defs>
        <path id="DejaVuSans-34" d="M 2419 4116 
L 825 1625 
L 2419 1625 
L 2419 4116 
z
M 2253 4666 
L 3047 4666 
L 3047 1625 
L 3713 1625 
L 3713 1100 
L 3047 1100 
L 3047 0 
L 2419 0 
L 2419 1100 
L 313 1100 
L 313 1709 
L 2253 4666 
z
" transform="scale(0.015625)"/>
       </defs>
       <use xlink:href="#DejaVuSans-34"/>
       <use xlink:href="#DejaVuSans-30" transform="translate(63.623047 0)"/>
       <use xlink:href="#DejaVuSans-30" transform="translate(127.246094 0)"/>
      </g>
     </g>
    </g>
    <g id="xtick_4">
     <g id="line2d_4">
      <g>
       <use xlink:href="#md70282b8f3" x="236.02484" y="307.584" style="stroke: #000000; stroke-width: 0.8"/>
      </g>
     </g>
     <g id="text_4">
      <!-- 600 -->
      <g transform="translate(226.48109 322.182437) scale(0.1 -0.1)">
       <defs>
        <path id="DejaVuSans-36" d="M 2113 2584 
Q 1688 2584 1439 2293 
Q 1191 2003 1191 1497 
Q 1191 994 1439 701 
Q 1688 409 2113 409 
Q 2538 409 2786 701 
Q 3034 994 3034 1497 
Q 3034 2003 2786 2293 
Q 2538 2584 2113 2584 
z
M 3366 4563 
L 3366 3988 
Q 3128 4100 2886 4159 
Q 2644 4219 2406 4219 
Q 1781 4219 1451 3797 
Q 1122 3375 1075 2522 
Q 1259 2794 1537 2939 
Q 1816 3084 2150 3084 
Q 2853 3084 3261 2657 
Q 3669 2231 3669 1497 
Q 3669 778 3244 343 
Q 2819 -91 2113 -91 
Q 1303 -91 875 529 
Q 447 1150 447 2328 
Q 447 3434 972 4092 
Q 1497 4750 2381 4750 
Q 2619 4750 2861 4703 
Q 3103 4656 3366 4563 
z
" transform="scale(0.015625)"/>
       </defs>
       <use xlink:href="#DejaVuSans-36"/>
       <use xlink:href="#DejaVuSans-30" transform="translate(63.623047 0)"/>
       <use xlink:href="#DejaVuSans-30" transform="translate(127.246094 0)"/>
      </g>
     </g>
    </g>
    <g id="xtick_5">
     <g id="line2d_5">
      <g>
       <use xlink:href="#md70282b8f3" x="290.088877" y="307.584" style="stroke: #000000; stroke-width: 0.8"/>
      </g>
     </g>
     <g id="text_5">
      <!-- 800 -->
      <g transform="translate(280.545127 322.182437) scale(0.1 -0.1)">
       <defs>
        <path id="DejaVuSans-38" d="M 2034 2216 
Q 1584 2216 1326 1975 
Q 1069 1734 1069 1313 
Q 1069 891 1326 650 
Q 1584 409 2034 409 
Q 2484 409 2743 651 
Q 3003 894 3003 1313 
Q 3003 1734 2745 1975 
Q 2488 2216 2034 2216 
z
M 1403 2484 
Q 997 2584 770 2862 
Q 544 3141 544 3541 
Q 544 4100 942 4425 
Q 1341 4750 2034 4750 
Q 2731 4750 3128 4425 
Q 3525 4100 3525 3541 
Q 3525 3141 3298 2862 
Q 3072 2584 2669 2484 
Q 3125 2378 3379 2068 
Q 3634 1759 3634 1313 
Q 3634 634 3220 271 
Q 2806 -91 2034 -91 
Q 1263 -91 848 271 
Q 434 634 434 1313 
Q 434 1759 690 2068 
Q 947 2378 1403 2484 
z
M 1172 3481 
Q 1172 3119 1398 2916 
Q 1625 2713 2034 2713 
Q 2441 2713 2670 2916 
Q 2900 3119 2900 3481 
Q 2900 3844 2670 4047 
Q 2441 4250 2034 4250 
Q 1625 4250 1398 4047 
Q 1172 3844 1172 3481 
z
" transform="scale(0.015625)"/>
       </defs>
       <use xlink:href="#DejaVuSans-38"/>
       <use xlink:href="#DejaVuSans-30" transform="translate(63.623047 0)"/>
       <use xlink:href="#DejaVuSans-30" transform="translate(127.246094 0)"/>
      </g>
     </g>
    </g>
    <g id="xtick_6">
     <g id="line2d_6">
      <g>
       <use xlink:href="#md70282b8f3" x="344.152915" y="307.584" style="stroke: #000000; stroke-width: 0.8"/>
      </g>
     </g>
     <g id="text_6">
      <!-- 1000 -->
      <g transform="translate(331.427915 322.182437) scale(0.1 -0.1)">
       <defs>
        <path id="DejaVuSans-31" d="M 794 531 
L 1825 531 
L 1825 4091 
L 703 3866 
L 703 4441 
L 1819 4666 
L 2450 4666 
L 2450 531 
L 3481 531 
L 3481 0 
L 794 0 
L 794 531 
z
" transform="scale(0.015625)"/>
       </defs>
       <use xlink:href="#DejaVuSans-31"/>
       <use xlink:href="#DejaVuSans-30" transform="translate(63.623047 0)"/>
       <use xlink:href="#DejaVuSans-30" transform="translate(127.246094 0)"/>
       <use xlink:href="#DejaVuSans-30" transform="translate(190.869141 0)"/>
      </g>
     </g>
    </g>
    <g id="xtick_7">
     <g id="line2d_7">
      <g>
       <use xlink:href="#md70282b8f3" x="398.216953" y="307.584" style="stroke: #000000; stroke-width: 0.8"/>
      </g>
     </g>
     <g id="text_7">
      <!-- 1200 -->
      <g transform="translate(385.491953 322.182437) scale(0.1 -0.1)">
       <use xlink:href="#DejaVuSans-31"/>
       <use xlink:href="#DejaVuSans-32" transform="translate(63.623047 0)"/>
       <use xlink:href="#DejaVuSans-30" transform="translate(127.246094 0)"/>
       <use xlink:href="#DejaVuSans-30" transform="translate(190.869141 0)"/>
      </g>
     </g>
    </g>
    <g id="text_8">
     <!-- Timestep -->
     <g transform="translate(213.110781 335.860562) scale(0.1 -0.1)">
      <defs>
       <path id="DejaVuSans-54" d="M -19 4666 
L 3928 4666 
L 3928 4134 
L 2272 4134 
L 2272 0 
L 1638 0 
L 1638 4134 
L -19 4134 
L -19 4666 
z
" transform="scale(0.015625)"/>
       <path id="DejaVuSans-69" d="M 603 3500 
L 1178 3500 
L 1178 0 
L 603 0 
L 603 3500 
z
M 603 4863 
L 1178 4863 
L 1178 4134 
L 603 4134 
L 603 4863 
z
" transform="scale(0.015625)"/>
       <path id="DejaVuSans-6d" d="M 3328 2828 
Q 3544 3216 3844 3400 
Q 4144 3584 4550 3584 
Q 5097 3584 5394 3201 
Q 5691 2819 5691 2113 
L 5691 0 
L 5113 0 
L 5113 2094 
Q 5113 2597 4934 2840 
Q 4756 3084 4391 3084 
Q 3944 3084 3684 2787 
Q 3425 2491 3425 1978 
L 3425 0 
L 2847 0 
L 2847 2094 
Q 2847 2600 2669 2842 
Q 2491 3084 2119 3084 
Q 1678 3084 1418 2786 
Q 1159 2488 1159 1978 
L 1159 0 
L 581 0 
L 581 3500 
L 1159 3500 
L 1159 2956 
Q 1356 3278 1631 3431 
Q 1906 3584 2284 3584 
Q 2666 3584 2933 3390 
Q 3200 3197 3328 2828 
z
" transform="scale(0.015625)"/>
       <path id="DejaVuSans-65" d="M 3597 1894 
L 3597 1613 
L 953 1613 
Q 991 1019 1311 708 
Q 1631 397 2203 397 
Q 2534 397 2845 478 
Q 3156 559 3463 722 
L 3463 178 
Q 3153 47 2828 -22 
Q 2503 -91 2169 -91 
Q 1331 -91 842 396 
Q 353 884 353 1716 
Q 353 2575 817 3079 
Q 1281 3584 2069 3584 
Q 2775 3584 3186 3129 
Q 3597 2675 3597 1894 
z
M 3022 2063 
Q 3016 2534 2758 2815 
Q 2500 3097 2075 3097 
Q 1594 3097 1305 2825 
Q 1016 2553 972 2059 
L 3022 2063 
z
" transform="scale(0.015625)"/>
       <path id="DejaVuSans-73" d="M 2834 3397 
L 2834 2853 
Q 2591 2978 2328 3040 
Q 2066 3103 1784 3103 
Q 1356 3103 1142 2972 
Q 928 2841 928 2578 
Q 928 2378 1081 2264 
Q 1234 2150 1697 2047 
L 1894 2003 
Q 2506 1872 2764 1633 
Q 3022 1394 3022 966 
Q 3022 478 2636 193 
Q 2250 -91 1575 -91 
Q 1294 -91 989 -36 
Q 684 19 347 128 
L 347 722 
Q 666 556 975 473 
Q 1284 391 1588 391 
Q 1994 391 2212 530 
Q 2431 669 2431 922 
Q 2431 1156 2273 1281 
Q 2116 1406 1581 1522 
L 1381 1569 
Q 847 1681 609 1914 
Q 372 2147 372 2553 
Q 372 3047 722 3315 
Q 1072 3584 1716 3584 
Q 2034 3584 2315 3537 
Q 2597 3491 2834 3397 
z
" transform="scale(0.015625)"/>
       <path id="DejaVuSans-74" d="M 1172 4494 
L 1172 3500 
L 2356 3500 
L 2356 3053 
L 1172 3053 
L 1172 1153 
Q 1172 725 1289 603 
Q 1406 481 1766 481 
L 2356 481 
L 2356 0 
L 1766 0 
Q 1100 0 847 248 
Q 594 497 594 1153 
L 594 3053 
L 172 3053 
L 172 3500 
L 594 3500 
L 594 4494 
L 1172 4494 
z
" transform="scale(0.015625)"/>
       <path id="DejaVuSans-70" d="M 1159 525 
L 1159 -1331 
L 581 -1331 
L 581 3500 
L 1159 3500 
L 1159 2969 
Q 1341 3281 1617 3432 
Q 1894 3584 2278 3584 
Q 2916 3584 3314 3078 
Q 3713 2572 3713 1747 
Q 3713 922 3314 415 
Q 2916 -91 2278 -91 
Q 1894 -91 1617 61 
Q 1341 213 1159 525 
z
M 3116 1747 
Q 3116 2381 2855 2742 
Q 2594 3103 2138 3103 
Q 1681 3103 1420 2742 
Q 1159 2381 1159 1747 
Q 1159 1113 1420 752 
Q 1681 391 2138 391 
Q 2594 391 2855 752 
Q 3116 1113 3116 1747 
z
" transform="scale(0.015625)"/>
      </defs>
      <use xlink:href="#DejaVuSans-54"/>
      <use xlink:href="#DejaVuSans-69" transform="translate(57.958984 0)"/>
      <use xlink:href="#DejaVuSans-6d" transform="translate(85.742188 0)"/>
      <use xlink:href="#DejaVuSans-65" transform="translate(183.154297 0)"/>
      <use xlink:href="#DejaVuSans-73" transform="translate(244.677734 0)"/>
      <use xlink:href="#DejaVuSans-74" transform="translate(296.777344 0)"/>
      <use xlink:href="#DejaVuSans-65" transform="translate(335.986328 0)"/>
      <use xlink:href="#DejaVuSans-70" transform="translate(397.509766 0)"/>
     </g>
    </g>
   </g>
   <g id="matplotlib.axis_2">
    <g id="ytick_1">
     <g id="line2d_8">
      <defs>
       <path id="md8b4689da6" d="M 0 0 
L -3.5 0 
" style="stroke: #000000; stroke-width: 0.8"/>
      </defs>
      <g>
       <use xlink:href="#md8b4689da6" x="57.6" y="293.324898" style="stroke: #000000; stroke-width: 0.8"/>
      </g>
     </g>
     <g id="text_9">
      <!-- 0 -->
      <g transform="translate(44.2375 297.124117) scale(0.1 -0.1)">
       <use xlink:href="#DejaVuSans-30"/>
      </g>
     </g>
    </g>
    <g id="ytick_2">
     <g id="line2d_9">
      <g>
       <use xlink:href="#md8b4689da6" x="57.6" y="257.004419" style="stroke: #000000; stroke-width: 0.8"/>
      </g>
     </g>
     <g id="text_10">
      <!-- 5 -->
      <g transform="translate(44.2375 260.803638) scale(0.1 -0.1)">
       <defs>
        <path id="DejaVuSans-35" d="M 691 4666 
L 3169 4666 
L 3169 4134 
L 1269 4134 
L 1269 2991 
Q 1406 3038 1543 3061 
Q 1681 3084 1819 3084 
Q 2600 3084 3056 2656 
Q 3513 2228 3513 1497 
Q 3513 744 3044 326 
Q 2575 -91 1722 -91 
Q 1428 -91 1123 -41 
Q 819 9 494 109 
L 494 744 
Q 775 591 1075 516 
Q 1375 441 1709 441 
Q 2250 441 2565 725 
Q 2881 1009 2881 1497 
Q 2881 1984 2565 2268 
Q 2250 2553 1709 2553 
Q 1456 2553 1204 2497 
Q 953 2441 691 2322 
L 691 4666 
z
" transform="scale(0.015625)"/>
       </defs>
       <use xlink:href="#DejaVuSans-35"/>
      </g>
     </g>
    </g>
    <g id="ytick_3">
     <g id="line2d_10">
      <g>
       <use xlink:href="#md8b4689da6" x="57.6" y="220.68394" style="stroke: #000000; stroke-width: 0.8"/>
      </g>
     </g>
     <g id="text_11">
      <!-- 10 -->
      <g transform="translate(37.875 224.483159) scale(0.1 -0.1)">
       <use xlink:href="#DejaVuSans-31"/>
       <use xlink:href="#DejaVuSans-30" transform="translate(63.623047 0)"/>
      </g>
     </g>
    </g>
    <g id="ytick_4">
     <g id="line2d_11">
      <g>
       <use xlink:href="#md8b4689da6" x="57.6" y="184.363461" style="stroke: #000000; stroke-width: 0.8"/>
      </g>
     </g>
     <g id="text_12">
      <!-- 15 -->
      <g transform="translate(37.875 188.16268) scale(0.1 -0.1)">
       <use xlink:href="#DejaVuSans-31"/>
       <use xlink:href="#DejaVuSans-35" transform="translate(63.623047 0)"/>
      </g>
     </g>
    </g>
    <g id="ytick_5">
     <g id="line2d_12">
      <g>
       <use xlink:href="#md8b4689da6" x="57.6" y="148.042982" style="stroke: #000000; stroke-width: 0.8"/>
      </g>
     </g>
     <g id="text_13">
      <!-- 20 -->
      <g transform="translate(37.875 151.842201) scale(0.1 -0.1)">
       <use xlink:href="#DejaVuSans-32"/>
       <use xlink:href="#DejaVuSans-30" transform="translate(63.623047 0)"/>
      </g>
     </g>
    </g>
    <g id="ytick_6">
     <g id="line2d_13">
      <g>
       <use xlink:href="#md8b4689da6" x="57.6" y="111.722503" style="stroke: #000000; stroke-width: 0.8"/>
      </g>
     </g>
     <g id="text_14">
      <!-- 25 -->
      <g transform="translate(37.875 115.521722) scale(0.1 -0.1)">
       <use xlink:href="#DejaVuSans-32"/>
       <use xlink:href="#DejaVuSans-35" transform="translate(63.623047 0)"/>
      </g>
     </g>
    </g>
    <g id="ytick_7">
     <g id="line2d_14">
      <g>
       <use xlink:href="#md8b4689da6" x="57.6" y="75.402024" style="stroke: #000000; stroke-width: 0.8"/>
      </g>
     </g>
     <g id="text_15">
      <!-- 30 -->
      <g transform="translate(37.875 79.201243) scale(0.1 -0.1)">
       <defs>
        <path id="DejaVuSans-33" d="M 2597 2516 
Q 3050 2419 3304 2112 
Q 3559 1806 3559 1356 
Q 3559 666 3084 287 
Q 2609 -91 1734 -91 
Q 1441 -91 1130 -33 
Q 819 25 488 141 
L 488 750 
Q 750 597 1062 519 
Q 1375 441 1716 441 
Q 2309 441 2620 675 
Q 2931 909 2931 1356 
Q 2931 1769 2642 2001 
Q 2353 2234 1838 2234 
L 1294 2234 
L 1294 2753 
L 1863 2753 
Q 2328 2753 2575 2939 
Q 2822 3125 2822 3475 
Q 2822 3834 2567 4026 
Q 2313 4219 1838 4219 
Q 1578 4219 1281 4162 
Q 984 4106 628 3988 
L 628 4550 
Q 988 4650 1302 4700 
Q 1616 4750 1894 4750 
Q 2613 4750 3031 4423 
Q 3450 4097 3450 3541 
Q 3450 3153 3228 2886 
Q 3006 2619 2597 2516 
z
" transform="scale(0.015625)"/>
       </defs>
       <use xlink:href="#DejaVuSans-33"/>
       <use xlink:href="#DejaVuSans-30" transform="translate(63.623047 0)"/>
      </g>
     </g>
    </g>
    <g id="text_16">
     <!-- Neuron -->
     <g transform="translate(31.795312 192.685031) rotate(-90) scale(0.1 -0.1)">
      <defs>
       <path id="DejaVuSans-4e" d="M 628 4666 
L 1478 4666 
L 3547 763 
L 3547 4666 
L 4159 4666 
L 4159 0 
L 3309 0 
L 1241 3903 
L 1241 0 
L 628 0 
L 628 4666 
z
" transform="scale(0.015625)"/>
       <path id="DejaVuSans-75" d="M 544 1381 
L 544 3500 
L 1119 3500 
L 1119 1403 
Q 1119 906 1312 657 
Q 1506 409 1894 409 
Q 2359 409 2629 706 
Q 2900 1003 2900 1516 
L 2900 3500 
L 3475 3500 
L 3475 0 
L 2900 0 
L 2900 538 
Q 2691 219 2414 64 
Q 2138 -91 1772 -91 
Q 1169 -91 856 284 
Q 544 659 544 1381 
z
M 1991 3584 
L 1991 3584 
z
" transform="scale(0.015625)"/>
       <path id="DejaVuSans-72" d="M 2631 2963 
Q 2534 3019 2420 3045 
Q 2306 3072 2169 3072 
Q 1681 3072 1420 2755 
Q 1159 2438 1159 1844 
L 1159 0 
L 581 0 
L 581 3500 
L 1159 3500 
L 1159 2956 
Q 1341 3275 1631 3429 
Q 1922 3584 2338 3584 
Q 2397 3584 2469 3576 
Q 2541 3569 2628 3553 
L 2631 2963 
z
" transform="scale(0.015625)"/>
       <path id="DejaVuSans-6f" d="M 1959 3097 
Q 1497 3097 1228 2736 
Q 959 2375 959 1747 
Q 959 1119 1226 758 
Q 1494 397 1959 397 
Q 2419 397 2687 759 
Q 2956 1122 2956 1747 
Q 2956 2369 2687 2733 
Q 2419 3097 1959 3097 
z
M 1959 3584 
Q 2709 3584 3137 3096 
Q 3566 2609 3566 1747 
Q 3566 888 3137 398 
Q 2709 -91 1959 -91 
Q 1206 -91 779 398 
Q 353 888 353 1747 
Q 353 2609 779 3096 
Q 1206 3584 1959 3584 
z
" transform="scale(0.015625)"/>
       <path id="DejaVuSans-6e" d="M 3513 2113 
L 3513 0 
L 2938 0 
L 2938 2094 
Q 2938 2591 2744 2837 
Q 2550 3084 2163 3084 
Q 1697 3084 1428 2787 
Q 1159 2491 1159 1978 
L 1159 0 
L 581 0 
L 581 3500 
L 1159 3500 
L 1159 2956 
Q 1366 3272 1645 3428 
Q 1925 3584 2291 3584 
Q 2894 3584 3203 3211 
Q 3513 2838 3513 2113 
z
" transform="scale(0.015625)"/>
      </defs>
      <use xlink:href="#DejaVuSans-4e"/>
      <use xlink:href="#DejaVuSans-65" transform="translate(74.804688 0)"/>
      <use xlink:href="#DejaVuSans-75" transform="translate(136.328125 0)"/>
      <use xlink:href="#DejaVuSans-72" transform="translate(199.707031 0)"/>
      <use xlink:href="#DejaVuSans-6f" transform="translate(238.570312 0)"/>
      <use xlink:href="#DejaVuSans-6e" transform="translate(299.751953 0)"/>
     </g>
    </g>
   </g>
   <g id="line2d_15">
    <path d="M 73.832727 293.324898 
L 135.46573 293.411129 
L 142.764375 294.455093 
L 150.603661 295.353697 
L 151.955262 295.488 
L 156.821025 293.71667 
L 161.957108 292.087543 
L 167.363512 290.611587 
L 173.040236 289.296199 
L 178.98728 288.145351 
L 185.474965 287.121542 
L 192.50329 286.247892 
L 194.395531 286.049813 
L 194.665851 293.324898 
L 398.216953 293.324898 
L 398.216953 293.324898 
" clip-path="url(#pc369e0eaf2)" style="fill: none; stroke: #1f77b4; stroke-width: 1.5; stroke-linecap: square"/>
   </g>
   <g id="line2d_16">
    <defs>
     <path id="m362c4bb74d" d="M 0 3 
C 0.795609 3 1.55874 2.683901 2.12132 2.12132 
C 2.683901 1.55874 3 0.795609 3 0 
C 3 -0.795609 2.683901 -1.55874 2.12132 -2.12132 
C 1.55874 -2.683901 0.795609 -3 0 -3 
C -0.795609 -3 -1.55874 -2.683901 -2.12132 -2.12132 
C -2.683901 -1.55874 -3 -0.795609 -3 0 
C -3 0.795609 -2.683901 1.55874 -2.12132 2.12132 
C -1.55874 2.683901 -0.795609 3 0 3 
z
" style="stroke: #ff7f0e"/>
    </defs>
    <g clip-path="url(#pc369e0eaf2)">
     <use xlink:href="#m362c4bb74d" x="194.665851" y="293.324898" style="fill: #ff7f0e; stroke: #ff7f0e"/>
    </g>
   </g>
   <g id="line2d_17">
    <path d="M 73.832727 286.060802 
L 166.011911 285.978684 
L 171.418315 284.460737 
L 174.121517 283.873625 
L 180.879522 282.798097 
L 188.178167 281.868252 
L 192.50329 281.273765 
L 196.287772 279.048122 
L 196.828413 278.750076 
L 197.098733 286.060802 
L 398.216953 286.060802 
L 398.216953 286.060802 
" clip-path="url(#pc369e0eaf2)" style="fill: none; stroke: #2ca02c; stroke-width: 1.5; stroke-linecap: square"/>
   </g>
   <g id="line2d_18">
    <defs>
     <path id="m264482f0fe" d="M 0 3 
C 0.795609 3 1.55874 2.683901 2.12132 2.12132 
C 2.683901 1.55874 3 0.795609 3 0 
C 3 -0.795609 2.683901 -1.55874 2.12132 -2.12132 
C 1.55874 -2.683901 0.795609 -3 0 -3 
C -0.795609 -3 -1.55874 -2.683901 -2.12132 -2.12132 
C -2.683901 -1.55874 -3 -0.795609 -3 0 
C -3 0.795609 -2.683901 1.55874 -2.12132 2.12132 
C -1.55874 2.683901 -0.795609 3 0 3 
z
" style="stroke: #d62728"/>
    </defs>
    <g clip-path="url(#pc369e0eaf2)">
     <use xlink:href="#m264482f0fe" x="197.098733" y="286.060802" style="fill: #d62728; stroke: #d62728"/>
    </g>
   </g>
   <g id="line2d_19">
    <path d="M 73.832727 278.796706 
L 196.287772 278.796706 
L 200.072255 276.214095 
L 203.856738 273.894911 
L 207.64122 271.6397 
L 207.91154 271.322876 
L 208.181861 278.796706 
L 398.216953 278.796706 
L 398.216953 278.796706 
" clip-path="url(#pc369e0eaf2)" style="fill: none; stroke: #9467bd; stroke-width: 1.5; stroke-linecap: square"/>
   </g>
   <g id="line2d_20">
    <defs>
     <path id="ma23c206ff0" d="M 0 3 
C 0.795609 3 1.55874 2.683901 2.12132 2.12132 
C 2.683901 1.55874 3 0.795609 3 0 
C 3 -0.795609 2.683901 -1.55874 2.12132 -2.12132 
C 1.55874 -2.683901 0.795609 -3 0 -3 
C -0.795609 -3 -1.55874 -2.683901 -2.12132 -2.12132 
C -2.683901 -1.55874 -3 -0.795609 -3 0 
C -3 0.795609 -2.683901 1.55874 -2.12132 2.12132 
C -1.55874 2.683901 -0.795609 3 0 3 
z
" style="stroke: #8c564b"/>
    </defs>
    <g clip-path="url(#pc369e0eaf2)">
     <use xlink:href="#ma23c206ff0" x="208.181861" y="278.796706" style="fill: #8c564b; stroke: #8c564b"/>
    </g>
   </g>
   <g id="line2d_21">
    <path d="M 73.832727 271.532611 
L 188.448487 271.436189 
L 196.287772 270.497842 
L 200.612895 268.435232 
L 204.938018 266.615198 
L 209.533462 264.922692 
L 211.696023 264.205467 
L 211.966343 271.532611 
L 398.216953 271.532611 
L 398.216953 271.532611 
" clip-path="url(#pc369e0eaf2)" style="fill: none; stroke: #e377c2; stroke-width: 1.5; stroke-linecap: square"/>
   </g>
   <g id="line2d_22">
    <defs>
     <path id="m06012fccb9" d="M 0 3 
C 0.795609 3 1.55874 2.683901 2.12132 2.12132 
C 2.683901 1.55874 3 0.795609 3 0 
C 3 -0.795609 2.683901 -1.55874 2.12132 -2.12132 
C 1.55874 -2.683901 0.795609 -3 0 -3 
C -0.795609 -3 -1.55874 -2.683901 -2.12132 -2.12132 
C -2.683901 -1.55874 -3 -0.795609 -3 0 
C -3 0.795609 -2.683901 1.55874 -2.12132 2.12132 
C -1.55874 2.683901 -0.795609 3 0 3 
z
" style="stroke: #7f7f7f"/>
    </defs>
    <g clip-path="url(#pc369e0eaf2)">
     <use xlink:href="#m06012fccb9" x="211.966343" y="271.532611" style="fill: #7f7f7f; stroke: #7f7f7f"/>
    </g>
   </g>
   <g id="line2d_23">
    <path d="M 73.832727 264.268515 
L 166.011911 264.268515 
L 170.607354 262.402993 
L 174.121517 261.00143 
L 177.635679 258.237914 
L 179.527921 256.862533 
L 179.798241 264.268515 
L 398.216953 264.268515 
L 398.216953 264.268515 
" clip-path="url(#pc369e0eaf2)" style="fill: none; stroke: #bcbd22; stroke-width: 1.5; stroke-linecap: square"/>
   </g>
   <g id="line2d_24">
    <defs>
     <path id="md35bb93355" d="M 0 3 
C 0.795609 3 1.55874 2.683901 2.12132 2.12132 
C 2.683901 1.55874 3 0.795609 3 0 
C 3 -0.795609 2.683901 -1.55874 2.12132 -2.12132 
C 1.55874 -2.683901 0.795609 -3 0 -3 
C -0.795609 -3 -1.55874 -2.683901 -2.12132 -2.12132 
C -2.683901 -1.55874 -3 -0.795609 -3 0 
C -3 0.795609 -2.683901 1.55874 -2.12132 2.12132 
C -1.55874 2.683901 -0.795609 3 0 3 
z
" style="stroke: #17becf"/>
    </defs>
    <g clip-path="url(#pc369e0eaf2)">
     <use xlink:href="#md35bb93355" x="179.798241" y="264.268515" style="fill: #17becf; stroke: #17becf"/>
    </g>
   </g>
   <g id="line2d_25">
    <path d="M 73.832727 257.004419 
L 141.683094 257.092958 
L 148.981739 258.164865 
L 154.658463 258.806498 
L 159.524227 258.592402 
L 183.042083 257.889255 
L 189.259447 256.56566 
L 195.747132 255.410518 
L 202.775457 254.384826 
L 210.344422 253.505062 
L 218.724348 252.760116 
L 227.915234 252.171658 
L 238.187401 251.741703 
L 249.811169 251.480913 
L 263.597499 251.401923 
L 280.357351 251.537019 
L 302.793926 251.953621 
L 344.693555 253.00135 
L 398.216953 254.275212 
L 398.216953 254.275212 
" clip-path="url(#pc369e0eaf2)" style="fill: none; stroke: #1f77b4; stroke-width: 1.5; stroke-linecap: square"/>
   </g>
   <g id="line2d_26">
    <g clip-path="url(#pc369e0eaf2)">
     <use xlink:href="#m362c4bb74d" x="398.487273" y="257.004419" style="fill: #ff7f0e; stroke: #ff7f0e"/>
    </g>
   </g>
   <g id="line2d_27">
    <path d="M 73.832727 249.740323 
L 119.787159 249.740323 
L 124.382602 247.959675 
L 129.248366 246.312738 
L 134.384449 244.81356 
L 138.709572 243.744724 
L 145.467577 242.820234 
L 148.711419 242.452088 
L 148.981739 249.740323 
L 398.216953 249.740323 
L 398.216953 249.740323 
" clip-path="url(#pc369e0eaf2)" style="fill: none; stroke: #2ca02c; stroke-width: 1.5; stroke-linecap: square"/>
   </g>
   <g id="line2d_28">
    <g clip-path="url(#pc369e0eaf2)">
     <use xlink:href="#m264482f0fe" x="148.981739" y="249.740323" style="fill: #d62728; stroke: #d62728"/>
    </g>
   </g>
   <g id="line2d_29">
    <path d="M 73.832727 242.476228 
L 189.800088 242.476228 
L 193.854891 240.063055 
L 197.639373 238.055659 
L 201.964496 236.115887 
L 204.397378 235.131029 
L 204.667698 242.476228 
L 398.216953 242.476228 
L 398.216953 242.476228 
" clip-path="url(#pc369e0eaf2)" style="fill: none; stroke: #9467bd; stroke-width: 1.5; stroke-linecap: square"/>
   </g>
   <g id="line2d_30">
    <g clip-path="url(#pc369e0eaf2)">
     <use xlink:href="#ma23c206ff0" x="204.667698" y="242.476228" style="fill: #8c564b; stroke: #8c564b"/>
    </g>
   </g>
   <g id="line2d_31">
    <path d="M 73.832727 235.212132 
L 117.354277 235.104492 
L 122.220041 233.30029 
L 127.085804 231.731171 
L 132.221888 230.303712 
L 137.628292 229.027788 
L 140.872134 228.251038 
L 141.683094 227.93113 
L 141.953415 235.212132 
L 398.216953 235.212132 
L 398.216953 235.212132 
" clip-path="url(#pc369e0eaf2)" style="fill: none; stroke: #e377c2; stroke-width: 1.5; stroke-linecap: square"/>
   </g>
   <g id="line2d_32">
    <g clip-path="url(#pc369e0eaf2)">
     <use xlink:href="#m06012fccb9" x="141.953415" y="235.212132" style="fill: #7f7f7f; stroke: #7f7f7f"/>
    </g>
   </g>
   <g id="line2d_33">
    <path d="M 73.832727 227.948036 
L 129.518686 227.851368 
L 139.790853 227.02346 
L 145.197257 225.520865 
L 148.170779 224.668422 
L 152.766222 223.020982 
L 157.631985 221.509342 
L 160.875828 220.622602 
L 161.146148 227.948036 
L 398.216953 227.948036 
L 398.216953 227.948036 
" clip-path="url(#pc369e0eaf2)" style="fill: none; stroke: #bcbd22; stroke-width: 1.5; stroke-linecap: square"/>
   </g>
   <g id="line2d_34">
    <g clip-path="url(#pc369e0eaf2)">
     <use xlink:href="#md35bb93355" x="161.146148" y="227.948036" style="fill: #17becf; stroke: #17becf"/>
    </g>
   </g>
   <g id="line2d_35">
    <path d="M 73.832727 220.68394 
L 130.329647 220.619766 
L 136.276691 219.324641 
L 142.764375 218.144204 
L 149.52238 217.13871 
L 150.33334 216.925933 
L 154.388143 214.935896 
L 157.902306 213.395556 
L 158.172626 220.68394 
L 398.216953 220.68394 
L 398.216953 220.68394 
" clip-path="url(#pc369e0eaf2)" style="fill: none; stroke: #1f77b4; stroke-width: 1.5; stroke-linecap: square"/>
   </g>
   <g id="line2d_36">
    <g clip-path="url(#pc369e0eaf2)">
     <use xlink:href="#m362c4bb74d" x="158.172626" y="220.68394" style="fill: #ff7f0e; stroke: #ff7f0e"/>
    </g>
   </g>
   <g id="line2d_37">
    <path d="M 73.832727 213.419844 
L 177.635679 213.419844 
L 181.690482 211.22088 
L 186.015605 209.13915 
L 190.340728 207.305725 
L 191.962649 206.776441 
L 194.125211 206.136935 
L 194.395531 213.419844 
L 398.216953 213.419844 
L 398.216953 213.419844 
" clip-path="url(#pc369e0eaf2)" style="fill: none; stroke: #2ca02c; stroke-width: 1.5; stroke-linecap: square"/>
   </g>
   <g id="line2d_38">
    <g clip-path="url(#pc369e0eaf2)">
     <use xlink:href="#m264482f0fe" x="194.395531" y="213.419844" style="fill: #d62728; stroke: #d62728"/>
    </g>
   </g>
   <g id="line2d_39">
    <path d="M 73.832727 206.155749 
L 181.690482 206.056109 
L 187.907846 205.388418 
L 207.64122 205.11461 
L 211.696023 202.990692 
L 216.021146 200.983051 
L 220.346269 199.218028 
L 221.42755 198.812048 
L 221.69787 206.155749 
L 398.216953 206.155749 
L 398.216953 206.155749 
" clip-path="url(#pc369e0eaf2)" style="fill: none; stroke: #9467bd; stroke-width: 1.5; stroke-linecap: square"/>
   </g>
   <g id="line2d_40">
    <g clip-path="url(#pc369e0eaf2)">
     <use xlink:href="#ma23c206ff0" x="221.69787" y="206.155749" style="fill: #8c564b; stroke: #8c564b"/>
    </g>
   </g>
   <g id="line2d_41">
    <path d="M 73.832727 198.891653 
L 173.851197 198.784243 
L 195.206492 196.109837 
L 197.098733 195.918083 
L 200.883216 193.33974 
L 203.856738 191.504352 
L 204.127058 198.891653 
L 398.216953 198.891653 
L 398.216953 198.891653 
" clip-path="url(#pc369e0eaf2)" style="fill: none; stroke: #e377c2; stroke-width: 1.5; stroke-linecap: square"/>
   </g>
   <g id="line2d_42">
    <g clip-path="url(#pc369e0eaf2)">
     <use xlink:href="#m06012fccb9" x="204.127058" y="198.891653" style="fill: #7f7f7f; stroke: #7f7f7f"/>
    </g>
   </g>
   <g id="line2d_43">
    <path d="M 73.832727 191.627557 
L 137.087651 191.721576 
L 144.115976 192.821782 
L 151.684941 193.779254 
L 155.199104 194.153677 
L 160.875828 192.658133 
L 166.822872 191.319059 
L 173.310556 190.091626 
L 180.068561 189.038382 
L 187.367206 188.122982 
L 195.476812 187.335209 
L 204.397378 186.700493 
L 206.559939 186.46662 
L 211.966343 185.181481 
L 213.317944 184.787605 
L 214.939865 184.305657 
L 215.210185 191.627557 
L 398.216953 191.627557 
L 398.216953 191.627557 
" clip-path="url(#pc369e0eaf2)" style="fill: none; stroke: #bcbd22; stroke-width: 1.5; stroke-linecap: square"/>
   </g>
   <g id="line2d_44">
    <g clip-path="url(#pc369e0eaf2)">
     <use xlink:href="#md35bb93355" x="215.210185" y="191.627557" style="fill: #17becf; stroke: #17becf"/>
    </g>
   </g>
   <g id="line2d_45">
    <path d="M 73.832727 184.363461 
L 116.543317 184.258122 
L 129.248366 183.681645 
L 135.46573 183.38671 
L 140.601814 181.758467 
L 146.008217 180.289511 
L 151.684941 178.987205 
L 161.146148 177.088819 
L 161.416468 184.363461 
L 398.216953 184.363461 
L 398.216953 184.363461 
" clip-path="url(#pc369e0eaf2)" style="fill: none; stroke: #1f77b4; stroke-width: 1.5; stroke-linecap: square"/>
   </g>
   <g id="line2d_46">
    <g clip-path="url(#pc369e0eaf2)">
     <use xlink:href="#m362c4bb74d" x="161.416468" y="184.363461" style="fill: #ff7f0e; stroke: #ff7f0e"/>
    </g>
   </g>
   <g id="line2d_47">
    <path d="M 73.832727 177.099365 
L 153.577183 177.099365 
L 157.902306 174.969854 
L 162.227429 173.087566 
L 166.822872 171.33363 
L 171.418315 169.809201 
L 171.688635 177.099365 
L 398.216953 177.099365 
L 398.216953 177.099365 
" clip-path="url(#pc369e0eaf2)" style="fill: none; stroke: #2ca02c; stroke-width: 1.5; stroke-linecap: square"/>
   </g>
   <g id="line2d_48">
    <g clip-path="url(#pc369e0eaf2)">
     <use xlink:href="#m264482f0fe" x="171.688635" y="177.099365" style="fill: #d62728; stroke: #d62728"/>
    </g>
   </g>
   <g id="line2d_49">
    <path d="M 73.832727 169.83527 
L 190.881369 169.765085 
L 196.558092 168.407958 
L 202.775457 166.930828 
L 207.3709 165.261103 
L 211.155383 163.901223 
L 213.588264 162.556662 
L 213.858585 169.83527 
L 398.216953 169.83527 
L 398.216953 169.83527 
" clip-path="url(#pc369e0eaf2)" style="fill: none; stroke: #9467bd; stroke-width: 1.5; stroke-linecap: square"/>
   </g>
   <g id="line2d_50">
    <g clip-path="url(#pc369e0eaf2)">
     <use xlink:href="#ma23c206ff0" x="213.858585" y="169.83527" style="fill: #8c564b; stroke: #8c564b"/>
    </g>
   </g>
   <g id="line2d_51">
    <path d="M 73.832727 162.571174 
L 197.639373 162.571174 
L 201.423856 160.116258 
L 205.478659 157.76333 
L 206.559939 157.098295 
L 208.992821 155.135443 
L 209.263141 162.571174 
L 398.216953 162.571174 
L 398.216953 162.571174 
" clip-path="url(#pc369e0eaf2)" style="fill: none; stroke: #e377c2; stroke-width: 1.5; stroke-linecap: square"/>
   </g>
   <g id="line2d_52">
    <g clip-path="url(#pc369e0eaf2)">
     <use xlink:href="#m06012fccb9" x="209.263141" y="162.571174" style="fill: #7f7f7f; stroke: #7f7f7f"/>
    </g>
   </g>
   <g id="line2d_53">
    <path d="M 73.832727 155.307078 
L 153.306862 155.300523 
L 157.631985 153.205131 
L 161.957108 151.353022 
L 166.552552 149.627228 
L 171.418315 148.045603 
L 171.688635 147.964626 
L 171.958955 155.307078 
L 398.216953 155.307078 
L 398.216953 155.307078 
" clip-path="url(#pc369e0eaf2)" style="fill: none; stroke: #bcbd22; stroke-width: 1.5; stroke-linecap: square"/>
   </g>
   <g id="line2d_54">
    <g clip-path="url(#pc369e0eaf2)">
     <use xlink:href="#md35bb93355" x="171.958955" y="155.307078" style="fill: #17becf; stroke: #17becf"/>
    </g>
   </g>
   <g id="line2d_55">
    <path d="M 73.832727 148.042982 
L 188.989127 147.933395 
L 192.77361 145.620115 
L 196.828413 143.40322 
L 200.883216 141.434547 
L 202.505137 140.71178 
L 202.775457 148.042982 
L 398.216953 148.042982 
L 398.216953 148.042982 
" clip-path="url(#pc369e0eaf2)" style="fill: none; stroke: #1f77b4; stroke-width: 1.5; stroke-linecap: square"/>
   </g>
   <g id="line2d_56">
    <g clip-path="url(#pc369e0eaf2)">
     <use xlink:href="#m362c4bb74d" x="202.775457" y="148.042982" style="fill: #ff7f0e; stroke: #ff7f0e"/>
    </g>
   </g>
   <g id="line2d_57">
    <path d="M 73.832727 140.778887 
L 131.410927 140.88618 
L 139.250213 141.224135 
L 143.305016 139.089097 
L 147.630139 137.066584 
L 149.7927 136.060781 
L 153.577183 133.450015 
L 153.847503 140.778887 
L 398.216953 140.778887 
L 398.216953 140.778887 
" clip-path="url(#pc369e0eaf2)" style="fill: none; stroke: #2ca02c; stroke-width: 1.5; stroke-linecap: square"/>
   </g>
   <g id="line2d_58">
    <g clip-path="url(#pc369e0eaf2)">
     <use xlink:href="#m264482f0fe" x="153.847503" y="140.778887" style="fill: #d62728; stroke: #d62728"/>
    </g>
   </g>
   <g id="line2d_59">
    <path d="M 73.832727 133.514791 
L 191.692329 133.416786 
L 196.558092 131.774087 
L 201.694176 130.271888 
L 203.045777 129.815969 
L 207.64122 128.190417 
L 211.966343 126.715452 
L 212.777304 126.071893 
L 213.047624 133.514791 
L 398.216953 133.514791 
L 398.216953 133.514791 
" clip-path="url(#pc369e0eaf2)" style="fill: none; stroke: #9467bd; stroke-width: 1.5; stroke-linecap: square"/>
   </g>
   <g id="line2d_60">
    <g clip-path="url(#pc369e0eaf2)">
     <use xlink:href="#ma23c206ff0" x="213.047624" y="133.514791" style="fill: #8c564b; stroke: #8c564b"/>
    </g>
   </g>
   <g id="line2d_61">
    <path d="M 73.832727 126.250695 
L 124.382602 126.351985 
L 133.573489 127.098073 
L 143.845656 126.371283 
L 147.900459 123.942298 
L 151.955262 121.777901 
L 156.010064 119.855698 
L 158.172626 118.922353 
L 158.442946 126.250695 
L 398.216953 126.250695 
L 398.216953 126.250695 
" clip-path="url(#pc369e0eaf2)" style="fill: none; stroke: #e377c2; stroke-width: 1.5; stroke-linecap: square"/>
   </g>
   <g id="line2d_62">
    <g clip-path="url(#pc369e0eaf2)">
     <use xlink:href="#m06012fccb9" x="158.442946" y="126.250695" style="fill: #7f7f7f; stroke: #7f7f7f"/>
    </g>
   </g>
   <g id="line2d_63">
    <path d="M 73.832727 118.986599 
L 130.059326 118.895223 
L 135.19541 117.284575 
L 140.601814 115.827529 
L 146.278538 114.531388 
L 150.873981 113.463516 
L 156.010064 112.006094 
L 157.361665 111.660653 
L 157.631985 118.986599 
L 398.216953 118.986599 
L 398.216953 118.986599 
" clip-path="url(#pc369e0eaf2)" style="fill: none; stroke: #bcbd22; stroke-width: 1.5; stroke-linecap: square"/>
   </g>
   <g id="line2d_64">
    <g clip-path="url(#pc369e0eaf2)">
     <use xlink:href="#md35bb93355" x="157.631985" y="118.986599" style="fill: #17becf; stroke: #17becf"/>
    </g>
   </g>
   <g id="line2d_65">
    <path d="M 73.832727 111.722503 
L 117.894918 111.646051 
L 123.571642 110.167736 
L 129.518686 108.858125 
L 135.73605 107.718604 
L 136.817331 107.456739 
L 141.953415 105.948861 
L 147.359818 104.603722 
L 148.170779 104.421616 
L 148.441099 111.722503 
L 398.216953 111.722503 
L 398.216953 111.722503 
" clip-path="url(#pc369e0eaf2)" style="fill: none; stroke: #1f77b4; stroke-width: 1.5; stroke-linecap: square"/>
   </g>
   <g id="line2d_66">
    <g clip-path="url(#pc369e0eaf2)">
     <use xlink:href="#m362c4bb74d" x="148.441099" y="111.722503" style="fill: #ff7f0e; stroke: #ff7f0e"/>
    </g>
   </g>
   <g id="line2d_67">
    <path d="M 73.832727 104.458408 
L 173.851197 104.350983 
L 178.71696 102.550382 
L 183.582723 100.984396 
L 188.178167 99.52517 
L 193.04393 97.177314 
L 193.31425 104.458408 
L 398.216953 104.458408 
L 398.216953 104.458408 
" clip-path="url(#pc369e0eaf2)" style="fill: none; stroke: #2ca02c; stroke-width: 1.5; stroke-linecap: square"/>
   </g>
   <g id="line2d_68">
    <g clip-path="url(#pc369e0eaf2)">
     <use xlink:href="#m264482f0fe" x="193.31425" y="104.458408" style="fill: #d62728; stroke: #d62728"/>
    </g>
   </g>
   <g id="line2d_69">
    <path d="M 73.832727 97.194312 
L 186.826566 97.194312 
L 190.881369 94.906176 
L 194.936171 92.86759 
L 200.612895 90.299538 
L 201.694176 89.856522 
L 201.964496 97.194312 
L 398.216953 97.194312 
L 398.216953 97.194312 
" clip-path="url(#pc369e0eaf2)" style="fill: none; stroke: #9467bd; stroke-width: 1.5; stroke-linecap: square"/>
   </g>
   <g id="line2d_70">
    <g clip-path="url(#pc369e0eaf2)">
     <use xlink:href="#ma23c206ff0" x="201.964496" y="97.194312" style="fill: #8c564b; stroke: #8c564b"/>
    </g>
   </g>
   <g id="line2d_71">
    <path d="M 73.832727 89.930216 
L 115.191716 90.024197 
L 126.545164 90.685333 
L 134.384449 91.026451 
L 139.250213 89.205309 
L 144.115976 87.616894 
L 149.25206 86.166919 
L 154.658463 84.865332 
L 157.631985 84.320651 
L 164.930631 83.513937 
L 172.769916 82.87019 
L 176.013758 82.662143 
L 176.284078 89.930216 
L 398.216953 89.930216 
L 398.216953 89.930216 
" clip-path="url(#pc369e0eaf2)" style="fill: none; stroke: #e377c2; stroke-width: 1.5; stroke-linecap: square"/>
   </g>
   <g id="line2d_72">
    <g clip-path="url(#pc369e0eaf2)">
     <use xlink:href="#m06012fccb9" x="176.284078" y="89.930216" style="fill: #7f7f7f; stroke: #7f7f7f"/>
    </g>
   </g>
   <g id="line2d_73">
    <path d="M 73.832727 82.66612 
L 168.174473 82.773816 
L 178.17632 83.098201 
L 182.501443 83.661616 
L 186.826566 81.680561 
L 191.422009 79.823926 
L 196.287772 78.110343 
L 201.153536 76.630412 
L 205.478659 75.346852 
L 205.748979 82.66612 
L 398.216953 82.66612 
L 398.216953 82.66612 
" clip-path="url(#pc369e0eaf2)" style="fill: none; stroke: #bcbd22; stroke-width: 1.5; stroke-linecap: square"/>
   </g>
   <g id="line2d_74">
    <g clip-path="url(#pc369e0eaf2)">
     <use xlink:href="#md35bb93355" x="205.748979" y="82.66612" style="fill: #17becf; stroke: #17becf"/>
    </g>
   </g>
   <g id="line2d_75">
    <path d="M 73.832727 75.402024 
L 186.826566 75.29703 
L 207.3709 74.227849 
L 210.614742 73.906194 
L 217.643067 72.889698 
L 222.508831 72.161038 
L 225.482353 71.517502 
L 230.888756 70.186089 
L 236.56548 69.020607 
L 241.160923 68.089314 
L 241.431244 75.402024 
L 398.216953 75.402024 
L 398.216953 75.402024 
" clip-path="url(#pc369e0eaf2)" style="fill: none; stroke: #1f77b4; stroke-width: 1.5; stroke-linecap: square"/>
   </g>
   <g id="line2d_76">
    <g clip-path="url(#pc369e0eaf2)">
     <use xlink:href="#m362c4bb74d" x="241.431244" y="75.402024" style="fill: #ff7f0e; stroke: #ff7f0e"/>
    </g>
   </g>
   <g id="line2d_77">
    <path d="M 73.832727 68.137929 
L 158.442946 68.038971 
L 167.904153 67.449159 
L 171.418315 67.14663 
L 181.149842 65.824251 
L 186.556246 65.085967 
L 193.854891 64.134331 
L 198.450334 63.503084 
L 205.208339 61.97471 
L 210.344422 60.828408 
L 210.614742 68.137929 
L 398.216953 68.137929 
L 398.216953 68.137929 
" clip-path="url(#pc369e0eaf2)" style="fill: none; stroke: #2ca02c; stroke-width: 1.5; stroke-linecap: square"/>
   </g>
   <g id="line2d_78">
    <g clip-path="url(#pc369e0eaf2)">
     <use xlink:href="#m264482f0fe" x="210.614742" y="68.137929" style="fill: #d62728; stroke: #d62728"/>
    </g>
   </g>
   <g id="line2d_79">
    <path d="M 73.832727 60.873833 
L 200.342575 60.766117 
L 211.966343 60.346857 
L 218.724348 59.572137 
L 223.860431 58.995238 
L 240.349963 56.943795 
L 244.134446 56.188739 
L 254.676933 53.568 
L 254.947253 60.873833 
L 398.216953 60.873833 
L 398.216953 60.873833 
" clip-path="url(#pc369e0eaf2)" style="fill: none; stroke: #9467bd; stroke-width: 1.5; stroke-linecap: square"/>
   </g>
   <g id="line2d_80">
    <g clip-path="url(#pc369e0eaf2)">
     <use xlink:href="#ma23c206ff0" x="254.947253" y="60.873833" style="fill: #8c564b; stroke: #8c564b"/>
    </g>
   </g>
   <g id="patch_3">
    <path d="M 57.6 307.584 
L 57.6 41.472 
" style="fill: none; stroke: #000000; stroke-width: 0.8; stroke-linejoin: miter; stroke-linecap: square"/>
   </g>
   <g id="patch_4">
    <path d="M 414.72 307.584 
L 414.72 41.472 
" style="fill: none; stroke: #000000; stroke-width: 0.8; stroke-linejoin: miter; stroke-linecap: square"/>
   </g>
   <g id="patch_5">
    <path d="M 57.6 307.584 
L 414.72 307.584 
" style="fill: none; stroke: #000000; stroke-width: 0.8; stroke-linejoin: miter; stroke-linecap: square"/>
   </g>
   <g id="patch_6">
    <path d="M 57.6 41.472 
L 414.72 41.472 
" style="fill: none; stroke: #000000; stroke-width: 0.8; stroke-linejoin: miter; stroke-linecap: square"/>
   </g>
  </g>
 </g>
 <defs>
  <clipPath id="pc369e0eaf2">
   <rect x="57.6" y="41.472" width="357.12" height="266.112"/>
  </clipPath>
 </defs>
</svg>
