<?xml version="1.0" encoding="utf-8" standalone="no"?>
<!DOCTYPE svg PUBLIC "-//W3C//DTD SVG 1.1//EN"
  "http://www.w3.org/Graphics/SVG/1.1/DTD/svg11.dtd">
<svg xmlns:xlink="http://www.w3.org/1999/xlink" width="460.8pt" height="345.6pt" viewBox="0 0 460.8 345.6" xmlns="http://www.w3.org/2000/svg" version="1.1">
 <metadata>
  <rdf:RDF xmlns:dc="http://purl.org/dc/elements/1.1/" xmlns:cc="http://creativecommons.org/ns#" xmlns:rdf="http://www.w3.org/1999/02/22-rdf-syntax-ns#">
   <cc:Work>
    <dc:type rdf:resource="http://purl.org/dc/dcmitype/StillImage"/>
    <dc:date>2025-12-10T20:04:17.285682</dc:date>
    <dc:format>image/svg+xml</dc:format>
    <dc:creator>
     <cc:Agent>
      <dc:title>Matplotlib v3.10.7, https://matplotlib.org/</dc:title>
     </cc:Agent>
    </dc:creator>
   </cc:Work>
  </rdf:RDF>
 </metadata>
 <defs>
  <style type="text/css">*{stroke-linejoin: round; stroke-linecap: butt}</style>
 </defs>
 <g id="figure_1">
  <g id="patch_1">
   <path d="M 0 345.6 
L 460.8 345.6 
L 460.8 0 
L 0 0 
z
" style="fill: #ffffff"/>
  </g>
  <g id="axes_1">
   <g id="patch_2">
    <path d="M 57.6 307.584 
L 414.72 307.584 
L 414.72 41.472 
L 57.6 41.472 
z
" style="fill: #ffffff"/>
   </g>
   <g id="matplotlib.axis_1">
    <g id="xtick_1">
     <g id="line2d_1">
      <defs>
       <path id="me613850bf6" d="M 0 0 
L 0 3.5 
" style="stroke: #000000; stroke-width: 0.8"/>
      </defs>
      <g>
       <use xlink:href="#me613850bf6" x="73.832727" y="307.584" style="stroke: #000000; stroke-width: 0.8"/>
      </g>
     </g>
     <g id="text_1">
      <!-- 0 -->
      <g transform="translate(70.651477 322.182437) scale(0.1 -0.1)">
       <defs>
        <path id="DejaVuSans-30" d="M 2034 4250 
Q 1547 4250 1301 3770 
Q 1056 3291 1056 2328 
Q 1056 1369 1301 889 
Q 1547 409 2034 409 
Q 2525 409 2770 889 
Q 3016 1369 3016 2328 
Q 3016 3291 2770 3770 
Q 2525 4250 2034 4250 
z
M 2034 4750 
Q 2819 4750 3233 4129 
Q 3647 3509 3647 2328 
Q 3647 1150 3233 529 
Q 2819 -91 2034 -91 
Q 1250 -91 836 529 
Q 422 1150 422 2328 
Q 422 3509 836 4129 
Q 1250 4750 2034 4750 
z
" transform="scale(0.015625)"/>
       </defs>
       <use xlink:href="#DejaVuSans-30"/>
      </g>
     </g>
    </g>
    <g id="xtick_2">
     <g id="line2d_2">
      <g>
       <use xlink:href="#me613850bf6" x="138.77013" y="307.584" style="stroke: #000000; stroke-width: 0.8"/>
      </g>
     </g>
     <g id="text_2">
      <!-- 2000 -->
      <g transform="translate(126.04513 322.182437) scale(0.1 -0.1)">
       <defs>
        <path id="DejaVuSans-32" d="M 1228 531 
L 3431 531 
L 3431 0 
L 469 0 
L 469 531 
Q 828 903 1448 1529 
Q 2069 2156 2228 2338 
Q 2531 2678 2651 2914 
Q 2772 3150 2772 3378 
Q 2772 3750 2511 3984 
Q 2250 4219 1831 4219 
Q 1534 4219 1204 4116 
Q 875 4013 500 3803 
L 500 4441 
Q 881 4594 1212 4672 
Q 1544 4750 1819 4750 
Q 2544 4750 2975 4387 
Q 3406 4025 3406 3419 
Q 3406 3131 3298 2873 
Q 3191 2616 2906 2266 
Q 2828 2175 2409 1742 
Q 1991 1309 1228 531 
z
" transform="scale(0.015625)"/>
       </defs>
       <use xlink:href="#DejaVuSans-32"/>
       <use xlink:href="#DejaVuSans-30" transform="translate(63.623047 0)"/>
       <use xlink:href="#DejaVuSans-30" transform="translate(127.246094 0)"/>
       <use xlink:href="#DejaVuSans-30" transform="translate(190.869141 0)"/>
      </g>
     </g>
    </g>
    <g id="xtick_3">
     <g id="line2d_3">
      <g>
       <use xlink:href="#me613850bf6" x="203.707533" y="307.584" style="stroke: #000000; stroke-width: 0.8"/>
      </g>
     </g>
     <g id="text_3">
      <!-- 4000 -->
      <g transform="translate(190.982533 322.182437) scale(0.1 -0.1)">
       <defs>
        <path id="DejaVuSans-34" d="M 2419 4116 
L 825 1625 
L 2419 1625 
L 2419 4116 
z
M 2253 4666 
L 3047 4666 
L 3047 1625 
L 3713 1625 
L 3713 1100 
L 3047 1100 
L 3047 0 
L 2419 0 
L 2419 1100 
L 313 1100 
L 313 1709 
L 2253 4666 
z
" transform="scale(0.015625)"/>
       </defs>
       <use xlink:href="#DejaVuSans-34"/>
       <use xlink:href="#DejaVuSans-30" transform="translate(63.623047 0)"/>
       <use xlink:href="#DejaVuSans-30" transform="translate(127.246094 0)"/>
       <use xlink:href="#DejaVuSans-30" transform="translate(190.869141 0)"/>
      </g>
     </g>
    </g>
    <g id="xtick_4">
     <g id="line2d_4">
      <g>
       <use xlink:href="#me613850bf6" x="268.644936" y="307.584" style="stroke: #000000; stroke-width: 0.8"/>
      </g>
     </g>
     <g id="text_4">
      <!-- 6000 -->
      <g transform="translate(255.919936 322.182437) scale(0.1 -0.1)">
       <defs>
        <path id="DejaVuSans-36" d="M 2113 2584 
Q 1688 2584 1439 2293 
Q 1191 2003 1191 1497 
Q 1191 994 1439 701 
Q 1688 409 2113 409 
Q 2538 409 2786 701 
Q 3034 994 3034 1497 
Q 3034 2003 2786 2293 
Q 2538 2584 2113 2584 
z
M 3366 4563 
L 3366 3988 
Q 3128 4100 2886 4159 
Q 2644 4219 2406 4219 
Q 1781 4219 1451 3797 
Q 1122 3375 1075 2522 
Q 1259 2794 1537 2939 
Q 1816 3084 2150 3084 
Q 2853 3084 3261 2657 
Q 3669 2231 3669 1497 
Q 3669 778 3244 343 
Q 2819 -91 2113 -91 
Q 1303 -91 875 529 
Q 447 1150 447 2328 
Q 447 3434 972 4092 
Q 1497 4750 2381 4750 
Q 2619 4750 2861 4703 
Q 3103 4656 3366 4563 
z
" transform="scale(0.015625)"/>
       </defs>
       <use xlink:href="#DejaVuSans-36"/>
       <use xlink:href="#DejaVuSans-30" transform="translate(63.623047 0)"/>
       <use xlink:href="#DejaVuSans-30" transform="translate(127.246094 0)"/>
       <use xlink:href="#DejaVuSans-30" transform="translate(190.869141 0)"/>
      </g>
     </g>
    </g>
    <g id="xtick_5">
     <g id="line2d_5">
      <g>
       <use xlink:href="#me613850bf6" x="333.582339" y="307.584" style="stroke: #000000; stroke-width: 0.8"/>
      </g>
     </g>
     <g id="text_5">
      <!-- 8000 -->
      <g transform="translate(320.857339 322.182437) scale(0.1 -0.1)">
       <defs>
        <path id="DejaVuSans-38" d="M 2034 2216 
Q 1584 2216 1326 1975 
Q 1069 1734 1069 1313 
Q 1069 891 1326 650 
Q 1584 409 2034 409 
Q 2484 409 2743 651 
Q 3003 894 3003 1313 
Q 3003 1734 2745 1975 
Q 2488 2216 2034 2216 
z
M 1403 2484 
Q 997 2584 770 2862 
Q 544 3141 544 3541 
Q 544 4100 942 4425 
Q 1341 4750 2034 4750 
Q 2731 4750 3128 4425 
Q 3525 4100 3525 3541 
Q 3525 3141 3298 2862 
Q 3072 2584 2669 2484 
Q 3125 2378 3379 2068 
Q 3634 1759 3634 1313 
Q 3634 634 3220 271 
Q 2806 -91 2034 -91 
Q 1263 -91 848 271 
Q 434 634 434 1313 
Q 434 1759 690 2068 
Q 947 2378 1403 2484 
z
M 1172 3481 
Q 1172 3119 1398 2916 
Q 1625 2713 2034 2713 
Q 2441 2713 2670 2916 
Q 2900 3119 2900 3481 
Q 2900 3844 2670 4047 
Q 2441 4250 2034 4250 
Q 1625 4250 1398 4047 
Q 1172 3844 1172 3481 
z
" transform="scale(0.015625)"/>
       </defs>
       <use xlink:href="#DejaVuSans-38"/>
       <use xlink:href="#DejaVuSans-30" transform="translate(63.623047 0)"/>
       <use xlink:href="#DejaVuSans-30" transform="translate(127.246094 0)"/>
       <use xlink:href="#DejaVuSans-30" transform="translate(190.869141 0)"/>
      </g>
     </g>
    </g>
    <g id="xtick_6">
     <g id="line2d_6">
      <g>
       <use xlink:href="#me613850bf6" x="398.519741" y="307.584" style="stroke: #000000; stroke-width: 0.8"/>
      </g>
     </g>
     <g id="text_6">
      <!-- 10000 -->
      <g transform="translate(382.613491 322.182437) scale(0.1 -0.1)">
       <defs>
        <path id="DejaVuSans-31" d="M 794 531 
L 1825 531 
L 1825 4091 
L 703 3866 
L 703 4441 
L 1819 4666 
L 2450 4666 
L 2450 531 
L 3481 531 
L 3481 0 
L 794 0 
L 794 531 
z
" transform="scale(0.015625)"/>
       </defs>
       <use xlink:href="#DejaVuSans-31"/>
       <use xlink:href="#DejaVuSans-30" transform="translate(63.623047 0)"/>
       <use xlink:href="#DejaVuSans-30" transform="translate(127.246094 0)"/>
       <use xlink:href="#DejaVuSans-30" transform="translate(190.869141 0)"/>
       <use xlink:href="#DejaVuSans-30" transform="translate(254.492188 0)"/>
      </g>
     </g>
    </g>
   </g>
   <g id="matplotlib.axis_2">
    <g id="ytick_1">
     <g id="line2d_7">
      <defs>
       <path id="mbde057e086" d="M 0 0 
L -3.5 0 
" style="stroke: #000000; stroke-width: 0.8"/>
      </defs>
      <g>
       <use xlink:href="#mbde057e086" x="57.6" y="295.488" style="stroke: #000000; stroke-width: 0.8"/>
      </g>
     </g>
     <g id="text_7">
      <!-- 0 -->
      <g transform="translate(44.2375 299.287219) scale(0.1 -0.1)">
       <use xlink:href="#DejaVuSans-30"/>
      </g>
     </g>
    </g>
    <g id="ytick_2">
     <g id="line2d_8">
      <g>
       <use xlink:href="#mbde057e086" x="57.6" y="247.104" style="stroke: #000000; stroke-width: 0.8"/>
      </g>
     </g>
     <g id="text_8">
      <!-- 20 -->
      <g transform="translate(37.875 250.903219) scale(0.1 -0.1)">
       <use xlink:href="#DejaVuSans-32"/>
       <use xlink:href="#DejaVuSans-30" transform="translate(63.623047 0)"/>
      </g>
     </g>
    </g>
    <g id="ytick_3">
     <g id="line2d_9">
      <g>
       <use xlink:href="#mbde057e086" x="57.6" y="198.72" style="stroke: #000000; stroke-width: 0.8"/>
      </g>
     </g>
     <g id="text_9">
      <!-- 40 -->
      <g transform="translate(37.875 202.519219) scale(0.1 -0.1)">
       <use xlink:href="#DejaVuSans-34"/>
       <use xlink:href="#DejaVuSans-30" transform="translate(63.623047 0)"/>
      </g>
     </g>
    </g>
    <g id="ytick_4">
     <g id="line2d_10">
      <g>
       <use xlink:href="#mbde057e086" x="57.6" y="150.336" style="stroke: #000000; stroke-width: 0.8"/>
      </g>
     </g>
     <g id="text_10">
      <!-- 60 -->
      <g transform="translate(37.875 154.135219) scale(0.1 -0.1)">
       <use xlink:href="#DejaVuSans-36"/>
       <use xlink:href="#DejaVuSans-30" transform="translate(63.623047 0)"/>
      </g>
     </g>
    </g>
    <g id="ytick_5">
     <g id="line2d_11">
      <g>
       <use xlink:href="#mbde057e086" x="57.6" y="101.952" style="stroke: #000000; stroke-width: 0.8"/>
      </g>
     </g>
     <g id="text_11">
      <!-- 80 -->
      <g transform="translate(37.875 105.751219) scale(0.1 -0.1)">
       <use xlink:href="#DejaVuSans-38"/>
       <use xlink:href="#DejaVuSans-30" transform="translate(63.623047 0)"/>
      </g>
     </g>
    </g>
    <g id="ytick_6">
     <g id="line2d_12">
      <g>
       <use xlink:href="#mbde057e086" x="57.6" y="53.568" style="stroke: #000000; stroke-width: 0.8"/>
      </g>
     </g>
     <g id="text_12">
      <!-- 100 -->
      <g transform="translate(31.5125 57.367219) scale(0.1 -0.1)">
       <use xlink:href="#DejaVuSans-31"/>
       <use xlink:href="#DejaVuSans-30" transform="translate(63.623047 0)"/>
       <use xlink:href="#DejaVuSans-30" transform="translate(127.246094 0)"/>
      </g>
     </g>
    </g>
   </g>
   <g id="line2d_13">
    <path d="M 73.832727 207.287994 
L 77.079597 207.287994 
L 80.326468 207.287994 
L 83.573338 192.588002 
L 86.820208 186.287999 
L 90.067078 166.757996 
L 93.313948 138.197992 
L 96.560818 123.498 
L 99.807688 112.997998 
L 103.054559 100.607996 
L 106.26896 100.58175 
L 106.301429 102.077988 
L 109.548299 91.157996 
L 112.795169 80.238004 
L 116.042039 76.877994 
L 119.288909 73.097994 
L 122.535779 69.737984 
L 125.78265 67.847984 
L 129.02952 69.737984 
L 132.27639 64.487992 
L 135.52326 64.067984 
L 138.737661 70.2945 
L 138.77013 60.707992 
L 142.017 60.707992 
L 145.26387 60.707992 
L 148.510741 60.707992 
L 151.757611 60.707992 
L 155.004481 64.067984 
L 158.251351 64.067984 
L 161.498221 60.707992 
L 164.745091 60.707992 
L 167.991961 64.067984 
L 171.206363 63.06525 
L 171.238832 60.707992 
L 174.485702 60.707992 
L 177.732572 60.707992 
L 180.979442 60.707992 
L 184.226312 60.707992 
L 187.473182 58.817992 
L 190.720052 60.707992 
L 193.966923 57.348 
L 197.213793 60.707992 
L 200.460663 64.067984 
L 203.675064 60.4665 
L 203.707533 57.348 
L 206.954403 62.177984 
L 210.201273 59.238 
L 213.448143 60.707992 
L 216.695014 57.348 
L 219.941884 55.458 
L 223.188754 58.817992 
L 226.435624 57.348 
L 229.682494 57.348 
L 232.929364 57.348 
L 236.143766 60.0885 
L 236.176234 57.348 
L 239.423104 57.348 
L 242.669975 59.238 
L 245.916845 57.348 
L 249.163715 57.348 
L 252.410585 55.458 
L 255.657455 55.458 
L 258.904325 55.458 
L 262.151195 55.458 
L 265.398066 57.348 
L 268.612467 57.11175 
L 268.644936 55.458 
L 271.891806 55.458 
L 275.138676 55.458 
L 278.385546 57.348 
L 281.632416 55.458 
L 284.879286 55.458 
L 288.126157 53.568 
L 291.373027 55.458 
L 294.619897 57.348 
L 297.866767 57.348 
L 301.081168 58.34025 
L 301.113637 57.348 
L 304.360507 57.348 
L 307.607377 57.348 
L 310.854248 57.348 
L 314.101118 57.348 
L 317.347988 57.348 
L 320.594858 53.568 
L 323.841728 55.458 
L 327.088598 55.458 
L 330.335468 55.458 
L 333.54987 57.48975 
L 333.582339 55.458 
L 336.829209 55.458 
L 340.076079 53.568 
L 343.322949 53.568 
L 346.569819 55.458 
L 349.816689 55.458 
L 353.063559 55.458 
L 356.31043 53.568 
L 359.5573 53.568 
L 362.80417 53.568 
L 366.018571 57.6315 
L 366.05104 55.458 
L 369.29791 53.568 
L 372.54478 53.568 
L 375.79165 53.568 
L 379.038521 53.568 
L 382.285391 53.568 
L 385.532261 53.568 
L 388.779131 55.458 
L 392.026001 53.568 
L 395.272871 53.568 
L 398.487273 57.48975 
" clip-path="url(#p2684df77d0)" style="fill: none; stroke: #1f77b4; stroke-width: 1.5; stroke-linecap: square"/>
    <defs>
     <path id="m4f00aef3e9" d="M 0 3 
C 0.795609 3 1.55874 2.683901 2.12132 2.12132 
C 2.683901 1.55874 3 0.795609 3 0 
C 3 -0.795609 2.683901 -1.55874 2.12132 -2.12132 
C 1.55874 -2.683901 0.795609 -3 0 -3 
C -0.795609 -3 -1.55874 -2.683901 -2.12132 -2.12132 
C -2.683901 -1.55874 -3 -0.795609 -3 0 
C -3 0.795609 -2.683901 1.55874 -2.12132 2.12132 
C -1.55874 2.683901 -0.795609 3 0 3 
z
" style="stroke: #1f77b4"/>
    </defs>
    <g clip-path="url(#p2684df77d0)">
     <use xlink:href="#m4f00aef3e9" x="73.832727" y="207.287994" style="fill: #1f77b4; stroke: #1f77b4"/>
     <use xlink:href="#m4f00aef3e9" x="77.079597" y="207.287994" style="fill: #1f77b4; stroke: #1f77b4"/>
     <use xlink:href="#m4f00aef3e9" x="80.326468" y="207.287994" style="fill: #1f77b4; stroke: #1f77b4"/>
     <use xlink:href="#m4f00aef3e9" x="83.573338" y="192.588002" style="fill: #1f77b4; stroke: #1f77b4"/>
     <use xlink:href="#m4f00aef3e9" x="86.820208" y="186.287999" style="fill: #1f77b4; stroke: #1f77b4"/>
     <use xlink:href="#m4f00aef3e9" x="90.067078" y="166.757996" style="fill: #1f77b4; stroke: #1f77b4"/>
     <use xlink:href="#m4f00aef3e9" x="93.313948" y="138.197992" style="fill: #1f77b4; stroke: #1f77b4"/>
     <use xlink:href="#m4f00aef3e9" x="96.560818" y="123.498" style="fill: #1f77b4; stroke: #1f77b4"/>
     <use xlink:href="#m4f00aef3e9" x="99.807688" y="112.997998" style="fill: #1f77b4; stroke: #1f77b4"/>
     <use xlink:href="#m4f00aef3e9" x="103.054559" y="100.607996" style="fill: #1f77b4; stroke: #1f77b4"/>
     <use xlink:href="#m4f00aef3e9" x="106.26896" y="100.58175" style="fill: #1f77b4; stroke: #1f77b4"/>
     <use xlink:href="#m4f00aef3e9" x="106.301429" y="102.077988" style="fill: #1f77b4; stroke: #1f77b4"/>
     <use xlink:href="#m4f00aef3e9" x="109.548299" y="91.157996" style="fill: #1f77b4; stroke: #1f77b4"/>
     <use xlink:href="#m4f00aef3e9" x="112.795169" y="80.238004" style="fill: #1f77b4; stroke: #1f77b4"/>
     <use xlink:href="#m4f00aef3e9" x="116.042039" y="76.877994" style="fill: #1f77b4; stroke: #1f77b4"/>
     <use xlink:href="#m4f00aef3e9" x="119.288909" y="73.097994" style="fill: #1f77b4; stroke: #1f77b4"/>
     <use xlink:href="#m4f00aef3e9" x="122.535779" y="69.737984" style="fill: #1f77b4; stroke: #1f77b4"/>
     <use xlink:href="#m4f00aef3e9" x="125.78265" y="67.847984" style="fill: #1f77b4; stroke: #1f77b4"/>
     <use xlink:href="#m4f00aef3e9" x="129.02952" y="69.737984" style="fill: #1f77b4; stroke: #1f77b4"/>
     <use xlink:href="#m4f00aef3e9" x="132.27639" y="64.487992" style="fill: #1f77b4; stroke: #1f77b4"/>
     <use xlink:href="#m4f00aef3e9" x="135.52326" y="64.067984" style="fill: #1f77b4; stroke: #1f77b4"/>
     <use xlink:href="#m4f00aef3e9" x="138.737661" y="70.2945" style="fill: #1f77b4; stroke: #1f77b4"/>
     <use xlink:href="#m4f00aef3e9" x="138.77013" y="60.707992" style="fill: #1f77b4; stroke: #1f77b4"/>
     <use xlink:href="#m4f00aef3e9" x="142.017" y="60.707992" style="fill: #1f77b4; stroke: #1f77b4"/>
     <use xlink:href="#m4f00aef3e9" x="145.26387" y="60.707992" style="fill: #1f77b4; stroke: #1f77b4"/>
     <use xlink:href="#m4f00aef3e9" x="148.510741" y="60.707992" style="fill: #1f77b4; stroke: #1f77b4"/>
     <use xlink:href="#m4f00aef3e9" x="151.757611" y="60.707992" style="fill: #1f77b4; stroke: #1f77b4"/>
     <use xlink:href="#m4f00aef3e9" x="155.004481" y="64.067984" style="fill: #1f77b4; stroke: #1f77b4"/>
     <use xlink:href="#m4f00aef3e9" x="158.251351" y="64.067984" style="fill: #1f77b4; stroke: #1f77b4"/>
     <use xlink:href="#m4f00aef3e9" x="161.498221" y="60.707992" style="fill: #1f77b4; stroke: #1f77b4"/>
     <use xlink:href="#m4f00aef3e9" x="164.745091" y="60.707992" style="fill: #1f77b4; stroke: #1f77b4"/>
     <use xlink:href="#m4f00aef3e9" x="167.991961" y="64.067984" style="fill: #1f77b4; stroke: #1f77b4"/>
     <use xlink:href="#m4f00aef3e9" x="171.206363" y="63.06525" style="fill: #1f77b4; stroke: #1f77b4"/>
     <use xlink:href="#m4f00aef3e9" x="171.238832" y="60.707992" style="fill: #1f77b4; stroke: #1f77b4"/>
     <use xlink:href="#m4f00aef3e9" x="174.485702" y="60.707992" style="fill: #1f77b4; stroke: #1f77b4"/>
     <use xlink:href="#m4f00aef3e9" x="177.732572" y="60.707992" style="fill: #1f77b4; stroke: #1f77b4"/>
     <use xlink:href="#m4f00aef3e9" x="180.979442" y="60.707992" style="fill: #1f77b4; stroke: #1f77b4"/>
     <use xlink:href="#m4f00aef3e9" x="184.226312" y="60.707992" style="fill: #1f77b4; stroke: #1f77b4"/>
     <use xlink:href="#m4f00aef3e9" x="187.473182" y="58.817992" style="fill: #1f77b4; stroke: #1f77b4"/>
     <use xlink:href="#m4f00aef3e9" x="190.720052" y="60.707992" style="fill: #1f77b4; stroke: #1f77b4"/>
     <use xlink:href="#m4f00aef3e9" x="193.966923" y="57.348" style="fill: #1f77b4; stroke: #1f77b4"/>
     <use xlink:href="#m4f00aef3e9" x="197.213793" y="60.707992" style="fill: #1f77b4; stroke: #1f77b4"/>
     <use xlink:href="#m4f00aef3e9" x="200.460663" y="64.067984" style="fill: #1f77b4; stroke: #1f77b4"/>
     <use xlink:href="#m4f00aef3e9" x="203.675064" y="60.4665" style="fill: #1f77b4; stroke: #1f77b4"/>
     <use xlink:href="#m4f00aef3e9" x="203.707533" y="57.348" style="fill: #1f77b4; stroke: #1f77b4"/>
     <use xlink:href="#m4f00aef3e9" x="206.954403" y="62.177984" style="fill: #1f77b4; stroke: #1f77b4"/>
     <use xlink:href="#m4f00aef3e9" x="210.201273" y="59.238" style="fill: #1f77b4; stroke: #1f77b4"/>
     <use xlink:href="#m4f00aef3e9" x="213.448143" y="60.707992" style="fill: #1f77b4; stroke: #1f77b4"/>
     <use xlink:href="#m4f00aef3e9" x="216.695014" y="57.348" style="fill: #1f77b4; stroke: #1f77b4"/>
     <use xlink:href="#m4f00aef3e9" x="219.941884" y="55.458" style="fill: #1f77b4; stroke: #1f77b4"/>
     <use xlink:href="#m4f00aef3e9" x="223.188754" y="58.817992" style="fill: #1f77b4; stroke: #1f77b4"/>
     <use xlink:href="#m4f00aef3e9" x="226.435624" y="57.348" style="fill: #1f77b4; stroke: #1f77b4"/>
     <use xlink:href="#m4f00aef3e9" x="229.682494" y="57.348" style="fill: #1f77b4; stroke: #1f77b4"/>
     <use xlink:href="#m4f00aef3e9" x="232.929364" y="57.348" style="fill: #1f77b4; stroke: #1f77b4"/>
     <use xlink:href="#m4f00aef3e9" x="236.143766" y="60.0885" style="fill: #1f77b4; stroke: #1f77b4"/>
     <use xlink:href="#m4f00aef3e9" x="236.176234" y="57.348" style="fill: #1f77b4; stroke: #1f77b4"/>
     <use xlink:href="#m4f00aef3e9" x="239.423104" y="57.348" style="fill: #1f77b4; stroke: #1f77b4"/>
     <use xlink:href="#m4f00aef3e9" x="242.669975" y="59.238" style="fill: #1f77b4; stroke: #1f77b4"/>
     <use xlink:href="#m4f00aef3e9" x="245.916845" y="57.348" style="fill: #1f77b4; stroke: #1f77b4"/>
     <use xlink:href="#m4f00aef3e9" x="249.163715" y="57.348" style="fill: #1f77b4; stroke: #1f77b4"/>
     <use xlink:href="#m4f00aef3e9" x="252.410585" y="55.458" style="fill: #1f77b4; stroke: #1f77b4"/>
     <use xlink:href="#m4f00aef3e9" x="255.657455" y="55.458" style="fill: #1f77b4; stroke: #1f77b4"/>
     <use xlink:href="#m4f00aef3e9" x="258.904325" y="55.458" style="fill: #1f77b4; stroke: #1f77b4"/>
     <use xlink:href="#m4f00aef3e9" x="262.151195" y="55.458" style="fill: #1f77b4; stroke: #1f77b4"/>
     <use xlink:href="#m4f00aef3e9" x="265.398066" y="57.348" style="fill: #1f77b4; stroke: #1f77b4"/>
     <use xlink:href="#m4f00aef3e9" x="268.612467" y="57.11175" style="fill: #1f77b4; stroke: #1f77b4"/>
     <use xlink:href="#m4f00aef3e9" x="268.644936" y="55.458" style="fill: #1f77b4; stroke: #1f77b4"/>
     <use xlink:href="#m4f00aef3e9" x="271.891806" y="55.458" style="fill: #1f77b4; stroke: #1f77b4"/>
     <use xlink:href="#m4f00aef3e9" x="275.138676" y="55.458" style="fill: #1f77b4; stroke: #1f77b4"/>
     <use xlink:href="#m4f00aef3e9" x="278.385546" y="57.348" style="fill: #1f77b4; stroke: #1f77b4"/>
     <use xlink:href="#m4f00aef3e9" x="281.632416" y="55.458" style="fill: #1f77b4; stroke: #1f77b4"/>
     <use xlink:href="#m4f00aef3e9" x="284.879286" y="55.458" style="fill: #1f77b4; stroke: #1f77b4"/>
     <use xlink:href="#m4f00aef3e9" x="288.126157" y="53.568" style="fill: #1f77b4; stroke: #1f77b4"/>
     <use xlink:href="#m4f00aef3e9" x="291.373027" y="55.458" style="fill: #1f77b4; stroke: #1f77b4"/>
     <use xlink:href="#m4f00aef3e9" x="294.619897" y="57.348" style="fill: #1f77b4; stroke: #1f77b4"/>
     <use xlink:href="#m4f00aef3e9" x="297.866767" y="57.348" style="fill: #1f77b4; stroke: #1f77b4"/>
     <use xlink:href="#m4f00aef3e9" x="301.081168" y="58.34025" style="fill: #1f77b4; stroke: #1f77b4"/>
     <use xlink:href="#m4f00aef3e9" x="301.113637" y="57.348" style="fill: #1f77b4; stroke: #1f77b4"/>
     <use xlink:href="#m4f00aef3e9" x="304.360507" y="57.348" style="fill: #1f77b4; stroke: #1f77b4"/>
     <use xlink:href="#m4f00aef3e9" x="307.607377" y="57.348" style="fill: #1f77b4; stroke: #1f77b4"/>
     <use xlink:href="#m4f00aef3e9" x="310.854248" y="57.348" style="fill: #1f77b4; stroke: #1f77b4"/>
     <use xlink:href="#m4f00aef3e9" x="314.101118" y="57.348" style="fill: #1f77b4; stroke: #1f77b4"/>
     <use xlink:href="#m4f00aef3e9" x="317.347988" y="57.348" style="fill: #1f77b4; stroke: #1f77b4"/>
     <use xlink:href="#m4f00aef3e9" x="320.594858" y="53.568" style="fill: #1f77b4; stroke: #1f77b4"/>
     <use xlink:href="#m4f00aef3e9" x="323.841728" y="55.458" style="fill: #1f77b4; stroke: #1f77b4"/>
     <use xlink:href="#m4f00aef3e9" x="327.088598" y="55.458" style="fill: #1f77b4; stroke: #1f77b4"/>
     <use xlink:href="#m4f00aef3e9" x="330.335468" y="55.458" style="fill: #1f77b4; stroke: #1f77b4"/>
     <use xlink:href="#m4f00aef3e9" x="333.54987" y="57.48975" style="fill: #1f77b4; stroke: #1f77b4"/>
     <use xlink:href="#m4f00aef3e9" x="333.582339" y="55.458" style="fill: #1f77b4; stroke: #1f77b4"/>
     <use xlink:href="#m4f00aef3e9" x="336.829209" y="55.458" style="fill: #1f77b4; stroke: #1f77b4"/>
     <use xlink:href="#m4f00aef3e9" x="340.076079" y="53.568" style="fill: #1f77b4; stroke: #1f77b4"/>
     <use xlink:href="#m4f00aef3e9" x="343.322949" y="53.568" style="fill: #1f77b4; stroke: #1f77b4"/>
     <use xlink:href="#m4f00aef3e9" x="346.569819" y="55.458" style="fill: #1f77b4; stroke: #1f77b4"/>
     <use xlink:href="#m4f00aef3e9" x="349.816689" y="55.458" style="fill: #1f77b4; stroke: #1f77b4"/>
     <use xlink:href="#m4f00aef3e9" x="353.063559" y="55.458" style="fill: #1f77b4; stroke: #1f77b4"/>
     <use xlink:href="#m4f00aef3e9" x="356.31043" y="53.568" style="fill: #1f77b4; stroke: #1f77b4"/>
     <use xlink:href="#m4f00aef3e9" x="359.5573" y="53.568" style="fill: #1f77b4; stroke: #1f77b4"/>
     <use xlink:href="#m4f00aef3e9" x="362.80417" y="53.568" style="fill: #1f77b4; stroke: #1f77b4"/>
     <use xlink:href="#m4f00aef3e9" x="366.018571" y="57.6315" style="fill: #1f77b4; stroke: #1f77b4"/>
     <use xlink:href="#m4f00aef3e9" x="366.05104" y="55.458" style="fill: #1f77b4; stroke: #1f77b4"/>
     <use xlink:href="#m4f00aef3e9" x="369.29791" y="53.568" style="fill: #1f77b4; stroke: #1f77b4"/>
     <use xlink:href="#m4f00aef3e9" x="372.54478" y="53.568" style="fill: #1f77b4; stroke: #1f77b4"/>
     <use xlink:href="#m4f00aef3e9" x="375.79165" y="53.568" style="fill: #1f77b4; stroke: #1f77b4"/>
     <use xlink:href="#m4f00aef3e9" x="379.038521" y="53.568" style="fill: #1f77b4; stroke: #1f77b4"/>
     <use xlink:href="#m4f00aef3e9" x="382.285391" y="53.568" style="fill: #1f77b4; stroke: #1f77b4"/>
     <use xlink:href="#m4f00aef3e9" x="385.532261" y="53.568" style="fill: #1f77b4; stroke: #1f77b4"/>
     <use xlink:href="#m4f00aef3e9" x="388.779131" y="55.458" style="fill: #1f77b4; stroke: #1f77b4"/>
     <use xlink:href="#m4f00aef3e9" x="392.026001" y="53.568" style="fill: #1f77b4; stroke: #1f77b4"/>
     <use xlink:href="#m4f00aef3e9" x="395.272871" y="53.568" style="fill: #1f77b4; stroke: #1f77b4"/>
     <use xlink:href="#m4f00aef3e9" x="398.487273" y="57.48975" style="fill: #1f77b4; stroke: #1f77b4"/>
    </g>
   </g>
   <g id="line2d_14">
    <path d="M 73.832727 122.867988 
L 77.079597 122.867988 
L 80.326468 122.867988 
L 83.573338 122.867988 
L 86.820208 97.248004 
L 90.067078 80.238004 
L 93.313948 80.238004 
L 96.560818 73.097994 
L 99.807688 71.207994 
L 103.054559 67.847984 
L 106.26896 62.97075 
L 106.301429 64.067984 
L 109.548299 60.707992 
L 112.795169 58.817992 
L 116.042039 58.817992 
L 119.288909 58.817992 
L 122.535779 58.817992 
L 125.78265 58.817992 
L 129.02952 55.458 
L 132.27639 55.458 
L 135.52326 58.817992 
L 138.737661 53.80425 
L 138.77013 53.568 
L 142.017 53.568 
L 145.26387 53.568 
L 148.510741 53.568 
L 151.757611 53.568 
L 155.004481 53.568 
L 158.251351 53.568 
L 161.498221 53.568 
L 164.745091 53.568 
L 167.991961 53.568 
L 171.206363 53.568 
L 171.238832 53.568 
L 174.485702 53.568 
L 177.732572 53.568 
L 180.979442 53.568 
L 184.226312 53.568 
L 187.473182 53.568 
L 190.720052 53.568 
L 193.966923 53.568 
L 197.213793 53.568 
L 200.460663 53.568 
L 203.675064 53.568 
L 203.707533 53.568 
L 206.954403 53.568 
L 210.201273 53.568 
L 213.448143 53.568 
L 216.695014 53.568 
L 219.941884 53.568 
L 223.188754 53.568 
L 226.435624 53.568 
L 229.682494 53.568 
L 232.929364 53.568 
L 236.143766 53.568 
L 236.176234 53.568 
L 239.423104 53.568 
L 242.669975 53.568 
L 245.916845 53.568 
L 249.163715 53.568 
L 252.410585 53.568 
L 255.657455 53.568 
L 258.904325 53.568 
L 262.151195 53.568 
L 265.398066 53.568 
L 268.612467 53.568 
L 268.644936 53.568 
L 271.891806 53.568 
L 275.138676 53.568 
L 278.385546 53.568 
L 281.632416 53.568 
L 284.879286 53.568 
L 288.126157 53.568 
L 291.373027 53.568 
L 294.619897 53.568 
L 297.866767 53.568 
L 301.081168 53.568 
L 301.113637 53.568 
L 304.360507 53.568 
L 307.607377 53.568 
L 310.854248 53.568 
L 314.101118 53.568 
L 317.347988 53.568 
L 320.594858 53.568 
L 323.841728 53.568 
L 327.088598 53.568 
L 330.335468 53.568 
L 333.54987 53.568 
L 333.582339 53.568 
L 336.829209 53.568 
L 340.076079 53.568 
L 343.322949 53.568 
L 346.569819 53.568 
L 349.816689 53.568 
L 353.063559 53.568 
L 356.31043 53.568 
L 359.5573 53.568 
L 362.80417 53.568 
L 366.018571 53.568 
L 366.05104 53.568 
L 369.29791 53.568 
L 372.54478 53.568 
L 375.79165 53.568 
L 379.038521 53.568 
L 382.285391 53.568 
L 385.532261 53.568 
L 388.779131 53.568 
L 392.026001 53.568 
L 395.272871 53.568 
L 398.487273 53.568 
" clip-path="url(#p2684df77d0)" style="fill: none; stroke: #ff7f0e; stroke-width: 1.5; stroke-linecap: square"/>
   </g>
   <g id="line2d_15">
    <path d="M 73.832727 221.567996 
L 77.079597 221.567996 
L 80.326468 221.567996 
L 83.573338 212.538004 
L 86.820208 173.057999 
L 90.067078 142.607995 
L 93.313948 123.498 
L 96.560818 106.908008 
L 99.807688 98.297988 
L 103.054559 94.937996 
L 106.26896 95.8095 
L 106.301429 91.578004 
L 109.548299 89.688004 
L 112.795169 80.238004 
L 116.042039 82.128004 
L 119.288909 80.238004 
L 122.535779 80.238004 
L 125.78265 71.627984 
L 129.02952 71.627984 
L 132.27639 73.097994 
L 135.52326 67.847984 
L 138.737661 67.554 
L 138.77013 67.847984 
L 142.017 69.737984 
L 145.26387 69.737984 
L 148.510741 65.957984 
L 151.757611 67.847984 
L 155.004481 67.847984 
L 158.251351 65.957984 
L 161.498221 65.957984 
L 164.745091 65.957984 
L 167.991961 65.957984 
L 171.206363 62.3565 
L 171.238832 65.957984 
L 174.485702 62.597992 
L 177.732572 62.597992 
L 180.979442 62.597992 
L 184.226312 62.597992 
L 187.473182 62.597992 
L 190.720052 62.597992 
L 193.966923 57.348 
L 197.213793 59.238 
L 200.460663 59.238 
L 203.675064 60.23025 
L 203.707533 57.348 
L 206.954403 60.707992 
L 210.201273 60.707992 
L 213.448143 60.707992 
L 216.695014 57.348 
L 219.941884 57.348 
L 223.188754 60.707992 
L 226.435624 57.348 
L 229.682494 57.348 
L 232.929364 57.348 
L 236.143766 60.4665 
L 236.176234 57.348 
L 239.423104 59.238 
L 242.669975 60.707992 
L 245.916845 57.348 
L 249.163715 57.348 
L 252.410585 57.348 
L 255.657455 57.348 
L 258.904325 57.348 
L 262.151195 57.348 
L 265.398066 57.348 
L 268.612467 58.05675 
L 268.644936 57.348 
L 271.891806 57.348 
L 275.138676 57.348 
L 278.385546 55.458 
L 281.632416 57.348 
L 284.879286 57.348 
L 288.126157 55.458 
L 291.373027 53.568 
L 294.619897 53.568 
L 297.866767 53.568 
L 301.081168 56.781 
L 301.113637 55.458 
L 304.360507 57.348 
L 307.607377 57.348 
L 310.854248 57.348 
L 314.101118 57.348 
L 317.347988 57.348 
L 320.594858 53.568 
L 323.841728 53.568 
L 327.088598 53.568 
L 330.335468 53.568 
L 333.54987 56.16675 
L 333.582339 57.348 
L 336.829209 58.817992 
L 340.076079 55.458 
L 343.322949 55.458 
L 346.569819 53.568 
L 349.816689 58.817992 
L 353.063559 53.568 
L 356.31043 53.568 
L 359.5573 53.568 
L 362.80417 53.568 
L 366.018571 57.11175 
L 366.05104 53.568 
L 369.29791 55.458 
L 372.54478 53.568 
L 375.79165 55.458 
L 379.038521 55.458 
L 382.285391 53.568 
L 385.532261 55.458 
L 388.779131 55.458 
L 392.026001 55.458 
L 395.272871 55.458 
L 398.487273 56.63925 
" clip-path="url(#p2684df77d0)" style="fill: none; stroke-dasharray: 5.55,2.4; stroke-dashoffset: 0; stroke: #2ca02c; stroke-width: 1.5"/>
    <defs>
     <path id="ma2ee545d5a" d="M 0 3 
C 0.795609 3 1.55874 2.683901 2.12132 2.12132 
C 2.683901 1.55874 3 0.795609 3 0 
C 3 -0.795609 2.683901 -1.55874 2.12132 -2.12132 
C 1.55874 -2.683901 0.795609 -3 0 -3 
C -0.795609 -3 -1.55874 -2.683901 -2.12132 -2.12132 
C -2.683901 -1.55874 -3 -0.795609 -3 0 
C -3 0.795609 -2.683901 1.55874 -2.12132 2.12132 
C -1.55874 2.683901 -0.795609 3 0 3 
z
" style="stroke: #2ca02c"/>
    </defs>
    <g clip-path="url(#p2684df77d0)">
     <use xlink:href="#ma2ee545d5a" x="73.832727" y="221.567996" style="fill: #2ca02c; stroke: #2ca02c"/>
     <use xlink:href="#ma2ee545d5a" x="77.079597" y="221.567996" style="fill: #2ca02c; stroke: #2ca02c"/>
     <use xlink:href="#ma2ee545d5a" x="80.326468" y="221.567996" style="fill: #2ca02c; stroke: #2ca02c"/>
     <use xlink:href="#ma2ee545d5a" x="83.573338" y="212.538004" style="fill: #2ca02c; stroke: #2ca02c"/>
     <use xlink:href="#ma2ee545d5a" x="86.820208" y="173.057999" style="fill: #2ca02c; stroke: #2ca02c"/>
     <use xlink:href="#ma2ee545d5a" x="90.067078" y="142.607995" style="fill: #2ca02c; stroke: #2ca02c"/>
     <use xlink:href="#ma2ee545d5a" x="93.313948" y="123.498" style="fill: #2ca02c; stroke: #2ca02c"/>
     <use xlink:href="#ma2ee545d5a" x="96.560818" y="106.908008" style="fill: #2ca02c; stroke: #2ca02c"/>
     <use xlink:href="#ma2ee545d5a" x="99.807688" y="98.297988" style="fill: #2ca02c; stroke: #2ca02c"/>
     <use xlink:href="#ma2ee545d5a" x="103.054559" y="94.937996" style="fill: #2ca02c; stroke: #2ca02c"/>
     <use xlink:href="#ma2ee545d5a" x="106.26896" y="95.8095" style="fill: #2ca02c; stroke: #2ca02c"/>
     <use xlink:href="#ma2ee545d5a" x="106.301429" y="91.578004" style="fill: #2ca02c; stroke: #2ca02c"/>
     <use xlink:href="#ma2ee545d5a" x="109.548299" y="89.688004" style="fill: #2ca02c; stroke: #2ca02c"/>
     <use xlink:href="#ma2ee545d5a" x="112.795169" y="80.238004" style="fill: #2ca02c; stroke: #2ca02c"/>
     <use xlink:href="#ma2ee545d5a" x="116.042039" y="82.128004" style="fill: #2ca02c; stroke: #2ca02c"/>
     <use xlink:href="#ma2ee545d5a" x="119.288909" y="80.238004" style="fill: #2ca02c; stroke: #2ca02c"/>
     <use xlink:href="#ma2ee545d5a" x="122.535779" y="80.238004" style="fill: #2ca02c; stroke: #2ca02c"/>
     <use xlink:href="#ma2ee545d5a" x="125.78265" y="71.627984" style="fill: #2ca02c; stroke: #2ca02c"/>
     <use xlink:href="#ma2ee545d5a" x="129.02952" y="71.627984" style="fill: #2ca02c; stroke: #2ca02c"/>
     <use xlink:href="#ma2ee545d5a" x="132.27639" y="73.097994" style="fill: #2ca02c; stroke: #2ca02c"/>
     <use xlink:href="#ma2ee545d5a" x="135.52326" y="67.847984" style="fill: #2ca02c; stroke: #2ca02c"/>
     <use xlink:href="#ma2ee545d5a" x="138.737661" y="67.554" style="fill: #2ca02c; stroke: #2ca02c"/>
     <use xlink:href="#ma2ee545d5a" x="138.77013" y="67.847984" style="fill: #2ca02c; stroke: #2ca02c"/>
     <use xlink:href="#ma2ee545d5a" x="142.017" y="69.737984" style="fill: #2ca02c; stroke: #2ca02c"/>
     <use xlink:href="#ma2ee545d5a" x="145.26387" y="69.737984" style="fill: #2ca02c; stroke: #2ca02c"/>
     <use xlink:href="#ma2ee545d5a" x="148.510741" y="65.957984" style="fill: #2ca02c; stroke: #2ca02c"/>
     <use xlink:href="#ma2ee545d5a" x="151.757611" y="67.847984" style="fill: #2ca02c; stroke: #2ca02c"/>
     <use xlink:href="#ma2ee545d5a" x="155.004481" y="67.847984" style="fill: #2ca02c; stroke: #2ca02c"/>
     <use xlink:href="#ma2ee545d5a" x="158.251351" y="65.957984" style="fill: #2ca02c; stroke: #2ca02c"/>
     <use xlink:href="#ma2ee545d5a" x="161.498221" y="65.957984" style="fill: #2ca02c; stroke: #2ca02c"/>
     <use xlink:href="#ma2ee545d5a" x="164.745091" y="65.957984" style="fill: #2ca02c; stroke: #2ca02c"/>
     <use xlink:href="#ma2ee545d5a" x="167.991961" y="65.957984" style="fill: #2ca02c; stroke: #2ca02c"/>
     <use xlink:href="#ma2ee545d5a" x="171.206363" y="62.3565" style="fill: #2ca02c; stroke: #2ca02c"/>
     <use xlink:href="#ma2ee545d5a" x="171.238832" y="65.957984" style="fill: #2ca02c; stroke: #2ca02c"/>
     <use xlink:href="#ma2ee545d5a" x="174.485702" y="62.597992" style="fill: #2ca02c; stroke: #2ca02c"/>
     <use xlink:href="#ma2ee545d5a" x="177.732572" y="62.597992" style="fill: #2ca02c; stroke: #2ca02c"/>
     <use xlink:href="#ma2ee545d5a" x="180.979442" y="62.597992" style="fill: #2ca02c; stroke: #2ca02c"/>
     <use xlink:href="#ma2ee545d5a" x="184.226312" y="62.597992" style="fill: #2ca02c; stroke: #2ca02c"/>
     <use xlink:href="#ma2ee545d5a" x="187.473182" y="62.597992" style="fill: #2ca02c; stroke: #2ca02c"/>
     <use xlink:href="#ma2ee545d5a" x="190.720052" y="62.597992" style="fill: #2ca02c; stroke: #2ca02c"/>
     <use xlink:href="#ma2ee545d5a" x="193.966923" y="57.348" style="fill: #2ca02c; stroke: #2ca02c"/>
     <use xlink:href="#ma2ee545d5a" x="197.213793" y="59.238" style="fill: #2ca02c; stroke: #2ca02c"/>
     <use xlink:href="#ma2ee545d5a" x="200.460663" y="59.238" style="fill: #2ca02c; stroke: #2ca02c"/>
     <use xlink:href="#ma2ee545d5a" x="203.675064" y="60.23025" style="fill: #2ca02c; stroke: #2ca02c"/>
     <use xlink:href="#ma2ee545d5a" x="203.707533" y="57.348" style="fill: #2ca02c; stroke: #2ca02c"/>
     <use xlink:href="#ma2ee545d5a" x="206.954403" y="60.707992" style="fill: #2ca02c; stroke: #2ca02c"/>
     <use xlink:href="#ma2ee545d5a" x="210.201273" y="60.707992" style="fill: #2ca02c; stroke: #2ca02c"/>
     <use xlink:href="#ma2ee545d5a" x="213.448143" y="60.707992" style="fill: #2ca02c; stroke: #2ca02c"/>
     <use xlink:href="#ma2ee545d5a" x="216.695014" y="57.348" style="fill: #2ca02c; stroke: #2ca02c"/>
     <use xlink:href="#ma2ee545d5a" x="219.941884" y="57.348" style="fill: #2ca02c; stroke: #2ca02c"/>
     <use xlink:href="#ma2ee545d5a" x="223.188754" y="60.707992" style="fill: #2ca02c; stroke: #2ca02c"/>
     <use xlink:href="#ma2ee545d5a" x="226.435624" y="57.348" style="fill: #2ca02c; stroke: #2ca02c"/>
     <use xlink:href="#ma2ee545d5a" x="229.682494" y="57.348" style="fill: #2ca02c; stroke: #2ca02c"/>
     <use xlink:href="#ma2ee545d5a" x="232.929364" y="57.348" style="fill: #2ca02c; stroke: #2ca02c"/>
     <use xlink:href="#ma2ee545d5a" x="236.143766" y="60.4665" style="fill: #2ca02c; stroke: #2ca02c"/>
     <use xlink:href="#ma2ee545d5a" x="236.176234" y="57.348" style="fill: #2ca02c; stroke: #2ca02c"/>
     <use xlink:href="#ma2ee545d5a" x="239.423104" y="59.238" style="fill: #2ca02c; stroke: #2ca02c"/>
     <use xlink:href="#ma2ee545d5a" x="242.669975" y="60.707992" style="fill: #2ca02c; stroke: #2ca02c"/>
     <use xlink:href="#ma2ee545d5a" x="245.916845" y="57.348" style="fill: #2ca02c; stroke: #2ca02c"/>
     <use xlink:href="#ma2ee545d5a" x="249.163715" y="57.348" style="fill: #2ca02c; stroke: #2ca02c"/>
     <use xlink:href="#ma2ee545d5a" x="252.410585" y="57.348" style="fill: #2ca02c; stroke: #2ca02c"/>
     <use xlink:href="#ma2ee545d5a" x="255.657455" y="57.348" style="fill: #2ca02c; stroke: #2ca02c"/>
     <use xlink:href="#ma2ee545d5a" x="258.904325" y="57.348" style="fill: #2ca02c; stroke: #2ca02c"/>
     <use xlink:href="#ma2ee545d5a" x="262.151195" y="57.348" style="fill: #2ca02c; stroke: #2ca02c"/>
     <use xlink:href="#ma2ee545d5a" x="265.398066" y="57.348" style="fill: #2ca02c; stroke: #2ca02c"/>
     <use xlink:href="#ma2ee545d5a" x="268.612467" y="58.05675" style="fill: #2ca02c; stroke: #2ca02c"/>
     <use xlink:href="#ma2ee545d5a" x="268.644936" y="57.348" style="fill: #2ca02c; stroke: #2ca02c"/>
     <use xlink:href="#ma2ee545d5a" x="271.891806" y="57.348" style="fill: #2ca02c; stroke: #2ca02c"/>
     <use xlink:href="#ma2ee545d5a" x="275.138676" y="57.348" style="fill: #2ca02c; stroke: #2ca02c"/>
     <use xlink:href="#ma2ee545d5a" x="278.385546" y="55.458" style="fill: #2ca02c; stroke: #2ca02c"/>
     <use xlink:href="#ma2ee545d5a" x="281.632416" y="57.348" style="fill: #2ca02c; stroke: #2ca02c"/>
     <use xlink:href="#ma2ee545d5a" x="284.879286" y="57.348" style="fill: #2ca02c; stroke: #2ca02c"/>
     <use xlink:href="#ma2ee545d5a" x="288.126157" y="55.458" style="fill: #2ca02c; stroke: #2ca02c"/>
     <use xlink:href="#ma2ee545d5a" x="291.373027" y="53.568" style="fill: #2ca02c; stroke: #2ca02c"/>
     <use xlink:href="#ma2ee545d5a" x="294.619897" y="53.568" style="fill: #2ca02c; stroke: #2ca02c"/>
     <use xlink:href="#ma2ee545d5a" x="297.866767" y="53.568" style="fill: #2ca02c; stroke: #2ca02c"/>
     <use xlink:href="#ma2ee545d5a" x="301.081168" y="56.781" style="fill: #2ca02c; stroke: #2ca02c"/>
     <use xlink:href="#ma2ee545d5a" x="301.113637" y="55.458" style="fill: #2ca02c; stroke: #2ca02c"/>
     <use xlink:href="#ma2ee545d5a" x="304.360507" y="57.348" style="fill: #2ca02c; stroke: #2ca02c"/>
     <use xlink:href="#ma2ee545d5a" x="307.607377" y="57.348" style="fill: #2ca02c; stroke: #2ca02c"/>
     <use xlink:href="#ma2ee545d5a" x="310.854248" y="57.348" style="fill: #2ca02c; stroke: #2ca02c"/>
     <use xlink:href="#ma2ee545d5a" x="314.101118" y="57.348" style="fill: #2ca02c; stroke: #2ca02c"/>
     <use xlink:href="#ma2ee545d5a" x="317.347988" y="57.348" style="fill: #2ca02c; stroke: #2ca02c"/>
     <use xlink:href="#ma2ee545d5a" x="320.594858" y="53.568" style="fill: #2ca02c; stroke: #2ca02c"/>
     <use xlink:href="#ma2ee545d5a" x="323.841728" y="53.568" style="fill: #2ca02c; stroke: #2ca02c"/>
     <use xlink:href="#ma2ee545d5a" x="327.088598" y="53.568" style="fill: #2ca02c; stroke: #2ca02c"/>
     <use xlink:href="#ma2ee545d5a" x="330.335468" y="53.568" style="fill: #2ca02c; stroke: #2ca02c"/>
     <use xlink:href="#ma2ee545d5a" x="333.54987" y="56.16675" style="fill: #2ca02c; stroke: #2ca02c"/>
     <use xlink:href="#ma2ee545d5a" x="333.582339" y="57.348" style="fill: #2ca02c; stroke: #2ca02c"/>
     <use xlink:href="#ma2ee545d5a" x="336.829209" y="58.817992" style="fill: #2ca02c; stroke: #2ca02c"/>
     <use xlink:href="#ma2ee545d5a" x="340.076079" y="55.458" style="fill: #2ca02c; stroke: #2ca02c"/>
     <use xlink:href="#ma2ee545d5a" x="343.322949" y="55.458" style="fill: #2ca02c; stroke: #2ca02c"/>
     <use xlink:href="#ma2ee545d5a" x="346.569819" y="53.568" style="fill: #2ca02c; stroke: #2ca02c"/>
     <use xlink:href="#ma2ee545d5a" x="349.816689" y="58.817992" style="fill: #2ca02c; stroke: #2ca02c"/>
     <use xlink:href="#ma2ee545d5a" x="353.063559" y="53.568" style="fill: #2ca02c; stroke: #2ca02c"/>
     <use xlink:href="#ma2ee545d5a" x="356.31043" y="53.568" style="fill: #2ca02c; stroke: #2ca02c"/>
     <use xlink:href="#ma2ee545d5a" x="359.5573" y="53.568" style="fill: #2ca02c; stroke: #2ca02c"/>
     <use xlink:href="#ma2ee545d5a" x="362.80417" y="53.568" style="fill: #2ca02c; stroke: #2ca02c"/>
     <use xlink:href="#ma2ee545d5a" x="366.018571" y="57.11175" style="fill: #2ca02c; stroke: #2ca02c"/>
     <use xlink:href="#ma2ee545d5a" x="366.05104" y="53.568" style="fill: #2ca02c; stroke: #2ca02c"/>
     <use xlink:href="#ma2ee545d5a" x="369.29791" y="55.458" style="fill: #2ca02c; stroke: #2ca02c"/>
     <use xlink:href="#ma2ee545d5a" x="372.54478" y="53.568" style="fill: #2ca02c; stroke: #2ca02c"/>
     <use xlink:href="#ma2ee545d5a" x="375.79165" y="55.458" style="fill: #2ca02c; stroke: #2ca02c"/>
     <use xlink:href="#ma2ee545d5a" x="379.038521" y="55.458" style="fill: #2ca02c; stroke: #2ca02c"/>
     <use xlink:href="#ma2ee545d5a" x="382.285391" y="53.568" style="fill: #2ca02c; stroke: #2ca02c"/>
     <use xlink:href="#ma2ee545d5a" x="385.532261" y="55.458" style="fill: #2ca02c; stroke: #2ca02c"/>
     <use xlink:href="#ma2ee545d5a" x="388.779131" y="55.458" style="fill: #2ca02c; stroke: #2ca02c"/>
     <use xlink:href="#ma2ee545d5a" x="392.026001" y="55.458" style="fill: #2ca02c; stroke: #2ca02c"/>
     <use xlink:href="#ma2ee545d5a" x="395.272871" y="55.458" style="fill: #2ca02c; stroke: #2ca02c"/>
     <use xlink:href="#ma2ee545d5a" x="398.487273" y="56.63925" style="fill: #2ca02c; stroke: #2ca02c"/>
    </g>
   </g>
   <g id="line2d_16">
    <path d="M 73.832727 127.278 
L 77.079597 127.278 
L 80.326468 127.278 
L 83.573338 127.278 
L 86.820208 86.327994 
L 90.067078 72.047992 
L 93.313948 68.267992 
L 96.560818 64.908 
L 99.807688 64.908 
L 103.054559 61.128 
L 106.26896 61.6005 
L 106.301429 57.348 
L 109.548299 57.348 
L 112.795169 55.458 
L 116.042039 55.458 
L 119.288909 55.458 
L 122.535779 53.568 
L 125.78265 53.568 
L 129.02952 53.568 
L 132.27639 53.568 
L 135.52326 53.568 
L 138.737661 54.0405 
L 138.77013 53.568 
L 142.017 53.568 
L 145.26387 53.568 
L 148.510741 53.568 
L 151.757611 53.568 
L 155.004481 53.568 
L 158.251351 53.568 
L 161.498221 53.568 
L 164.745091 53.568 
L 167.991961 53.568 
L 171.206363 53.568 
L 171.238832 53.568 
L 174.485702 53.568 
L 177.732572 53.568 
L 180.979442 53.568 
L 184.226312 53.568 
L 187.473182 53.568 
L 190.720052 53.568 
L 193.966923 53.568 
L 197.213793 53.568 
L 200.460663 53.568 
L 203.675064 53.568 
L 203.707533 53.568 
L 206.954403 53.568 
L 210.201273 53.568 
L 213.448143 53.568 
L 216.695014 53.568 
L 219.941884 53.568 
L 223.188754 53.568 
L 226.435624 53.568 
L 229.682494 53.568 
L 232.929364 53.568 
L 236.143766 53.568 
L 236.176234 53.568 
L 239.423104 53.568 
L 242.669975 53.568 
L 245.916845 53.568 
L 249.163715 53.568 
L 252.410585 53.568 
L 255.657455 53.568 
L 258.904325 53.568 
L 262.151195 53.568 
L 265.398066 53.568 
L 268.612467 53.568 
L 268.644936 53.568 
L 271.891806 53.568 
L 275.138676 53.568 
L 278.385546 53.568 
L 281.632416 53.568 
L 284.879286 53.568 
L 288.126157 53.568 
L 291.373027 53.568 
L 294.619897 53.568 
L 297.866767 53.568 
L 301.081168 53.568 
L 301.113637 53.568 
L 304.360507 53.568 
L 307.607377 53.568 
L 310.854248 53.568 
L 314.101118 53.568 
L 317.347988 53.568 
L 320.594858 53.568 
L 323.841728 53.568 
L 327.088598 53.568 
L 330.335468 53.568 
L 333.54987 53.568 
L 333.582339 53.568 
L 336.829209 53.568 
L 340.076079 53.568 
L 343.322949 53.568 
L 346.569819 53.568 
L 349.816689 53.568 
L 353.063559 53.568 
L 356.31043 53.568 
L 359.5573 53.568 
L 362.80417 53.568 
L 366.018571 53.568 
L 366.05104 53.568 
L 369.29791 53.568 
L 372.54478 53.568 
L 375.79165 53.568 
L 379.038521 53.568 
L 382.285391 53.568 
L 385.532261 53.568 
L 388.779131 53.568 
L 392.026001 53.568 
L 395.272871 53.568 
L 398.487273 53.568 
" clip-path="url(#p2684df77d0)" style="fill: none; stroke-dasharray: 5.55,2.4; stroke-dashoffset: 0; stroke: #d62728; stroke-width: 1.5"/>
   </g>
   <g id="line2d_17">
    <path d="M 73.832727 214.45824 
L 77.079597 224.49792 
L 80.326468 252.15744 
L 83.573338 279.792 
L 86.820208 280.829354 
L 90.067078 290.6496 
L 93.313948 292.12128 
L 96.560818 292.3884 
L 99.807688 292.72608 
L 103.054559 293.1696 
L 106.26896 291.991331 
L 106.301429 293.231631 
L 109.548299 292.7328 
L 112.795169 292.464 
L 116.042039 291.456 
L 119.288909 291.5568 
L 122.535779 290.6496 
L 125.78265 289.0368 
L 129.02952 292.1616 
L 132.27639 290.6496 
L 135.52326 288.2304 
L 138.737661 291.12876 
L 138.77013 283.9968 
L 142.017 285.2064 
L 145.26387 287.0208 
L 148.510741 286.416 
L 151.757611 288.2304 
L 155.004481 288.2304 
L 158.251351 289.44 
L 161.498221 290.6496 
L 164.745091 291.2544 
L 167.991961 292.464 
L 171.206363 293.01084 
L 171.238832 292.464 
L 174.485702 293.0688 
L 177.732572 293.0688 
L 180.979442 293.0688 
L 184.226312 293.6736 
L 187.473182 293.0688 
L 190.720052 293.6736 
M 197.213793 294.2784 
L 200.460663 293.6736 
M 206.954403 294.2784 
M 213.448143 295.488 
M 223.188754 295.488 
" clip-path="url(#p2684df77d0)" style="fill: none; stroke: #9467bd; stroke-width: 1.5; stroke-linecap: square"/>
   </g>
   <g id="line2d_18">
    <path d="M 73.832727 211.4208 
L 77.079597 221.242752 
L 80.326468 249.329664 
L 83.573338 281.328067 
L 86.820208 285.1488 
L 90.067078 291.2544 
L 93.313948 293.0688 
L 96.560818 292.9176 
L 99.807688 292.4928 
L 103.054559 292.9344 
L 106.26896 291.977296 
L 106.301429 291.611782 
L 109.548299 292.52448 
L 112.795169 292.2624 
L 116.042039 292.896 
L 119.288909 292.7664 
L 122.535779 292.7232 
L 125.78265 292.0608 
L 129.02952 291.6576 
L 132.27639 292.6656 
L 135.52326 291.5568 
L 138.737661 292.59792 
L 138.77013 291.5568 
L 142.017 292.22208 
L 145.26387 292.22208 
L 148.510741 291.456 
L 151.757611 291.8592 
L 155.004481 291.8592 
L 158.251351 292.2624 
L 161.498221 293.6736 
L 164.745091 294.6816 
L 167.991961 293.6736 
M 171.238832 294.6816 
L 174.485702 294.2784 
L 177.732572 295.0848 
L 180.979442 295.0848 
L 184.226312 294.6816 
L 187.473182 293.0688 
L 190.720052 294.6816 
M 206.954403 294.2784 
L 210.201273 294.2784 
L 213.448143 294.2784 
M 223.188754 295.488 
M 242.669975 294.8832 
M 336.829209 295.488 
M 349.816689 295.488 
" clip-path="url(#p2684df77d0)" style="fill: none; stroke: #8c564b; stroke-width: 1.5; stroke-linecap: square"/>
   </g>
   <g id="patch_3">
    <path d="M 57.6 307.584 
L 57.6 41.472 
" style="fill: none; stroke: #000000; stroke-width: 0.8; stroke-linejoin: miter; stroke-linecap: square"/>
   </g>
   <g id="patch_4">
    <path d="M 414.72 307.584 
L 414.72 41.472 
" style="fill: none; stroke: #000000; stroke-width: 0.8; stroke-linejoin: miter; stroke-linecap: square"/>
   </g>
   <g id="patch_5">
    <path d="M 57.6 307.584 
L 414.72 307.584 
" style="fill: none; stroke: #000000; stroke-width: 0.8; stroke-linejoin: miter; stroke-linecap: square"/>
   </g>
   <g id="patch_6">
    <path d="M 57.6 41.472 
L 414.72 41.472 
" style="fill: none; stroke: #000000; stroke-width: 0.8; stroke-linejoin: miter; stroke-linecap: square"/>
   </g>
   <g id="legend_1">
    <g id="patch_7">
     <path d="M 299.368438 220.062375 
L 407.72 220.062375 
Q 409.72 220.062375 409.72 218.062375 
L 409.72 130.993625 
Q 409.72 128.993625 407.72 128.993625 
L 299.368438 128.993625 
Q 297.368438 128.993625 297.368438 130.993625 
L 297.368438 218.062375 
Q 297.368438 220.062375 299.368438 220.062375 
z
" style="fill: #ffffff; opacity: 0.8; stroke: #cccccc; stroke-linejoin: miter"/>
    </g>
    <g id="line2d_19">
     <path d="M 301.368438 137.092062 
L 311.368438 137.092062 
L 321.368438 137.092062 
" style="fill: none; stroke: #1f77b4; stroke-width: 1.5; stroke-linecap: square"/>
     <g>
      <use xlink:href="#m4f00aef3e9" x="311.368438" y="137.092062" style="fill: #1f77b4; stroke: #1f77b4"/>
     </g>
    </g>
    <g id="text_13">
     <!-- top1 (test) -->
     <g transform="translate(329.368438 140.592062) scale(0.1 -0.1)">
      <defs>
       <path id="DejaVuSans-74" d="M 1172 4494 
L 1172 3500 
L 2356 3500 
L 2356 3053 
L 1172 3053 
L 1172 1153 
Q 1172 725 1289 603 
Q 1406 481 1766 481 
L 2356 481 
L 2356 0 
L 1766 0 
Q 1100 0 847 248 
Q 594 497 594 1153 
L 594 3053 
L 172 3053 
L 172 3500 
L 594 3500 
L 594 4494 
L 1172 4494 
z
" transform="scale(0.015625)"/>
       <path id="DejaVuSans-6f" d="M 1959 3097 
Q 1497 3097 1228 2736 
Q 959 2375 959 1747 
Q 959 1119 1226 758 
Q 1494 397 1959 397 
Q 2419 397 2687 759 
Q 2956 1122 2956 1747 
Q 2956 2369 2687 2733 
Q 2419 3097 1959 3097 
z
M 1959 3584 
Q 2709 3584 3137 3096 
Q 3566 2609 3566 1747 
Q 3566 888 3137 398 
Q 2709 -91 1959 -91 
Q 1206 -91 779 398 
Q 353 888 353 1747 
Q 353 2609 779 3096 
Q 1206 3584 1959 3584 
z
" transform="scale(0.015625)"/>
       <path id="DejaVuSans-70" d="M 1159 525 
L 1159 -1331 
L 581 -1331 
L 581 3500 
L 1159 3500 
L 1159 2969 
Q 1341 3281 1617 3432 
Q 1894 3584 2278 3584 
Q 2916 3584 3314 3078 
Q 3713 2572 3713 1747 
Q 3713 922 3314 415 
Q 2916 -91 2278 -91 
Q 1894 -91 1617 61 
Q 1341 213 1159 525 
z
M 3116 1747 
Q 3116 2381 2855 2742 
Q 2594 3103 2138 3103 
Q 1681 3103 1420 2742 
Q 1159 2381 1159 1747 
Q 1159 1113 1420 752 
Q 1681 391 2138 391 
Q 2594 391 2855 752 
Q 3116 1113 3116 1747 
z
" transform="scale(0.015625)"/>
       <path id="DejaVuSans-20" transform="scale(0.015625)"/>
       <path id="DejaVuSans-28" d="M 1984 4856 
Q 1566 4138 1362 3434 
Q 1159 2731 1159 2009 
Q 1159 1288 1364 580 
Q 1569 -128 1984 -844 
L 1484 -844 
Q 1016 -109 783 600 
Q 550 1309 550 2009 
Q 550 2706 781 3412 
Q 1013 4119 1484 4856 
L 1984 4856 
z
" transform="scale(0.015625)"/>
       <path id="DejaVuSans-65" d="M 3597 1894 
L 3597 1613 
L 953 1613 
Q 991 1019 1311 708 
Q 1631 397 2203 397 
Q 2534 397 2845 478 
Q 3156 559 3463 722 
L 3463 178 
Q 3153 47 2828 -22 
Q 2503 -91 2169 -91 
Q 1331 -91 842 396 
Q 353 884 353 1716 
Q 353 2575 817 3079 
Q 1281 3584 2069 3584 
Q 2775 3584 3186 3129 
Q 3597 2675 3597 1894 
z
M 3022 2063 
Q 3016 2534 2758 2815 
Q 2500 3097 2075 3097 
Q 1594 3097 1305 2825 
Q 1016 2553 972 2059 
L 3022 2063 
z
" transform="scale(0.015625)"/>
       <path id="DejaVuSans-73" d="M 2834 3397 
L 2834 2853 
Q 2591 2978 2328 3040 
Q 2066 3103 1784 3103 
Q 1356 3103 1142 2972 
Q 928 2841 928 2578 
Q 928 2378 1081 2264 
Q 1234 2150 1697 2047 
L 1894 2003 
Q 2506 1872 2764 1633 
Q 3022 1394 3022 966 
Q 3022 478 2636 193 
Q 2250 -91 1575 -91 
Q 1294 -91 989 -36 
Q 684 19 347 128 
L 347 722 
Q 666 556 975 473 
Q 1284 391 1588 391 
Q 1994 391 2212 530 
Q 2431 669 2431 922 
Q 2431 1156 2273 1281 
Q 2116 1406 1581 1522 
L 1381 1569 
Q 847 1681 609 1914 
Q 372 2147 372 2553 
Q 372 3047 722 3315 
Q 1072 3584 1716 3584 
Q 2034 3584 2315 3537 
Q 2597 3491 2834 3397 
z
" transform="scale(0.015625)"/>
       <path id="DejaVuSans-29" d="M 513 4856 
L 1013 4856 
Q 1481 4119 1714 3412 
Q 1947 2706 1947 2009 
Q 1947 1309 1714 600 
Q 1481 -109 1013 -844 
L 513 -844 
Q 928 -128 1133 580 
Q 1338 1288 1338 2009 
Q 1338 2731 1133 3434 
Q 928 4138 513 4856 
z
" transform="scale(0.015625)"/>
      </defs>
      <use xlink:href="#DejaVuSans-74"/>
      <use xlink:href="#DejaVuSans-6f" transform="translate(39.208984 0)"/>
      <use xlink:href="#DejaVuSans-70" transform="translate(100.390625 0)"/>
      <use xlink:href="#DejaVuSans-31" transform="translate(163.867188 0)"/>
      <use xlink:href="#DejaVuSans-20" transform="translate(227.490234 0)"/>
      <use xlink:href="#DejaVuSans-28" transform="translate(259.277344 0)"/>
      <use xlink:href="#DejaVuSans-74" transform="translate(298.291016 0)"/>
      <use xlink:href="#DejaVuSans-65" transform="translate(337.5 0)"/>
      <use xlink:href="#DejaVuSans-73" transform="translate(399.023438 0)"/>
      <use xlink:href="#DejaVuSans-74" transform="translate(451.123047 0)"/>
      <use xlink:href="#DejaVuSans-29" transform="translate(490.332031 0)"/>
     </g>
    </g>
    <g id="line2d_20">
     <path d="M 301.368438 151.770187 
L 311.368438 151.770187 
L 321.368438 151.770187 
" style="fill: none; stroke: #ff7f0e; stroke-width: 1.5; stroke-linecap: square"/>
    </g>
    <g id="text_14">
     <!-- top3 (test) -->
     <g transform="translate(329.368438 155.270187) scale(0.1 -0.1)">
      <defs>
       <path id="DejaVuSans-33" d="M 2597 2516 
Q 3050 2419 3304 2112 
Q 3559 1806 3559 1356 
Q 3559 666 3084 287 
Q 2609 -91 1734 -91 
Q 1441 -91 1130 -33 
Q 819 25 488 141 
L 488 750 
Q 750 597 1062 519 
Q 1375 441 1716 441 
Q 2309 441 2620 675 
Q 2931 909 2931 1356 
Q 2931 1769 2642 2001 
Q 2353 2234 1838 2234 
L 1294 2234 
L 1294 2753 
L 1863 2753 
Q 2328 2753 2575 2939 
Q 2822 3125 2822 3475 
Q 2822 3834 2567 4026 
Q 2313 4219 1838 4219 
Q 1578 4219 1281 4162 
Q 984 4106 628 3988 
L 628 4550 
Q 988 4650 1302 4700 
Q 1616 4750 1894 4750 
Q 2613 4750 3031 4423 
Q 3450 4097 3450 3541 
Q 3450 3153 3228 2886 
Q 3006 2619 2597 2516 
z
" transform="scale(0.015625)"/>
      </defs>
      <use xlink:href="#DejaVuSans-74"/>
      <use xlink:href="#DejaVuSans-6f" transform="translate(39.208984 0)"/>
      <use xlink:href="#DejaVuSans-70" transform="translate(100.390625 0)"/>
      <use xlink:href="#DejaVuSans-33" transform="translate(163.867188 0)"/>
      <use xlink:href="#DejaVuSans-20" transform="translate(227.490234 0)"/>
      <use xlink:href="#DejaVuSans-28" transform="translate(259.277344 0)"/>
      <use xlink:href="#DejaVuSans-74" transform="translate(298.291016 0)"/>
      <use xlink:href="#DejaVuSans-65" transform="translate(337.5 0)"/>
      <use xlink:href="#DejaVuSans-73" transform="translate(399.023438 0)"/>
      <use xlink:href="#DejaVuSans-74" transform="translate(451.123047 0)"/>
      <use xlink:href="#DejaVuSans-29" transform="translate(490.332031 0)"/>
     </g>
    </g>
    <g id="line2d_21">
     <path d="M 301.368438 166.448312 
L 311.368438 166.448312 
L 321.368438 166.448312 
" style="fill: none; stroke-dasharray: 5.55,2.4; stroke-dashoffset: 0; stroke: #2ca02c; stroke-width: 1.5"/>
     <g>
      <use xlink:href="#ma2ee545d5a" x="311.368438" y="166.448312" style="fill: #2ca02c; stroke: #2ca02c"/>
     </g>
    </g>
    <g id="text_15">
     <!-- top1 (train) -->
     <g transform="translate(329.368438 169.948312) scale(0.1 -0.1)">
      <defs>
       <path id="DejaVuSans-72" d="M 2631 2963 
Q 2534 3019 2420 3045 
Q 2306 3072 2169 3072 
Q 1681 3072 1420 2755 
Q 1159 2438 1159 1844 
L 1159 0 
L 581 0 
L 581 3500 
L 1159 3500 
L 1159 2956 
Q 1341 3275 1631 3429 
Q 1922 3584 2338 3584 
Q 2397 3584 2469 3576 
Q 2541 3569 2628 3553 
L 2631 2963 
z
" transform="scale(0.015625)"/>
       <path id="DejaVuSans-61" d="M 2194 1759 
Q 1497 1759 1228 1600 
Q 959 1441 959 1056 
Q 959 750 1161 570 
Q 1363 391 1709 391 
Q 2188 391 2477 730 
Q 2766 1069 2766 1631 
L 2766 1759 
L 2194 1759 
z
M 3341 1997 
L 3341 0 
L 2766 0 
L 2766 531 
Q 2569 213 2275 61 
Q 1981 -91 1556 -91 
Q 1019 -91 701 211 
Q 384 513 384 1019 
Q 384 1609 779 1909 
Q 1175 2209 1959 2209 
L 2766 2209 
L 2766 2266 
Q 2766 2663 2505 2880 
Q 2244 3097 1772 3097 
Q 1472 3097 1187 3025 
Q 903 2953 641 2809 
L 641 3341 
Q 956 3463 1253 3523 
Q 1550 3584 1831 3584 
Q 2591 3584 2966 3190 
Q 3341 2797 3341 1997 
z
" transform="scale(0.015625)"/>
       <path id="DejaVuSans-69" d="M 603 3500 
L 1178 3500 
L 1178 0 
L 603 0 
L 603 3500 
z
M 603 4863 
L 1178 4863 
L 1178 4134 
L 603 4134 
L 603 4863 
z
" transform="scale(0.015625)"/>
       <path id="DejaVuSans-6e" d="M 3513 2113 
L 3513 0 
L 2938 0 
L 2938 2094 
Q 2938 2591 2744 2837 
Q 2550 3084 2163 3084 
Q 1697 3084 1428 2787 
Q 1159 2491 1159 1978 
L 1159 0 
L 581 0 
L 581 3500 
L 1159 3500 
L 1159 2956 
Q 1366 3272 1645 3428 
Q 1925 3584 2291 3584 
Q 2894 3584 3203 3211 
Q 3513 2838 3513 2113 
z
" transform="scale(0.015625)"/>
      </defs>
      <use xlink:href="#DejaVuSans-74"/>
      <use xlink:href="#DejaVuSans-6f" transform="translate(39.208984 0)"/>
      <use xlink:href="#DejaVuSans-70" transform="translate(100.390625 0)"/>
      <use xlink:href="#DejaVuSans-31" transform="translate(163.867188 0)"/>
      <use xlink:href="#DejaVuSans-20" transform="translate(227.490234 0)"/>
      <use xlink:href="#DejaVuSans-28" transform="translate(259.277344 0)"/>
      <use xlink:href="#DejaVuSans-74" transform="translate(298.291016 0)"/>
      <use xlink:href="#DejaVuSans-72" transform="translate(337.5 0)"/>
      <use xlink:href="#DejaVuSans-61" transform="translate(378.613281 0)"/>
      <use xlink:href="#DejaVuSans-69" transform="translate(439.892578 0)"/>
      <use xlink:href="#DejaVuSans-6e" transform="translate(467.675781 0)"/>
      <use xlink:href="#DejaVuSans-29" transform="translate(531.054688 0)"/>
     </g>
    </g>
    <g id="line2d_22">
     <path d="M 301.368438 181.126438 
L 311.368438 181.126438 
L 321.368438 181.126438 
" style="fill: none; stroke-dasharray: 5.55,2.4; stroke-dashoffset: 0; stroke: #d62728; stroke-width: 1.5"/>
    </g>
    <g id="text_16">
     <!-- top3 (train) -->
     <g transform="translate(329.368438 184.626438) scale(0.1 -0.1)">
      <use xlink:href="#DejaVuSans-74"/>
      <use xlink:href="#DejaVuSans-6f" transform="translate(39.208984 0)"/>
      <use xlink:href="#DejaVuSans-70" transform="translate(100.390625 0)"/>
      <use xlink:href="#DejaVuSans-33" transform="translate(163.867188 0)"/>
      <use xlink:href="#DejaVuSans-20" transform="translate(227.490234 0)"/>
      <use xlink:href="#DejaVuSans-28" transform="translate(259.277344 0)"/>
      <use xlink:href="#DejaVuSans-74" transform="translate(298.291016 0)"/>
      <use xlink:href="#DejaVuSans-72" transform="translate(337.5 0)"/>
      <use xlink:href="#DejaVuSans-61" transform="translate(378.613281 0)"/>
      <use xlink:href="#DejaVuSans-69" transform="translate(439.892578 0)"/>
      <use xlink:href="#DejaVuSans-6e" transform="translate(467.675781 0)"/>
      <use xlink:href="#DejaVuSans-29" transform="translate(531.054688 0)"/>
     </g>
    </g>
    <g id="line2d_23">
     <path d="M 301.368438 195.804563 
L 311.368438 195.804563 
L 321.368438 195.804563 
" style="fill: none; stroke: #9467bd; stroke-width: 1.5; stroke-linecap: square"/>
    </g>
    <g id="text_17">
     <!-- top2 diff (test) -->
     <g transform="translate(329.368438 199.304563) scale(0.1 -0.1)">
      <defs>
       <path id="DejaVuSans-64" d="M 2906 2969 
L 2906 4863 
L 3481 4863 
L 3481 0 
L 2906 0 
L 2906 525 
Q 2725 213 2448 61 
Q 2172 -91 1784 -91 
Q 1150 -91 751 415 
Q 353 922 353 1747 
Q 353 2572 751 3078 
Q 1150 3584 1784 3584 
Q 2172 3584 2448 3432 
Q 2725 3281 2906 2969 
z
M 947 1747 
Q 947 1113 1208 752 
Q 1469 391 1925 391 
Q 2381 391 2643 752 
Q 2906 1113 2906 1747 
Q 2906 2381 2643 2742 
Q 2381 3103 1925 3103 
Q 1469 3103 1208 2742 
Q 947 2381 947 1747 
z
" transform="scale(0.015625)"/>
       <path id="DejaVuSans-66" d="M 2375 4863 
L 2375 4384 
L 1825 4384 
Q 1516 4384 1395 4259 
Q 1275 4134 1275 3809 
L 1275 3500 
L 2222 3500 
L 2222 3053 
L 1275 3053 
L 1275 0 
L 697 0 
L 697 3053 
L 147 3053 
L 147 3500 
L 697 3500 
L 697 3744 
Q 697 4328 969 4595 
Q 1241 4863 1831 4863 
L 2375 4863 
z
" transform="scale(0.015625)"/>
      </defs>
      <use xlink:href="#DejaVuSans-74"/>
      <use xlink:href="#DejaVuSans-6f" transform="translate(39.208984 0)"/>
      <use xlink:href="#DejaVuSans-70" transform="translate(100.390625 0)"/>
      <use xlink:href="#DejaVuSans-32" transform="translate(163.867188 0)"/>
      <use xlink:href="#DejaVuSans-20" transform="translate(227.490234 0)"/>
      <use xlink:href="#DejaVuSans-64" transform="translate(259.277344 0)"/>
      <use xlink:href="#DejaVuSans-69" transform="translate(322.753906 0)"/>
      <use xlink:href="#DejaVuSans-66" transform="translate(350.537109 0)"/>
      <use xlink:href="#DejaVuSans-66" transform="translate(385.742188 0)"/>
      <use xlink:href="#DejaVuSans-20" transform="translate(420.947266 0)"/>
      <use xlink:href="#DejaVuSans-28" transform="translate(452.734375 0)"/>
      <use xlink:href="#DejaVuSans-74" transform="translate(491.748047 0)"/>
      <use xlink:href="#DejaVuSans-65" transform="translate(530.957031 0)"/>
      <use xlink:href="#DejaVuSans-73" transform="translate(592.480469 0)"/>
      <use xlink:href="#DejaVuSans-74" transform="translate(644.580078 0)"/>
      <use xlink:href="#DejaVuSans-29" transform="translate(683.789062 0)"/>
     </g>
    </g>
    <g id="line2d_24">
     <path d="M 301.368438 210.482687 
L 311.368438 210.482687 
L 321.368438 210.482687 
" style="fill: none; stroke: #8c564b; stroke-width: 1.5; stroke-linecap: square"/>
    </g>
    <g id="text_18">
     <!-- top2 diff (train) -->
     <g transform="translate(329.368438 213.982687) scale(0.1 -0.1)">
      <use xlink:href="#DejaVuSans-74"/>
      <use xlink:href="#DejaVuSans-6f" transform="translate(39.208984 0)"/>
      <use xlink:href="#DejaVuSans-70" transform="translate(100.390625 0)"/>
      <use xlink:href="#DejaVuSans-32" transform="translate(163.867188 0)"/>
      <use xlink:href="#DejaVuSans-20" transform="translate(227.490234 0)"/>
      <use xlink:href="#DejaVuSans-64" transform="translate(259.277344 0)"/>
      <use xlink:href="#DejaVuSans-69" transform="translate(322.753906 0)"/>
      <use xlink:href="#DejaVuSans-66" transform="translate(350.537109 0)"/>
      <use xlink:href="#DejaVuSans-66" transform="translate(385.742188 0)"/>
      <use xlink:href="#DejaVuSans-20" transform="translate(420.947266 0)"/>
      <use xlink:href="#DejaVuSans-28" transform="translate(452.734375 0)"/>
      <use xlink:href="#DejaVuSans-74" transform="translate(491.748047 0)"/>
      <use xlink:href="#DejaVuSans-72" transform="translate(530.957031 0)"/>
      <use xlink:href="#DejaVuSans-61" transform="translate(572.070312 0)"/>
      <use xlink:href="#DejaVuSans-69" transform="translate(633.349609 0)"/>
      <use xlink:href="#DejaVuSans-6e" transform="translate(661.132812 0)"/>
      <use xlink:href="#DejaVuSans-29" transform="translate(724.511719 0)"/>
     </g>
    </g>
   </g>
  </g>
 </g>
 <defs>
  <clipPath id="p2684df77d0">
   <rect x="57.6" y="41.472" width="357.12" height="266.112"/>
  </clipPath>
 </defs>
</svg>
