<?xml version="1.0" encoding="utf-8" standalone="no"?>
<!DOCTYPE svg PUBLIC "-//W3C//DTD SVG 1.1//EN"
  "http://www.w3.org/Graphics/SVG/1.1/DTD/svg11.dtd">
<svg xmlns:xlink="http://www.w3.org/1999/xlink" width="460.8pt" height="345.6pt" viewBox="0 0 460.8 345.6" xmlns="http://www.w3.org/2000/svg" version="1.1">
 <metadata>
  <rdf:RDF xmlns:dc="http://purl.org/dc/elements/1.1/" xmlns:cc="http://creativecommons.org/ns#" xmlns:rdf="http://www.w3.org/1999/02/22-rdf-syntax-ns#">
   <cc:Work>
    <dc:type rdf:resource="http://purl.org/dc/dcmitype/StillImage"/>
    <dc:date>2025-11-12T13:04:59.865779</dc:date>
    <dc:format>image/svg+xml</dc:format>
    <dc:creator>
     <cc:Agent>
      <dc:title>Matplotlib v3.10.7, https://matplotlib.org/</dc:title>
     </cc:Agent>
    </dc:creator>
   </cc:Work>
  </rdf:RDF>
 </metadata>
 <defs>
  <style type="text/css">*{stroke-linejoin: round; stroke-linecap: butt}</style>
 </defs>
 <g id="figure_1">
  <g id="patch_1">
   <path d="M 0 345.6 
L 460.8 345.6 
L 460.8 0 
L 0 0 
z
" style="fill: #ffffff"/>
  </g>
  <g id="axes_1">
   <g id="patch_2">
    <path d="M 57.6 307.584 
L 414.72 307.584 
L 414.72 41.472 
L 57.6 41.472 
z
" style="fill: #ffffff"/>
   </g>
   <g id="matplotlib.axis_1">
    <g id="xtick_1">
     <g id="line2d_1">
      <defs>
       <path id="m04d2a7b9e5" d="M 0 0 
L 0 3.5 
" style="stroke: #000000; stroke-width: 0.8"/>
      </defs>
      <g>
       <use xlink:href="#m04d2a7b9e5" x="73.832727" y="307.584" style="stroke: #000000; stroke-width: 0.8"/>
      </g>
     </g>
     <g id="text_1">
      <!-- 0 -->
      <g transform="translate(70.651477 322.182437) scale(0.1 -0.1)">
       <defs>
        <path id="DejaVuSans-30" d="M 2034 4250 
Q 1547 4250 1301 3770 
Q 1056 3291 1056 2328 
Q 1056 1369 1301 889 
Q 1547 409 2034 409 
Q 2525 409 2770 889 
Q 3016 1369 3016 2328 
Q 3016 3291 2770 3770 
Q 2525 4250 2034 4250 
z
M 2034 4750 
Q 2819 4750 3233 4129 
Q 3647 3509 3647 2328 
Q 3647 1150 3233 529 
Q 2819 -91 2034 -91 
Q 1250 -91 836 529 
Q 422 1150 422 2328 
Q 422 3509 836 4129 
Q 1250 4750 2034 4750 
z
" transform="scale(0.015625)"/>
       </defs>
       <use xlink:href="#DejaVuSans-30"/>
      </g>
     </g>
    </g>
    <g id="xtick_2">
     <g id="line2d_2">
      <g>
       <use xlink:href="#m04d2a7b9e5" x="138.77013" y="307.584" style="stroke: #000000; stroke-width: 0.8"/>
      </g>
     </g>
     <g id="text_2">
      <!-- 2000 -->
      <g transform="translate(126.04513 322.182437) scale(0.1 -0.1)">
       <defs>
        <path id="DejaVuSans-32" d="M 1228 531 
L 3431 531 
L 3431 0 
L 469 0 
L 469 531 
Q 828 903 1448 1529 
Q 2069 2156 2228 2338 
Q 2531 2678 2651 2914 
Q 2772 3150 2772 3378 
Q 2772 3750 2511 3984 
Q 2250 4219 1831 4219 
Q 1534 4219 1204 4116 
Q 875 4013 500 3803 
L 500 4441 
Q 881 4594 1212 4672 
Q 1544 4750 1819 4750 
Q 2544 4750 2975 4387 
Q 3406 4025 3406 3419 
Q 3406 3131 3298 2873 
Q 3191 2616 2906 2266 
Q 2828 2175 2409 1742 
Q 1991 1309 1228 531 
z
" transform="scale(0.015625)"/>
       </defs>
       <use xlink:href="#DejaVuSans-32"/>
       <use xlink:href="#DejaVuSans-30" transform="translate(63.623047 0)"/>
       <use xlink:href="#DejaVuSans-30" transform="translate(127.246094 0)"/>
       <use xlink:href="#DejaVuSans-30" transform="translate(190.869141 0)"/>
      </g>
     </g>
    </g>
    <g id="xtick_3">
     <g id="line2d_3">
      <g>
       <use xlink:href="#m04d2a7b9e5" x="203.707533" y="307.584" style="stroke: #000000; stroke-width: 0.8"/>
      </g>
     </g>
     <g id="text_3">
      <!-- 4000 -->
      <g transform="translate(190.982533 322.182437) scale(0.1 -0.1)">
       <defs>
        <path id="DejaVuSans-34" d="M 2419 4116 
L 825 1625 
L 2419 1625 
L 2419 4116 
z
M 2253 4666 
L 3047 4666 
L 3047 1625 
L 3713 1625 
L 3713 1100 
L 3047 1100 
L 3047 0 
L 2419 0 
L 2419 1100 
L 313 1100 
L 313 1709 
L 2253 4666 
z
" transform="scale(0.015625)"/>
       </defs>
       <use xlink:href="#DejaVuSans-34"/>
       <use xlink:href="#DejaVuSans-30" transform="translate(63.623047 0)"/>
       <use xlink:href="#DejaVuSans-30" transform="translate(127.246094 0)"/>
       <use xlink:href="#DejaVuSans-30" transform="translate(190.869141 0)"/>
      </g>
     </g>
    </g>
    <g id="xtick_4">
     <g id="line2d_4">
      <g>
       <use xlink:href="#m04d2a7b9e5" x="268.644936" y="307.584" style="stroke: #000000; stroke-width: 0.8"/>
      </g>
     </g>
     <g id="text_4">
      <!-- 6000 -->
      <g transform="translate(255.919936 322.182437) scale(0.1 -0.1)">
       <defs>
        <path id="DejaVuSans-36" d="M 2113 2584 
Q 1688 2584 1439 2293 
Q 1191 2003 1191 1497 
Q 1191 994 1439 701 
Q 1688 409 2113 409 
Q 2538 409 2786 701 
Q 3034 994 3034 1497 
Q 3034 2003 2786 2293 
Q 2538 2584 2113 2584 
z
M 3366 4563 
L 3366 3988 
Q 3128 4100 2886 4159 
Q 2644 4219 2406 4219 
Q 1781 4219 1451 3797 
Q 1122 3375 1075 2522 
Q 1259 2794 1537 2939 
Q 1816 3084 2150 3084 
Q 2853 3084 3261 2657 
Q 3669 2231 3669 1497 
Q 3669 778 3244 343 
Q 2819 -91 2113 -91 
Q 1303 -91 875 529 
Q 447 1150 447 2328 
Q 447 3434 972 4092 
Q 1497 4750 2381 4750 
Q 2619 4750 2861 4703 
Q 3103 4656 3366 4563 
z
" transform="scale(0.015625)"/>
       </defs>
       <use xlink:href="#DejaVuSans-36"/>
       <use xlink:href="#DejaVuSans-30" transform="translate(63.623047 0)"/>
       <use xlink:href="#DejaVuSans-30" transform="translate(127.246094 0)"/>
       <use xlink:href="#DejaVuSans-30" transform="translate(190.869141 0)"/>
      </g>
     </g>
    </g>
    <g id="xtick_5">
     <g id="line2d_5">
      <g>
       <use xlink:href="#m04d2a7b9e5" x="333.582339" y="307.584" style="stroke: #000000; stroke-width: 0.8"/>
      </g>
     </g>
     <g id="text_5">
      <!-- 8000 -->
      <g transform="translate(320.857339 322.182437) scale(0.1 -0.1)">
       <defs>
        <path id="DejaVuSans-38" d="M 2034 2216 
Q 1584 2216 1326 1975 
Q 1069 1734 1069 1313 
Q 1069 891 1326 650 
Q 1584 409 2034 409 
Q 2484 409 2743 651 
Q 3003 894 3003 1313 
Q 3003 1734 2745 1975 
Q 2488 2216 2034 2216 
z
M 1403 2484 
Q 997 2584 770 2862 
Q 544 3141 544 3541 
Q 544 4100 942 4425 
Q 1341 4750 2034 4750 
Q 2731 4750 3128 4425 
Q 3525 4100 3525 3541 
Q 3525 3141 3298 2862 
Q 3072 2584 2669 2484 
Q 3125 2378 3379 2068 
Q 3634 1759 3634 1313 
Q 3634 634 3220 271 
Q 2806 -91 2034 -91 
Q 1263 -91 848 271 
Q 434 634 434 1313 
Q 434 1759 690 2068 
Q 947 2378 1403 2484 
z
M 1172 3481 
Q 1172 3119 1398 2916 
Q 1625 2713 2034 2713 
Q 2441 2713 2670 2916 
Q 2900 3119 2900 3481 
Q 2900 3844 2670 4047 
Q 2441 4250 2034 4250 
Q 1625 4250 1398 4047 
Q 1172 3844 1172 3481 
z
" transform="scale(0.015625)"/>
       </defs>
       <use xlink:href="#DejaVuSans-38"/>
       <use xlink:href="#DejaVuSans-30" transform="translate(63.623047 0)"/>
       <use xlink:href="#DejaVuSans-30" transform="translate(127.246094 0)"/>
       <use xlink:href="#DejaVuSans-30" transform="translate(190.869141 0)"/>
      </g>
     </g>
    </g>
    <g id="xtick_6">
     <g id="line2d_6">
      <g>
       <use xlink:href="#m04d2a7b9e5" x="398.519741" y="307.584" style="stroke: #000000; stroke-width: 0.8"/>
      </g>
     </g>
     <g id="text_6">
      <!-- 10000 -->
      <g transform="translate(382.613491 322.182437) scale(0.1 -0.1)">
       <defs>
        <path id="DejaVuSans-31" d="M 794 531 
L 1825 531 
L 1825 4091 
L 703 3866 
L 703 4441 
L 1819 4666 
L 2450 4666 
L 2450 531 
L 3481 531 
L 3481 0 
L 794 0 
L 794 531 
z
" transform="scale(0.015625)"/>
       </defs>
       <use xlink:href="#DejaVuSans-31"/>
       <use xlink:href="#DejaVuSans-30" transform="translate(63.623047 0)"/>
       <use xlink:href="#DejaVuSans-30" transform="translate(127.246094 0)"/>
       <use xlink:href="#DejaVuSans-30" transform="translate(190.869141 0)"/>
       <use xlink:href="#DejaVuSans-30" transform="translate(254.492188 0)"/>
      </g>
     </g>
    </g>
   </g>
   <g id="matplotlib.axis_2">
    <g id="ytick_1">
     <g id="line2d_7">
      <defs>
       <path id="ma9f995600e" d="M 0 0 
L -3.5 0 
" style="stroke: #000000; stroke-width: 0.8"/>
      </defs>
      <g>
       <use xlink:href="#ma9f995600e" x="57.6" y="296.878345" style="stroke: #000000; stroke-width: 0.8"/>
      </g>
     </g>
     <g id="text_7">
      <!-- 0 -->
      <g transform="translate(44.2375 300.677564) scale(0.1 -0.1)">
       <use xlink:href="#DejaVuSans-30"/>
      </g>
     </g>
    </g>
    <g id="ytick_2">
     <g id="line2d_8">
      <g>
       <use xlink:href="#ma9f995600e" x="57.6" y="248.216276" style="stroke: #000000; stroke-width: 0.8"/>
      </g>
     </g>
     <g id="text_8">
      <!-- 20 -->
      <g transform="translate(37.875 252.015495) scale(0.1 -0.1)">
       <use xlink:href="#DejaVuSans-32"/>
       <use xlink:href="#DejaVuSans-30" transform="translate(63.623047 0)"/>
      </g>
     </g>
    </g>
    <g id="ytick_3">
     <g id="line2d_9">
      <g>
       <use xlink:href="#ma9f995600e" x="57.6" y="199.554207" style="stroke: #000000; stroke-width: 0.8"/>
      </g>
     </g>
     <g id="text_9">
      <!-- 40 -->
      <g transform="translate(37.875 203.353426) scale(0.1 -0.1)">
       <use xlink:href="#DejaVuSans-34"/>
       <use xlink:href="#DejaVuSans-30" transform="translate(63.623047 0)"/>
      </g>
     </g>
    </g>
    <g id="ytick_4">
     <g id="line2d_10">
      <g>
       <use xlink:href="#ma9f995600e" x="57.6" y="150.892138" style="stroke: #000000; stroke-width: 0.8"/>
      </g>
     </g>
     <g id="text_10">
      <!-- 60 -->
      <g transform="translate(37.875 154.691357) scale(0.1 -0.1)">
       <use xlink:href="#DejaVuSans-36"/>
       <use xlink:href="#DejaVuSans-30" transform="translate(63.623047 0)"/>
      </g>
     </g>
    </g>
    <g id="ytick_5">
     <g id="line2d_11">
      <g>
       <use xlink:href="#ma9f995600e" x="57.6" y="102.230069" style="stroke: #000000; stroke-width: 0.8"/>
      </g>
     </g>
     <g id="text_11">
      <!-- 80 -->
      <g transform="translate(37.875 106.029288) scale(0.1 -0.1)">
       <use xlink:href="#DejaVuSans-38"/>
       <use xlink:href="#DejaVuSans-30" transform="translate(63.623047 0)"/>
      </g>
     </g>
    </g>
    <g id="ytick_6">
     <g id="line2d_12">
      <g>
       <use xlink:href="#ma9f995600e" x="57.6" y="53.568" style="stroke: #000000; stroke-width: 0.8"/>
      </g>
     </g>
     <g id="text_12">
      <!-- 100 -->
      <g transform="translate(31.5125 57.367219) scale(0.1 -0.1)">
       <use xlink:href="#DejaVuSans-31"/>
       <use xlink:href="#DejaVuSans-30" transform="translate(63.623047 0)"/>
       <use xlink:href="#DejaVuSans-30" transform="translate(127.246094 0)"/>
      </g>
     </g>
    </g>
   </g>
   <g id="line2d_13">
    <path d="M 73.832727 211.973166 
L 77.079597 211.973166 
L 80.326468 219.154206 
L 83.573338 217.675752 
L 86.820208 212.395588 
L 90.067078 181.348171 
L 93.313948 168.46455 
L 96.560818 166.9861 
L 99.807688 136.783509 
L 103.054559 125.800759 
L 106.26896 115.678668 
L 106.301429 107.21456 
L 109.548299 96.231791 
L 112.795169 94.753332 
L 116.042039 95.175754 
L 119.288909 91.37403 
L 122.535779 91.37403 
L 125.78265 87.572306 
L 129.02952 89.473168 
L 132.27639 87.572306 
L 135.52326 82.714546 
L 138.737661 104.463582 
L 138.77013 80.813683 
L 142.017 80.813683 
L 145.26387 80.39128 
L 148.510741 86.093866 
L 151.757611 77.434363 
L 155.004481 71.731777 
L 158.251351 71.731777 
L 161.498221 71.731777 
L 164.745091 78.490418 
L 167.991961 78.490418 
L 171.206363 84.599573 
L 171.238832 66.874034 
L 174.485702 64.973172 
L 177.732572 70.253337 
L 180.979442 70.675759 
L 184.226312 74.055061 
L 187.473182 68.774897 
L 190.720052 78.490418 
L 193.966923 78.912821 
L 197.213793 78.912821 
L 200.460663 82.292142 
L 203.675064 81.890845 
L 203.707533 84.193004 
L 206.954403 78.490418 
L 210.201273 75.111097 
L 213.448143 84.193004 
L 216.695014 80.39128 
L 219.941884 66.451612 
L 223.188754 75.111097 
L 226.435624 70.253337 
L 229.682494 75.533501 
L 232.929364 78.912821 
L 236.143766 79.514767 
L 236.176234 73.632639 
L 239.423104 75.111097 
L 242.669975 77.434363 
L 245.916845 75.111097 
L 249.163715 83.770582 
L 252.410585 80.39128 
L 255.657455 78.490418 
L 258.904325 80.39128 
L 262.151195 80.39128 
L 265.398066 85.671444 
L 268.612467 88.448819 
L 268.644936 82.292142 
L 271.891806 75.111097 
L 275.138676 87.572306 
L 278.385546 84.193004 
L 281.632416 82.292142 
L 284.879286 83.34816 
L 288.126157 90.529205 
L 291.373027 88.628343 
L 294.619897 87.149884 
L 297.866767 87.149884 
L 301.081168 90.682332 
L 301.113637 85.671444 
L 304.360507 90.951608 
L 307.607377 89.050746 
L 310.854248 92.85247 
L 314.101118 92.430067 
L 317.347988 87.572306 
L 320.594858 94.330929 
L 323.841728 96.231791 
L 327.088598 94.330929 
L 330.335468 96.231791 
L 333.54987 92.107978 
L 333.582339 92.430067 
L 336.829209 98.132653 
L 340.076079 94.753332 
L 343.322949 92.430067 
L 346.569819 98.132653 
L 349.816689 89.050746 
L 353.063559 97.71025 
L 356.31043 97.71025 
L 359.5573 90.529205 
L 362.80417 94.330929 
L 366.018571 91.53772 
L 366.05104 90.951608 
L 369.29791 90.951608 
L 372.54478 96.231791 
L 375.79165 85.671444 
L 379.038521 90.951608 
L 382.285391 89.050746 
L 385.532261 90.951608 
L 388.779131 90.951608 
L 392.026001 90.951608 
L 395.272871 95.809388 
L 398.487273 91.300112 
" clip-path="url(#pfc6db8ac32)" style="fill: none; stroke: #1f77b4; stroke-width: 1.5; stroke-linecap: square"/>
    <defs>
     <path id="m6c9f6f97d7" d="M 0 3 
C 0.795609 3 1.55874 2.683901 2.12132 2.12132 
C 2.683901 1.55874 3 0.795609 3 0 
C 3 -0.795609 2.683901 -1.55874 2.12132 -2.12132 
C 1.55874 -2.683901 0.795609 -3 0 -3 
C -0.795609 -3 -1.55874 -2.683901 -2.12132 -2.12132 
C -2.683901 -1.55874 -3 -0.795609 -3 0 
C -3 0.795609 -2.683901 1.55874 -2.12132 2.12132 
C -1.55874 2.683901 -0.795609 3 0 3 
z
" style="stroke: #1f77b4"/>
    </defs>
    <g clip-path="url(#pfc6db8ac32)">
     <use xlink:href="#m6c9f6f97d7" x="73.832727" y="211.973166" style="fill: #1f77b4; stroke: #1f77b4"/>
     <use xlink:href="#m6c9f6f97d7" x="77.079597" y="211.973166" style="fill: #1f77b4; stroke: #1f77b4"/>
     <use xlink:href="#m6c9f6f97d7" x="80.326468" y="219.154206" style="fill: #1f77b4; stroke: #1f77b4"/>
     <use xlink:href="#m6c9f6f97d7" x="83.573338" y="217.675752" style="fill: #1f77b4; stroke: #1f77b4"/>
     <use xlink:href="#m6c9f6f97d7" x="86.820208" y="212.395588" style="fill: #1f77b4; stroke: #1f77b4"/>
     <use xlink:href="#m6c9f6f97d7" x="90.067078" y="181.348171" style="fill: #1f77b4; stroke: #1f77b4"/>
     <use xlink:href="#m6c9f6f97d7" x="93.313948" y="168.46455" style="fill: #1f77b4; stroke: #1f77b4"/>
     <use xlink:href="#m6c9f6f97d7" x="96.560818" y="166.9861" style="fill: #1f77b4; stroke: #1f77b4"/>
     <use xlink:href="#m6c9f6f97d7" x="99.807688" y="136.783509" style="fill: #1f77b4; stroke: #1f77b4"/>
     <use xlink:href="#m6c9f6f97d7" x="103.054559" y="125.800759" style="fill: #1f77b4; stroke: #1f77b4"/>
     <use xlink:href="#m6c9f6f97d7" x="106.26896" y="115.678668" style="fill: #1f77b4; stroke: #1f77b4"/>
     <use xlink:href="#m6c9f6f97d7" x="106.301429" y="107.21456" style="fill: #1f77b4; stroke: #1f77b4"/>
     <use xlink:href="#m6c9f6f97d7" x="109.548299" y="96.231791" style="fill: #1f77b4; stroke: #1f77b4"/>
     <use xlink:href="#m6c9f6f97d7" x="112.795169" y="94.753332" style="fill: #1f77b4; stroke: #1f77b4"/>
     <use xlink:href="#m6c9f6f97d7" x="116.042039" y="95.175754" style="fill: #1f77b4; stroke: #1f77b4"/>
     <use xlink:href="#m6c9f6f97d7" x="119.288909" y="91.37403" style="fill: #1f77b4; stroke: #1f77b4"/>
     <use xlink:href="#m6c9f6f97d7" x="122.535779" y="91.37403" style="fill: #1f77b4; stroke: #1f77b4"/>
     <use xlink:href="#m6c9f6f97d7" x="125.78265" y="87.572306" style="fill: #1f77b4; stroke: #1f77b4"/>
     <use xlink:href="#m6c9f6f97d7" x="129.02952" y="89.473168" style="fill: #1f77b4; stroke: #1f77b4"/>
     <use xlink:href="#m6c9f6f97d7" x="132.27639" y="87.572306" style="fill: #1f77b4; stroke: #1f77b4"/>
     <use xlink:href="#m6c9f6f97d7" x="135.52326" y="82.714546" style="fill: #1f77b4; stroke: #1f77b4"/>
     <use xlink:href="#m6c9f6f97d7" x="138.737661" y="104.463582" style="fill: #1f77b4; stroke: #1f77b4"/>
     <use xlink:href="#m6c9f6f97d7" x="138.77013" y="80.813683" style="fill: #1f77b4; stroke: #1f77b4"/>
     <use xlink:href="#m6c9f6f97d7" x="142.017" y="80.813683" style="fill: #1f77b4; stroke: #1f77b4"/>
     <use xlink:href="#m6c9f6f97d7" x="145.26387" y="80.39128" style="fill: #1f77b4; stroke: #1f77b4"/>
     <use xlink:href="#m6c9f6f97d7" x="148.510741" y="86.093866" style="fill: #1f77b4; stroke: #1f77b4"/>
     <use xlink:href="#m6c9f6f97d7" x="151.757611" y="77.434363" style="fill: #1f77b4; stroke: #1f77b4"/>
     <use xlink:href="#m6c9f6f97d7" x="155.004481" y="71.731777" style="fill: #1f77b4; stroke: #1f77b4"/>
     <use xlink:href="#m6c9f6f97d7" x="158.251351" y="71.731777" style="fill: #1f77b4; stroke: #1f77b4"/>
     <use xlink:href="#m6c9f6f97d7" x="161.498221" y="71.731777" style="fill: #1f77b4; stroke: #1f77b4"/>
     <use xlink:href="#m6c9f6f97d7" x="164.745091" y="78.490418" style="fill: #1f77b4; stroke: #1f77b4"/>
     <use xlink:href="#m6c9f6f97d7" x="167.991961" y="78.490418" style="fill: #1f77b4; stroke: #1f77b4"/>
     <use xlink:href="#m6c9f6f97d7" x="171.206363" y="84.599573" style="fill: #1f77b4; stroke: #1f77b4"/>
     <use xlink:href="#m6c9f6f97d7" x="171.238832" y="66.874034" style="fill: #1f77b4; stroke: #1f77b4"/>
     <use xlink:href="#m6c9f6f97d7" x="174.485702" y="64.973172" style="fill: #1f77b4; stroke: #1f77b4"/>
     <use xlink:href="#m6c9f6f97d7" x="177.732572" y="70.253337" style="fill: #1f77b4; stroke: #1f77b4"/>
     <use xlink:href="#m6c9f6f97d7" x="180.979442" y="70.675759" style="fill: #1f77b4; stroke: #1f77b4"/>
     <use xlink:href="#m6c9f6f97d7" x="184.226312" y="74.055061" style="fill: #1f77b4; stroke: #1f77b4"/>
     <use xlink:href="#m6c9f6f97d7" x="187.473182" y="68.774897" style="fill: #1f77b4; stroke: #1f77b4"/>
     <use xlink:href="#m6c9f6f97d7" x="190.720052" y="78.490418" style="fill: #1f77b4; stroke: #1f77b4"/>
     <use xlink:href="#m6c9f6f97d7" x="193.966923" y="78.912821" style="fill: #1f77b4; stroke: #1f77b4"/>
     <use xlink:href="#m6c9f6f97d7" x="197.213793" y="78.912821" style="fill: #1f77b4; stroke: #1f77b4"/>
     <use xlink:href="#m6c9f6f97d7" x="200.460663" y="82.292142" style="fill: #1f77b4; stroke: #1f77b4"/>
     <use xlink:href="#m6c9f6f97d7" x="203.675064" y="81.890845" style="fill: #1f77b4; stroke: #1f77b4"/>
     <use xlink:href="#m6c9f6f97d7" x="203.707533" y="84.193004" style="fill: #1f77b4; stroke: #1f77b4"/>
     <use xlink:href="#m6c9f6f97d7" x="206.954403" y="78.490418" style="fill: #1f77b4; stroke: #1f77b4"/>
     <use xlink:href="#m6c9f6f97d7" x="210.201273" y="75.111097" style="fill: #1f77b4; stroke: #1f77b4"/>
     <use xlink:href="#m6c9f6f97d7" x="213.448143" y="84.193004" style="fill: #1f77b4; stroke: #1f77b4"/>
     <use xlink:href="#m6c9f6f97d7" x="216.695014" y="80.39128" style="fill: #1f77b4; stroke: #1f77b4"/>
     <use xlink:href="#m6c9f6f97d7" x="219.941884" y="66.451612" style="fill: #1f77b4; stroke: #1f77b4"/>
     <use xlink:href="#m6c9f6f97d7" x="223.188754" y="75.111097" style="fill: #1f77b4; stroke: #1f77b4"/>
     <use xlink:href="#m6c9f6f97d7" x="226.435624" y="70.253337" style="fill: #1f77b4; stroke: #1f77b4"/>
     <use xlink:href="#m6c9f6f97d7" x="229.682494" y="75.533501" style="fill: #1f77b4; stroke: #1f77b4"/>
     <use xlink:href="#m6c9f6f97d7" x="232.929364" y="78.912821" style="fill: #1f77b4; stroke: #1f77b4"/>
     <use xlink:href="#m6c9f6f97d7" x="236.143766" y="79.514767" style="fill: #1f77b4; stroke: #1f77b4"/>
     <use xlink:href="#m6c9f6f97d7" x="236.176234" y="73.632639" style="fill: #1f77b4; stroke: #1f77b4"/>
     <use xlink:href="#m6c9f6f97d7" x="239.423104" y="75.111097" style="fill: #1f77b4; stroke: #1f77b4"/>
     <use xlink:href="#m6c9f6f97d7" x="242.669975" y="77.434363" style="fill: #1f77b4; stroke: #1f77b4"/>
     <use xlink:href="#m6c9f6f97d7" x="245.916845" y="75.111097" style="fill: #1f77b4; stroke: #1f77b4"/>
     <use xlink:href="#m6c9f6f97d7" x="249.163715" y="83.770582" style="fill: #1f77b4; stroke: #1f77b4"/>
     <use xlink:href="#m6c9f6f97d7" x="252.410585" y="80.39128" style="fill: #1f77b4; stroke: #1f77b4"/>
     <use xlink:href="#m6c9f6f97d7" x="255.657455" y="78.490418" style="fill: #1f77b4; stroke: #1f77b4"/>
     <use xlink:href="#m6c9f6f97d7" x="258.904325" y="80.39128" style="fill: #1f77b4; stroke: #1f77b4"/>
     <use xlink:href="#m6c9f6f97d7" x="262.151195" y="80.39128" style="fill: #1f77b4; stroke: #1f77b4"/>
     <use xlink:href="#m6c9f6f97d7" x="265.398066" y="85.671444" style="fill: #1f77b4; stroke: #1f77b4"/>
     <use xlink:href="#m6c9f6f97d7" x="268.612467" y="88.448819" style="fill: #1f77b4; stroke: #1f77b4"/>
     <use xlink:href="#m6c9f6f97d7" x="268.644936" y="82.292142" style="fill: #1f77b4; stroke: #1f77b4"/>
     <use xlink:href="#m6c9f6f97d7" x="271.891806" y="75.111097" style="fill: #1f77b4; stroke: #1f77b4"/>
     <use xlink:href="#m6c9f6f97d7" x="275.138676" y="87.572306" style="fill: #1f77b4; stroke: #1f77b4"/>
     <use xlink:href="#m6c9f6f97d7" x="278.385546" y="84.193004" style="fill: #1f77b4; stroke: #1f77b4"/>
     <use xlink:href="#m6c9f6f97d7" x="281.632416" y="82.292142" style="fill: #1f77b4; stroke: #1f77b4"/>
     <use xlink:href="#m6c9f6f97d7" x="284.879286" y="83.34816" style="fill: #1f77b4; stroke: #1f77b4"/>
     <use xlink:href="#m6c9f6f97d7" x="288.126157" y="90.529205" style="fill: #1f77b4; stroke: #1f77b4"/>
     <use xlink:href="#m6c9f6f97d7" x="291.373027" y="88.628343" style="fill: #1f77b4; stroke: #1f77b4"/>
     <use xlink:href="#m6c9f6f97d7" x="294.619897" y="87.149884" style="fill: #1f77b4; stroke: #1f77b4"/>
     <use xlink:href="#m6c9f6f97d7" x="297.866767" y="87.149884" style="fill: #1f77b4; stroke: #1f77b4"/>
     <use xlink:href="#m6c9f6f97d7" x="301.081168" y="90.682332" style="fill: #1f77b4; stroke: #1f77b4"/>
     <use xlink:href="#m6c9f6f97d7" x="301.113637" y="85.671444" style="fill: #1f77b4; stroke: #1f77b4"/>
     <use xlink:href="#m6c9f6f97d7" x="304.360507" y="90.951608" style="fill: #1f77b4; stroke: #1f77b4"/>
     <use xlink:href="#m6c9f6f97d7" x="307.607377" y="89.050746" style="fill: #1f77b4; stroke: #1f77b4"/>
     <use xlink:href="#m6c9f6f97d7" x="310.854248" y="92.85247" style="fill: #1f77b4; stroke: #1f77b4"/>
     <use xlink:href="#m6c9f6f97d7" x="314.101118" y="92.430067" style="fill: #1f77b4; stroke: #1f77b4"/>
     <use xlink:href="#m6c9f6f97d7" x="317.347988" y="87.572306" style="fill: #1f77b4; stroke: #1f77b4"/>
     <use xlink:href="#m6c9f6f97d7" x="320.594858" y="94.330929" style="fill: #1f77b4; stroke: #1f77b4"/>
     <use xlink:href="#m6c9f6f97d7" x="323.841728" y="96.231791" style="fill: #1f77b4; stroke: #1f77b4"/>
     <use xlink:href="#m6c9f6f97d7" x="327.088598" y="94.330929" style="fill: #1f77b4; stroke: #1f77b4"/>
     <use xlink:href="#m6c9f6f97d7" x="330.335468" y="96.231791" style="fill: #1f77b4; stroke: #1f77b4"/>
     <use xlink:href="#m6c9f6f97d7" x="333.54987" y="92.107978" style="fill: #1f77b4; stroke: #1f77b4"/>
     <use xlink:href="#m6c9f6f97d7" x="333.582339" y="92.430067" style="fill: #1f77b4; stroke: #1f77b4"/>
     <use xlink:href="#m6c9f6f97d7" x="336.829209" y="98.132653" style="fill: #1f77b4; stroke: #1f77b4"/>
     <use xlink:href="#m6c9f6f97d7" x="340.076079" y="94.753332" style="fill: #1f77b4; stroke: #1f77b4"/>
     <use xlink:href="#m6c9f6f97d7" x="343.322949" y="92.430067" style="fill: #1f77b4; stroke: #1f77b4"/>
     <use xlink:href="#m6c9f6f97d7" x="346.569819" y="98.132653" style="fill: #1f77b4; stroke: #1f77b4"/>
     <use xlink:href="#m6c9f6f97d7" x="349.816689" y="89.050746" style="fill: #1f77b4; stroke: #1f77b4"/>
     <use xlink:href="#m6c9f6f97d7" x="353.063559" y="97.71025" style="fill: #1f77b4; stroke: #1f77b4"/>
     <use xlink:href="#m6c9f6f97d7" x="356.31043" y="97.71025" style="fill: #1f77b4; stroke: #1f77b4"/>
     <use xlink:href="#m6c9f6f97d7" x="359.5573" y="90.529205" style="fill: #1f77b4; stroke: #1f77b4"/>
     <use xlink:href="#m6c9f6f97d7" x="362.80417" y="94.330929" style="fill: #1f77b4; stroke: #1f77b4"/>
     <use xlink:href="#m6c9f6f97d7" x="366.018571" y="91.53772" style="fill: #1f77b4; stroke: #1f77b4"/>
     <use xlink:href="#m6c9f6f97d7" x="366.05104" y="90.951608" style="fill: #1f77b4; stroke: #1f77b4"/>
     <use xlink:href="#m6c9f6f97d7" x="369.29791" y="90.951608" style="fill: #1f77b4; stroke: #1f77b4"/>
     <use xlink:href="#m6c9f6f97d7" x="372.54478" y="96.231791" style="fill: #1f77b4; stroke: #1f77b4"/>
     <use xlink:href="#m6c9f6f97d7" x="375.79165" y="85.671444" style="fill: #1f77b4; stroke: #1f77b4"/>
     <use xlink:href="#m6c9f6f97d7" x="379.038521" y="90.951608" style="fill: #1f77b4; stroke: #1f77b4"/>
     <use xlink:href="#m6c9f6f97d7" x="382.285391" y="89.050746" style="fill: #1f77b4; stroke: #1f77b4"/>
     <use xlink:href="#m6c9f6f97d7" x="385.532261" y="90.951608" style="fill: #1f77b4; stroke: #1f77b4"/>
     <use xlink:href="#m6c9f6f97d7" x="388.779131" y="90.951608" style="fill: #1f77b4; stroke: #1f77b4"/>
     <use xlink:href="#m6c9f6f97d7" x="392.026001" y="90.951608" style="fill: #1f77b4; stroke: #1f77b4"/>
     <use xlink:href="#m6c9f6f97d7" x="395.272871" y="95.809388" style="fill: #1f77b4; stroke: #1f77b4"/>
     <use xlink:href="#m6c9f6f97d7" x="398.487273" y="91.300112" style="fill: #1f77b4; stroke: #1f77b4"/>
    </g>
   </g>
   <g id="line2d_14">
    <path d="M 73.832727 134.671436 
L 77.079597 134.671436 
L 80.326468 145.231792 
L 83.573338 148.399892 
L 86.820208 155.158515 
L 90.067078 112.072302 
L 93.313948 104.891276 
L 96.560818 87.149884 
L 99.807688 85.249022 
L 103.054559 71.309373 
L 106.26896 71.055931 
L 106.301429 62.649888 
L 109.548299 66.02919 
L 112.795169 66.02919 
L 116.042039 60.749026 
L 119.288909 60.749026 
L 122.535779 60.749026 
L 125.78265 60.749026 
L 129.02952 60.749026 
L 132.27639 57.369724 
L 135.52326 57.369724 
L 138.737661 61.694185 
L 138.77013 57.369724 
L 142.017 57.369724 
L 145.26387 57.369724 
L 148.510741 57.369724 
L 151.757611 57.369724 
L 155.004481 55.468862 
L 158.251351 57.369724 
L 161.498221 57.369724 
L 164.745091 57.369724 
L 167.991961 57.369724 
L 171.206363 54.756039 
L 171.238832 55.468862 
L 174.485702 55.468862 
L 177.732572 55.468862 
L 180.979442 55.468862 
L 184.226312 55.468862 
L 187.473182 55.468862 
L 190.720052 55.468862 
L 193.966923 55.468862 
L 197.213793 55.468862 
L 200.460663 55.468862 
L 203.675064 55.231254 
L 203.707533 55.468862 
L 206.954403 55.468862 
L 210.201273 55.468862 
L 213.448143 53.568 
L 216.695014 55.468862 
L 219.941884 55.468862 
L 223.188754 55.468862 
L 226.435624 53.568 
L 229.682494 53.568 
L 232.929364 53.568 
L 236.143766 54.043216 
L 236.176234 53.568 
L 239.423104 53.568 
L 242.669975 53.568 
L 245.916845 53.568 
L 249.163715 56.947302 
L 252.410585 56.947302 
L 255.657455 56.947302 
L 258.904325 56.947302 
L 262.151195 60.326604 
L 265.398066 56.947302 
L 268.612467 57.417246 
L 268.644936 60.326604 
L 271.891806 56.947302 
L 275.138676 56.947302 
L 278.385546 56.947302 
L 281.632416 56.947302 
L 284.879286 56.947302 
L 288.126157 56.947302 
L 291.373027 56.947302 
L 294.619897 56.947302 
L 297.866767 56.947302 
L 301.081168 58.842892 
L 301.113637 58.848164 
L 304.360507 60.326604 
L 307.607377 58.848164 
L 310.854248 62.227466 
L 314.101118 62.227466 
L 317.347988 62.227466 
L 320.594858 62.227466 
L 323.841728 62.227466 
L 327.088598 62.227466 
L 330.335468 58.848164 
L 333.54987 61.028884 
L 333.582339 65.606787 
L 336.829209 62.227466 
L 340.076079 62.227466 
L 343.322949 62.227466 
L 346.569819 65.606787 
L 349.816689 62.227466 
L 353.063559 62.227466 
L 356.31043 62.227466 
L 359.5573 62.227466 
L 362.80417 65.606787 
L 366.018571 62.121879 
L 366.05104 65.606787 
L 369.29791 62.227466 
L 372.54478 65.606787 
L 375.79165 65.606787 
L 379.038521 63.705925 
L 382.285391 63.705925 
L 385.532261 65.606787 
L 388.779131 63.705925 
L 392.026001 63.705925 
L 395.272871 63.705925 
L 398.487273 62.216922 
" clip-path="url(#pfc6db8ac32)" style="fill: none; stroke: #ff7f0e; stroke-width: 1.5; stroke-linecap: square"/>
   </g>
   <g id="line2d_15">
    <path d="M 73.832727 202.046452 
L 77.079597 202.046452 
L 80.326468 217.886963 
L 83.573338 219.365413 
L 86.820208 206.904204 
L 90.067078 172.477485 
L 93.313948 148.399892 
L 96.560818 139.318004 
L 99.807688 115.874026 
L 103.054559 109.115422 
L 106.26896 106.316922 
L 106.301429 87.572306 
L 109.548299 87.572306 
L 112.795169 87.572306 
L 116.042039 92.85247 
L 119.288909 89.050746 
L 122.535779 92.85247 
L 125.78265 89.473168 
L 129.02952 90.951608 
L 132.27639 89.050746 
L 135.52326 90.951608 
L 138.737661 97.287828 
L 138.77013 89.050746 
L 142.017 89.050746 
L 145.26387 83.770582 
L 148.510741 87.149884 
L 151.757611 85.671444 
L 155.004481 83.34816 
L 158.251351 85.249022 
L 161.498221 81.86972 
L 164.745091 81.447298 
L 167.991961 81.447298 
L 171.206363 80.132547 
L 171.238832 73.210235 
L 174.485702 71.309373 
L 177.732572 79.968858 
L 180.979442 85.249022 
L 184.226312 79.968858 
L 187.473182 82.292142 
L 190.720052 78.490418 
L 193.966923 85.249022 
L 197.213793 81.86972 
L 200.460663 80.39128 
L 203.675064 81.795802 
L 203.707533 76.589556 
L 206.954403 82.292142 
L 210.201273 85.671444 
L 213.448143 76.589556 
L 216.695014 83.770582 
L 219.941884 89.473168 
L 223.188754 82.292142 
L 226.435624 89.473168 
L 229.682494 84.193004 
L 232.929364 85.671444 
L 236.143766 80.275112 
L 236.176234 94.753332 
L 239.423104 89.050746 
L 242.669975 92.85247 
L 245.916845 79.968858 
L 249.163715 76.589556 
L 252.410585 79.968858 
L 255.657455 74.688694 
L 258.904325 79.968858 
L 262.151195 78.067996 
L 265.398066 83.770582 
L 268.612467 83.364013 
L 268.644936 79.968858 
L 271.891806 83.34816 
L 275.138676 81.86972 
L 278.385546 79.968858 
L 281.632416 89.050746 
L 284.879286 78.490418 
L 288.126157 83.770582 
L 291.373027 85.671444 
L 294.619897 87.572306 
L 297.866767 81.86972 
L 301.081168 90.63481 
L 301.113637 85.671444 
L 304.360507 85.249022 
L 307.607377 87.149884 
L 310.854248 85.671444 
L 314.101118 90.529205 
L 317.347988 90.106801 
L 320.594858 82.292142 
L 323.841728 87.149884 
L 327.088598 85.249022 
L 330.335468 87.149884 
L 333.54987 93.200974 
L 333.582339 87.149884 
L 336.829209 85.249022 
L 340.076079 83.770582 
L 343.322949 85.249022 
L 346.569819 85.249022 
L 349.816689 83.770582 
L 353.063559 85.249022 
L 356.31043 85.249022 
L 359.5573 89.050746 
L 362.80417 85.249022 
L 366.018571 94.389013 
L 366.05104 83.34816 
L 369.29791 83.34816 
L 372.54478 87.149884 
L 375.79165 90.529205 
L 379.038521 87.149884 
L 382.285391 88.628343 
L 385.532261 88.628343 
L 388.779131 88.628343 
L 392.026001 84.826619 
L 395.272871 92.007663 
L 398.487273 93.343539 
" clip-path="url(#pfc6db8ac32)" style="fill: none; stroke-dasharray: 5.55,2.4; stroke-dashoffset: 0; stroke: #2ca02c; stroke-width: 1.5"/>
    <defs>
     <path id="md92266c15c" d="M 0 3 
C 0.795609 3 1.55874 2.683901 2.12132 2.12132 
C 2.683901 1.55874 3 0.795609 3 0 
C 3 -0.795609 2.683901 -1.55874 2.12132 -2.12132 
C 1.55874 -2.683901 0.795609 -3 0 -3 
C -0.795609 -3 -1.55874 -2.683901 -2.12132 -2.12132 
C -2.683901 -1.55874 -3 -0.795609 -3 0 
C -3 0.795609 -2.683901 1.55874 -2.12132 2.12132 
C -1.55874 2.683901 -0.795609 3 0 3 
z
" style="stroke: #2ca02c"/>
    </defs>
    <g clip-path="url(#pfc6db8ac32)">
     <use xlink:href="#md92266c15c" x="73.832727" y="202.046452" style="fill: #2ca02c; stroke: #2ca02c"/>
     <use xlink:href="#md92266c15c" x="77.079597" y="202.046452" style="fill: #2ca02c; stroke: #2ca02c"/>
     <use xlink:href="#md92266c15c" x="80.326468" y="217.886963" style="fill: #2ca02c; stroke: #2ca02c"/>
     <use xlink:href="#md92266c15c" x="83.573338" y="219.365413" style="fill: #2ca02c; stroke: #2ca02c"/>
     <use xlink:href="#md92266c15c" x="86.820208" y="206.904204" style="fill: #2ca02c; stroke: #2ca02c"/>
     <use xlink:href="#md92266c15c" x="90.067078" y="172.477485" style="fill: #2ca02c; stroke: #2ca02c"/>
     <use xlink:href="#md92266c15c" x="93.313948" y="148.399892" style="fill: #2ca02c; stroke: #2ca02c"/>
     <use xlink:href="#md92266c15c" x="96.560818" y="139.318004" style="fill: #2ca02c; stroke: #2ca02c"/>
     <use xlink:href="#md92266c15c" x="99.807688" y="115.874026" style="fill: #2ca02c; stroke: #2ca02c"/>
     <use xlink:href="#md92266c15c" x="103.054559" y="109.115422" style="fill: #2ca02c; stroke: #2ca02c"/>
     <use xlink:href="#md92266c15c" x="106.26896" y="106.316922" style="fill: #2ca02c; stroke: #2ca02c"/>
     <use xlink:href="#md92266c15c" x="106.301429" y="87.572306" style="fill: #2ca02c; stroke: #2ca02c"/>
     <use xlink:href="#md92266c15c" x="109.548299" y="87.572306" style="fill: #2ca02c; stroke: #2ca02c"/>
     <use xlink:href="#md92266c15c" x="112.795169" y="87.572306" style="fill: #2ca02c; stroke: #2ca02c"/>
     <use xlink:href="#md92266c15c" x="116.042039" y="92.85247" style="fill: #2ca02c; stroke: #2ca02c"/>
     <use xlink:href="#md92266c15c" x="119.288909" y="89.050746" style="fill: #2ca02c; stroke: #2ca02c"/>
     <use xlink:href="#md92266c15c" x="122.535779" y="92.85247" style="fill: #2ca02c; stroke: #2ca02c"/>
     <use xlink:href="#md92266c15c" x="125.78265" y="89.473168" style="fill: #2ca02c; stroke: #2ca02c"/>
     <use xlink:href="#md92266c15c" x="129.02952" y="90.951608" style="fill: #2ca02c; stroke: #2ca02c"/>
     <use xlink:href="#md92266c15c" x="132.27639" y="89.050746" style="fill: #2ca02c; stroke: #2ca02c"/>
     <use xlink:href="#md92266c15c" x="135.52326" y="90.951608" style="fill: #2ca02c; stroke: #2ca02c"/>
     <use xlink:href="#md92266c15c" x="138.737661" y="97.287828" style="fill: #2ca02c; stroke: #2ca02c"/>
     <use xlink:href="#md92266c15c" x="138.77013" y="89.050746" style="fill: #2ca02c; stroke: #2ca02c"/>
     <use xlink:href="#md92266c15c" x="142.017" y="89.050746" style="fill: #2ca02c; stroke: #2ca02c"/>
     <use xlink:href="#md92266c15c" x="145.26387" y="83.770582" style="fill: #2ca02c; stroke: #2ca02c"/>
     <use xlink:href="#md92266c15c" x="148.510741" y="87.149884" style="fill: #2ca02c; stroke: #2ca02c"/>
     <use xlink:href="#md92266c15c" x="151.757611" y="85.671444" style="fill: #2ca02c; stroke: #2ca02c"/>
     <use xlink:href="#md92266c15c" x="155.004481" y="83.34816" style="fill: #2ca02c; stroke: #2ca02c"/>
     <use xlink:href="#md92266c15c" x="158.251351" y="85.249022" style="fill: #2ca02c; stroke: #2ca02c"/>
     <use xlink:href="#md92266c15c" x="161.498221" y="81.86972" style="fill: #2ca02c; stroke: #2ca02c"/>
     <use xlink:href="#md92266c15c" x="164.745091" y="81.447298" style="fill: #2ca02c; stroke: #2ca02c"/>
     <use xlink:href="#md92266c15c" x="167.991961" y="81.447298" style="fill: #2ca02c; stroke: #2ca02c"/>
     <use xlink:href="#md92266c15c" x="171.206363" y="80.132547" style="fill: #2ca02c; stroke: #2ca02c"/>
     <use xlink:href="#md92266c15c" x="171.238832" y="73.210235" style="fill: #2ca02c; stroke: #2ca02c"/>
     <use xlink:href="#md92266c15c" x="174.485702" y="71.309373" style="fill: #2ca02c; stroke: #2ca02c"/>
     <use xlink:href="#md92266c15c" x="177.732572" y="79.968858" style="fill: #2ca02c; stroke: #2ca02c"/>
     <use xlink:href="#md92266c15c" x="180.979442" y="85.249022" style="fill: #2ca02c; stroke: #2ca02c"/>
     <use xlink:href="#md92266c15c" x="184.226312" y="79.968858" style="fill: #2ca02c; stroke: #2ca02c"/>
     <use xlink:href="#md92266c15c" x="187.473182" y="82.292142" style="fill: #2ca02c; stroke: #2ca02c"/>
     <use xlink:href="#md92266c15c" x="190.720052" y="78.490418" style="fill: #2ca02c; stroke: #2ca02c"/>
     <use xlink:href="#md92266c15c" x="193.966923" y="85.249022" style="fill: #2ca02c; stroke: #2ca02c"/>
     <use xlink:href="#md92266c15c" x="197.213793" y="81.86972" style="fill: #2ca02c; stroke: #2ca02c"/>
     <use xlink:href="#md92266c15c" x="200.460663" y="80.39128" style="fill: #2ca02c; stroke: #2ca02c"/>
     <use xlink:href="#md92266c15c" x="203.675064" y="81.795802" style="fill: #2ca02c; stroke: #2ca02c"/>
     <use xlink:href="#md92266c15c" x="203.707533" y="76.589556" style="fill: #2ca02c; stroke: #2ca02c"/>
     <use xlink:href="#md92266c15c" x="206.954403" y="82.292142" style="fill: #2ca02c; stroke: #2ca02c"/>
     <use xlink:href="#md92266c15c" x="210.201273" y="85.671444" style="fill: #2ca02c; stroke: #2ca02c"/>
     <use xlink:href="#md92266c15c" x="213.448143" y="76.589556" style="fill: #2ca02c; stroke: #2ca02c"/>
     <use xlink:href="#md92266c15c" x="216.695014" y="83.770582" style="fill: #2ca02c; stroke: #2ca02c"/>
     <use xlink:href="#md92266c15c" x="219.941884" y="89.473168" style="fill: #2ca02c; stroke: #2ca02c"/>
     <use xlink:href="#md92266c15c" x="223.188754" y="82.292142" style="fill: #2ca02c; stroke: #2ca02c"/>
     <use xlink:href="#md92266c15c" x="226.435624" y="89.473168" style="fill: #2ca02c; stroke: #2ca02c"/>
     <use xlink:href="#md92266c15c" x="229.682494" y="84.193004" style="fill: #2ca02c; stroke: #2ca02c"/>
     <use xlink:href="#md92266c15c" x="232.929364" y="85.671444" style="fill: #2ca02c; stroke: #2ca02c"/>
     <use xlink:href="#md92266c15c" x="236.143766" y="80.275112" style="fill: #2ca02c; stroke: #2ca02c"/>
     <use xlink:href="#md92266c15c" x="236.176234" y="94.753332" style="fill: #2ca02c; stroke: #2ca02c"/>
     <use xlink:href="#md92266c15c" x="239.423104" y="89.050746" style="fill: #2ca02c; stroke: #2ca02c"/>
     <use xlink:href="#md92266c15c" x="242.669975" y="92.85247" style="fill: #2ca02c; stroke: #2ca02c"/>
     <use xlink:href="#md92266c15c" x="245.916845" y="79.968858" style="fill: #2ca02c; stroke: #2ca02c"/>
     <use xlink:href="#md92266c15c" x="249.163715" y="76.589556" style="fill: #2ca02c; stroke: #2ca02c"/>
     <use xlink:href="#md92266c15c" x="252.410585" y="79.968858" style="fill: #2ca02c; stroke: #2ca02c"/>
     <use xlink:href="#md92266c15c" x="255.657455" y="74.688694" style="fill: #2ca02c; stroke: #2ca02c"/>
     <use xlink:href="#md92266c15c" x="258.904325" y="79.968858" style="fill: #2ca02c; stroke: #2ca02c"/>
     <use xlink:href="#md92266c15c" x="262.151195" y="78.067996" style="fill: #2ca02c; stroke: #2ca02c"/>
     <use xlink:href="#md92266c15c" x="265.398066" y="83.770582" style="fill: #2ca02c; stroke: #2ca02c"/>
     <use xlink:href="#md92266c15c" x="268.612467" y="83.364013" style="fill: #2ca02c; stroke: #2ca02c"/>
     <use xlink:href="#md92266c15c" x="268.644936" y="79.968858" style="fill: #2ca02c; stroke: #2ca02c"/>
     <use xlink:href="#md92266c15c" x="271.891806" y="83.34816" style="fill: #2ca02c; stroke: #2ca02c"/>
     <use xlink:href="#md92266c15c" x="275.138676" y="81.86972" style="fill: #2ca02c; stroke: #2ca02c"/>
     <use xlink:href="#md92266c15c" x="278.385546" y="79.968858" style="fill: #2ca02c; stroke: #2ca02c"/>
     <use xlink:href="#md92266c15c" x="281.632416" y="89.050746" style="fill: #2ca02c; stroke: #2ca02c"/>
     <use xlink:href="#md92266c15c" x="284.879286" y="78.490418" style="fill: #2ca02c; stroke: #2ca02c"/>
     <use xlink:href="#md92266c15c" x="288.126157" y="83.770582" style="fill: #2ca02c; stroke: #2ca02c"/>
     <use xlink:href="#md92266c15c" x="291.373027" y="85.671444" style="fill: #2ca02c; stroke: #2ca02c"/>
     <use xlink:href="#md92266c15c" x="294.619897" y="87.572306" style="fill: #2ca02c; stroke: #2ca02c"/>
     <use xlink:href="#md92266c15c" x="297.866767" y="81.86972" style="fill: #2ca02c; stroke: #2ca02c"/>
     <use xlink:href="#md92266c15c" x="301.081168" y="90.63481" style="fill: #2ca02c; stroke: #2ca02c"/>
     <use xlink:href="#md92266c15c" x="301.113637" y="85.671444" style="fill: #2ca02c; stroke: #2ca02c"/>
     <use xlink:href="#md92266c15c" x="304.360507" y="85.249022" style="fill: #2ca02c; stroke: #2ca02c"/>
     <use xlink:href="#md92266c15c" x="307.607377" y="87.149884" style="fill: #2ca02c; stroke: #2ca02c"/>
     <use xlink:href="#md92266c15c" x="310.854248" y="85.671444" style="fill: #2ca02c; stroke: #2ca02c"/>
     <use xlink:href="#md92266c15c" x="314.101118" y="90.529205" style="fill: #2ca02c; stroke: #2ca02c"/>
     <use xlink:href="#md92266c15c" x="317.347988" y="90.106801" style="fill: #2ca02c; stroke: #2ca02c"/>
     <use xlink:href="#md92266c15c" x="320.594858" y="82.292142" style="fill: #2ca02c; stroke: #2ca02c"/>
     <use xlink:href="#md92266c15c" x="323.841728" y="87.149884" style="fill: #2ca02c; stroke: #2ca02c"/>
     <use xlink:href="#md92266c15c" x="327.088598" y="85.249022" style="fill: #2ca02c; stroke: #2ca02c"/>
     <use xlink:href="#md92266c15c" x="330.335468" y="87.149884" style="fill: #2ca02c; stroke: #2ca02c"/>
     <use xlink:href="#md92266c15c" x="333.54987" y="93.200974" style="fill: #2ca02c; stroke: #2ca02c"/>
     <use xlink:href="#md92266c15c" x="333.582339" y="87.149884" style="fill: #2ca02c; stroke: #2ca02c"/>
     <use xlink:href="#md92266c15c" x="336.829209" y="85.249022" style="fill: #2ca02c; stroke: #2ca02c"/>
     <use xlink:href="#md92266c15c" x="340.076079" y="83.770582" style="fill: #2ca02c; stroke: #2ca02c"/>
     <use xlink:href="#md92266c15c" x="343.322949" y="85.249022" style="fill: #2ca02c; stroke: #2ca02c"/>
     <use xlink:href="#md92266c15c" x="346.569819" y="85.249022" style="fill: #2ca02c; stroke: #2ca02c"/>
     <use xlink:href="#md92266c15c" x="349.816689" y="83.770582" style="fill: #2ca02c; stroke: #2ca02c"/>
     <use xlink:href="#md92266c15c" x="353.063559" y="85.249022" style="fill: #2ca02c; stroke: #2ca02c"/>
     <use xlink:href="#md92266c15c" x="356.31043" y="85.249022" style="fill: #2ca02c; stroke: #2ca02c"/>
     <use xlink:href="#md92266c15c" x="359.5573" y="89.050746" style="fill: #2ca02c; stroke: #2ca02c"/>
     <use xlink:href="#md92266c15c" x="362.80417" y="85.249022" style="fill: #2ca02c; stroke: #2ca02c"/>
     <use xlink:href="#md92266c15c" x="366.018571" y="94.389013" style="fill: #2ca02c; stroke: #2ca02c"/>
     <use xlink:href="#md92266c15c" x="366.05104" y="83.34816" style="fill: #2ca02c; stroke: #2ca02c"/>
     <use xlink:href="#md92266c15c" x="369.29791" y="83.34816" style="fill: #2ca02c; stroke: #2ca02c"/>
     <use xlink:href="#md92266c15c" x="372.54478" y="87.149884" style="fill: #2ca02c; stroke: #2ca02c"/>
     <use xlink:href="#md92266c15c" x="375.79165" y="90.529205" style="fill: #2ca02c; stroke: #2ca02c"/>
     <use xlink:href="#md92266c15c" x="379.038521" y="87.149884" style="fill: #2ca02c; stroke: #2ca02c"/>
     <use xlink:href="#md92266c15c" x="382.285391" y="88.628343" style="fill: #2ca02c; stroke: #2ca02c"/>
     <use xlink:href="#md92266c15c" x="385.532261" y="88.628343" style="fill: #2ca02c; stroke: #2ca02c"/>
     <use xlink:href="#md92266c15c" x="388.779131" y="88.628343" style="fill: #2ca02c; stroke: #2ca02c"/>
     <use xlink:href="#md92266c15c" x="392.026001" y="84.826619" style="fill: #2ca02c; stroke: #2ca02c"/>
     <use xlink:href="#md92266c15c" x="395.272871" y="92.007663" style="fill: #2ca02c; stroke: #2ca02c"/>
     <use xlink:href="#md92266c15c" x="398.487273" y="93.343539" style="fill: #2ca02c; stroke: #2ca02c"/>
    </g>
   </g>
   <g id="line2d_16">
    <path d="M 73.832727 140.796444 
L 77.079597 153.257653 
L 80.326468 160.438689 
L 83.573338 149.455929 
L 86.820208 162.973174 
L 90.067078 130.869712 
L 93.313948 115.451604 
L 96.560818 85.249022 
L 99.807688 74.688694 
L 103.054559 62.227466 
L 106.26896 68.727375 
L 106.301429 62.227466 
L 109.548299 62.227466 
L 112.795169 62.227466 
L 116.042039 60.326604 
L 119.288909 60.326604 
L 122.535779 60.326604 
L 125.78265 60.326604 
L 129.02952 60.326604 
L 132.27639 60.326604 
L 135.52326 60.326604 
L 138.737661 60.363582 
L 138.77013 60.326604 
L 142.017 60.326604 
L 145.26387 62.227466 
L 148.510741 60.326604 
L 151.757611 53.568 
L 155.004481 53.568 
L 158.251351 53.568 
L 161.498221 53.568 
L 164.745091 53.568 
L 167.991961 53.568 
L 171.206363 53.805608 
L 171.238832 53.568 
L 174.485702 53.568 
L 177.732572 53.568 
L 180.979442 53.568 
L 184.226312 53.568 
L 187.473182 53.568 
L 190.720052 53.568 
L 193.966923 53.568 
L 197.213793 53.568 
L 200.460663 53.568 
L 203.675064 54.993647 
L 203.707533 53.568 
L 206.954403 53.568 
L 210.201273 53.568 
L 213.448143 53.568 
L 216.695014 53.568 
L 219.941884 53.568 
L 223.188754 53.568 
L 226.435624 53.568 
L 229.682494 53.568 
L 232.929364 53.568 
L 236.143766 53.568 
L 236.176234 53.568 
L 239.423104 53.568 
L 242.669975 53.568 
L 245.916845 53.568 
L 249.163715 53.568 
L 252.410585 53.568 
L 255.657455 53.568 
L 258.904325 53.568 
L 262.151195 53.568 
L 265.398066 53.568 
L 268.612467 55.70647 
L 268.644936 53.568 
L 271.891806 53.568 
L 275.138676 53.568 
L 278.385546 53.568 
L 281.632416 53.568 
L 284.879286 53.568 
L 288.126157 53.568 
L 291.373027 53.568 
L 294.619897 53.568 
L 297.866767 53.568 
L 301.081168 56.656901 
L 301.113637 55.468862 
L 304.360507 55.468862 
L 307.607377 55.468862 
L 310.854248 55.468862 
L 314.101118 55.468862 
L 317.347988 55.468862 
L 320.594858 55.468862 
L 323.841728 55.468862 
L 327.088598 55.468862 
L 330.335468 55.468862 
L 333.54987 58.082547 
L 333.582339 55.468862 
L 336.829209 55.468862 
L 340.076079 55.468862 
L 343.322949 55.468862 
L 346.569819 55.468862 
L 349.816689 55.468862 
L 353.063559 55.468862 
L 356.31043 55.468862 
L 359.5573 55.468862 
L 362.80417 55.468862 
L 366.018571 58.320155 
L 366.05104 55.468862 
L 369.29791 55.468862 
L 372.54478 55.468862 
L 375.79165 55.468862 
L 379.038521 55.468862 
L 382.285391 55.468862 
L 385.532261 55.468862 
L 388.779131 55.468862 
L 392.026001 55.468862 
L 395.272871 55.468862 
L 398.487273 59.270586 
" clip-path="url(#pfc6db8ac32)" style="fill: none; stroke-dasharray: 5.55,2.4; stroke-dashoffset: 0; stroke: #d62728; stroke-width: 1.5"/>
   </g>
   <g id="line2d_17">
    <path d="M 73.832727 131.832828 
L 77.079597 148.980414 
L 80.326468 211.459034 
L 83.573338 248.592828 
L 86.820208 271.872918 
L 90.067078 278.166621 
L 93.313948 277.819034 
L 96.560818 283.745825 
L 99.807688 282.766345 
L 103.054559 287.281103 
L 106.26896 287.847446 
L 106.301429 288.220288 
L 109.548299 290.552276 
L 112.795169 290.035241 
L 116.042039 288.500727 
L 119.288909 288.666621 
L 122.535779 288.531448 
L 125.78265 290.013517 
L 129.02952 290.18731 
L 132.27639 290.726069 
L 135.52326 289.629724 
L 138.737661 291.358901 
L 138.77013 289.984552 
L 142.017 288.941793 
L 145.26387 291.890483 
L 148.510741 292.316276 
L 151.757611 291.403862 
L 155.004481 291.525517 
L 158.251351 292.012138 
L 161.498221 292.620414 
L 164.745091 294.141103 
L 167.991961 294.141103 
L 171.206363 293.281607 
M 177.732572 293.431448 
M 184.226312 294.901448 
M 190.720052 294.445241 
L 193.966923 295.488 
L 197.213793 294.850759 
L 200.460663 295.357655 
L 203.675064 293.127426 
L 203.707533 293.836966 
L 206.954403 293.289517 
L 210.201273 293.066483 
L 213.448143 293.566621 
L 216.695014 293.938345 
L 219.941884 287.754207 
L 223.188754 293.472 
L 226.435624 290.100414 
L 229.682494 291.860069 
L 232.929364 293.22869 
L 236.143766 293.626362 
L 236.176234 291.403862 
L 239.423104 292.620414 
L 242.669975 292.417655 
L 245.916845 292.417655 
L 249.163715 293.402483 
L 252.410585 293.576276 
L 255.657455 293.836966 
L 258.904325 293.402483 
L 262.151195 294.705931 
L 265.398066 293.684897 
L 268.612467 292.993773 
L 268.644936 293.076621 
L 271.891806 293.22869 
L 275.138676 294.377655 
L 278.385546 294.310069 
L 281.632416 293.786276 
L 284.879286 293.22869 
L 288.126157 294.097655 
L 291.373027 293.22869 
L 294.619897 293.402483 
L 297.866767 292.985379 
L 301.081168 291.83225 
L 301.113637 293.098345 
L 304.360507 292.282483 
L 307.607377 292.811586 
L 310.854248 293.025931 
L 314.101118 292.394483 
L 317.347988 293.12731 
L 320.594858 292.772483 
L 323.841728 292.606897 
L 327.088598 292.59 
L 330.335468 292.890759 
L 333.54987 291.848947 
L 333.582339 292.837655 
L 336.829209 292.863724 
L 340.076079 293.289517 
L 343.322949 291.456 
L 346.569819 293.593655 
L 349.816689 290.969379 
L 353.063559 292.417655 
L 356.31043 292.519034 
L 359.5573 291.728276 
L 362.80417 293.22869 
L 366.018571 291.451321 
L 366.05104 292.772483 
L 369.29791 291.708 
L 372.54478 292.958345 
L 375.79165 290.534897 
L 379.038521 292.552828 
L 382.285391 292.214897 
L 385.532261 292.772483 
L 388.779131 292.823172 
L 392.026001 293.093517 
L 395.272871 292.681241 
L 398.487273 291.762994 
" clip-path="url(#pfc6db8ac32)" style="fill: none; stroke: #9467bd; stroke-width: 1.5; stroke-linecap: square"/>
   </g>
   <g id="line2d_18">
    <path d="M 73.832727 120.241793 
L 77.079597 145.823172 
L 80.326468 224.645586 
L 83.573338 258.03833 
L 86.820208 269.581966 
L 90.067078 278.218313 
L 93.313948 279.846621 
L 96.560818 286.61369 
L 99.807688 287.090633 
L 103.054559 290.505931 
L 106.26896 288.617858 
L 106.301429 288.261103 
L 109.548299 289.325586 
L 112.795169 290.28869 
L 116.042039 291.160552 
L 119.288909 290.491448 
L 122.535779 289.761517 
L 125.78265 290.552276 
L 129.02952 289.950759 
L 132.27639 289.426966 
L 135.52326 289.30869 
L 138.737661 291.156729 
L 138.77013 288.970759 
L 142.017 289.122828 
L 145.26387 289.173517 
L 148.510741 289.057655 
L 151.757611 289.518207 
L 155.004481 288.605793 
L 158.251351 290.390069 
L 161.498221 290.633379 
L 164.745091 290.390069 
L 167.991961 290.592828 
L 171.206363 292.940729 
L 171.238832 292.012138 
L 174.485702 292.012138 
L 177.732572 289.579034 
L 180.979442 291.809379 
L 184.226312 291.282207 
L 187.473182 292.468345 
L 190.720052 292.214897 
L 193.966923 292.012138 
L 197.213793 291.079448 
L 200.460663 291.577655 
L 203.675064 293.029426 
L 203.707533 289.518207 
L 206.954403 290.947655 
L 210.201273 291.616759 
L 213.448143 292.072966 
L 216.695014 291.247448 
L 219.941884 291.768828 
L 223.188754 290.795586 
L 226.435624 292.498759 
L 229.682494 292.214897 
L 232.929364 292.072966 
L 236.143766 293.59461 
L 236.176234 292.989066 
L 239.423104 291.860069 
L 242.669975 292.823172 
L 245.916845 290.552276 
L 249.163715 290.369793 
L 252.410585 290.308966 
L 255.657455 289.579034 
L 258.904325 291.282207 
L 262.151195 288.970759 
L 265.398066 291.386483 
L 268.612467 293.314023 
L 268.644936 290.552276 
L 271.891806 291.403862 
L 275.138676 291.160552 
L 278.385546 289.822345 
L 281.632416 292.012138 
L 284.879286 289.883172 
L 288.126157 291.108414 
L 291.373027 291.282207 
L 294.619897 291.417379 
L 297.866767 289.984552 
L 301.081168 292.256513 
L 301.113637 291.143172 
L 304.360507 289.862897 
L 307.607377 290.795586 
L 310.854248 290.899862 
L 314.101118 291.577655 
L 317.347988 290.795586 
L 320.594858 290.665241 
L 323.841728 290.998345 
L 327.088598 290.957793 
L 330.335468 291.809379 
L 333.54987 291.812437 
L 333.582339 290.998345 
L 336.829209 290.917241 
L 340.076079 290.795586 
L 343.322949 291.201103 
L 346.569819 291.566069 
L 349.816689 291.282207 
L 353.063559 290.714483 
L 356.31043 291.36331 
L 359.5573 292.099034 
L 362.80417 290.87669 
L 366.018571 291.520658 
L 366.05104 290.896966 
L 369.29791 289.984552 
L 372.54478 292.417655 
L 375.79165 292.243862 
L 379.038521 292.417655 
L 382.285391 291.942621 
L 385.532261 291.838345 
L 388.779131 291.942621 
L 392.026001 289.752828 
L 395.272871 291.920897 
L 398.487273 291.270424 
" clip-path="url(#pfc6db8ac32)" style="fill: none; stroke: #8c564b; stroke-width: 1.5; stroke-linecap: square"/>
   </g>
   <g id="patch_3">
    <path d="M 57.6 307.584 
L 57.6 41.472 
" style="fill: none; stroke: #000000; stroke-width: 0.8; stroke-linejoin: miter; stroke-linecap: square"/>
   </g>
   <g id="patch_4">
    <path d="M 414.72 307.584 
L 414.72 41.472 
" style="fill: none; stroke: #000000; stroke-width: 0.8; stroke-linejoin: miter; stroke-linecap: square"/>
   </g>
   <g id="patch_5">
    <path d="M 57.6 307.584 
L 414.72 307.584 
" style="fill: none; stroke: #000000; stroke-width: 0.8; stroke-linejoin: miter; stroke-linecap: square"/>
   </g>
   <g id="patch_6">
    <path d="M 57.6 41.472 
L 414.72 41.472 
" style="fill: none; stroke: #000000; stroke-width: 0.8; stroke-linejoin: miter; stroke-linecap: square"/>
   </g>
   <g id="legend_1">
    <g id="patch_7">
     <path d="M 299.368438 220.062375 
L 407.72 220.062375 
Q 409.72 220.062375 409.72 218.062375 
L 409.72 130.993625 
Q 409.72 128.993625 407.72 128.993625 
L 299.368438 128.993625 
Q 297.368438 128.993625 297.368438 130.993625 
L 297.368438 218.062375 
Q 297.368438 220.062375 299.368438 220.062375 
z
" style="fill: #ffffff; opacity: 0.8; stroke: #cccccc; stroke-linejoin: miter"/>
    </g>
    <g id="line2d_19">
     <path d="M 301.368438 137.092062 
L 311.368438 137.092062 
L 321.368438 137.092062 
" style="fill: none; stroke: #1f77b4; stroke-width: 1.5; stroke-linecap: square"/>
     <g>
      <use xlink:href="#m6c9f6f97d7" x="311.368438" y="137.092062" style="fill: #1f77b4; stroke: #1f77b4"/>
     </g>
    </g>
    <g id="text_13">
     <!-- top1 (test) -->
     <g transform="translate(329.368438 140.592062) scale(0.1 -0.1)">
      <defs>
       <path id="DejaVuSans-74" d="M 1172 4494 
L 1172 3500 
L 2356 3500 
L 2356 3053 
L 1172 3053 
L 1172 1153 
Q 1172 725 1289 603 
Q 1406 481 1766 481 
L 2356 481 
L 2356 0 
L 1766 0 
Q 1100 0 847 248 
Q 594 497 594 1153 
L 594 3053 
L 172 3053 
L 172 3500 
L 594 3500 
L 594 4494 
L 1172 4494 
z
" transform="scale(0.015625)"/>
       <path id="DejaVuSans-6f" d="M 1959 3097 
Q 1497 3097 1228 2736 
Q 959 2375 959 1747 
Q 959 1119 1226 758 
Q 1494 397 1959 397 
Q 2419 397 2687 759 
Q 2956 1122 2956 1747 
Q 2956 2369 2687 2733 
Q 2419 3097 1959 3097 
z
M 1959 3584 
Q 2709 3584 3137 3096 
Q 3566 2609 3566 1747 
Q 3566 888 3137 398 
Q 2709 -91 1959 -91 
Q 1206 -91 779 398 
Q 353 888 353 1747 
Q 353 2609 779 3096 
Q 1206 3584 1959 3584 
z
" transform="scale(0.015625)"/>
       <path id="DejaVuSans-70" d="M 1159 525 
L 1159 -1331 
L 581 -1331 
L 581 3500 
L 1159 3500 
L 1159 2969 
Q 1341 3281 1617 3432 
Q 1894 3584 2278 3584 
Q 2916 3584 3314 3078 
Q 3713 2572 3713 1747 
Q 3713 922 3314 415 
Q 2916 -91 2278 -91 
Q 1894 -91 1617 61 
Q 1341 213 1159 525 
z
M 3116 1747 
Q 3116 2381 2855 2742 
Q 2594 3103 2138 3103 
Q 1681 3103 1420 2742 
Q 1159 2381 1159 1747 
Q 1159 1113 1420 752 
Q 1681 391 2138 391 
Q 2594 391 2855 752 
Q 3116 1113 3116 1747 
z
" transform="scale(0.015625)"/>
       <path id="DejaVuSans-20" transform="scale(0.015625)"/>
       <path id="DejaVuSans-28" d="M 1984 4856 
Q 1566 4138 1362 3434 
Q 1159 2731 1159 2009 
Q 1159 1288 1364 580 
Q 1569 -128 1984 -844 
L 1484 -844 
Q 1016 -109 783 600 
Q 550 1309 550 2009 
Q 550 2706 781 3412 
Q 1013 4119 1484 4856 
L 1984 4856 
z
" transform="scale(0.015625)"/>
       <path id="DejaVuSans-65" d="M 3597 1894 
L 3597 1613 
L 953 1613 
Q 991 1019 1311 708 
Q 1631 397 2203 397 
Q 2534 397 2845 478 
Q 3156 559 3463 722 
L 3463 178 
Q 3153 47 2828 -22 
Q 2503 -91 2169 -91 
Q 1331 -91 842 396 
Q 353 884 353 1716 
Q 353 2575 817 3079 
Q 1281 3584 2069 3584 
Q 2775 3584 3186 3129 
Q 3597 2675 3597 1894 
z
M 3022 2063 
Q 3016 2534 2758 2815 
Q 2500 3097 2075 3097 
Q 1594 3097 1305 2825 
Q 1016 2553 972 2059 
L 3022 2063 
z
" transform="scale(0.015625)"/>
       <path id="DejaVuSans-73" d="M 2834 3397 
L 2834 2853 
Q 2591 2978 2328 3040 
Q 2066 3103 1784 3103 
Q 1356 3103 1142 2972 
Q 928 2841 928 2578 
Q 928 2378 1081 2264 
Q 1234 2150 1697 2047 
L 1894 2003 
Q 2506 1872 2764 1633 
Q 3022 1394 3022 966 
Q 3022 478 2636 193 
Q 2250 -91 1575 -91 
Q 1294 -91 989 -36 
Q 684 19 347 128 
L 347 722 
Q 666 556 975 473 
Q 1284 391 1588 391 
Q 1994 391 2212 530 
Q 2431 669 2431 922 
Q 2431 1156 2273 1281 
Q 2116 1406 1581 1522 
L 1381 1569 
Q 847 1681 609 1914 
Q 372 2147 372 2553 
Q 372 3047 722 3315 
Q 1072 3584 1716 3584 
Q 2034 3584 2315 3537 
Q 2597 3491 2834 3397 
z
" transform="scale(0.015625)"/>
       <path id="DejaVuSans-29" d="M 513 4856 
L 1013 4856 
Q 1481 4119 1714 3412 
Q 1947 2706 1947 2009 
Q 1947 1309 1714 600 
Q 1481 -109 1013 -844 
L 513 -844 
Q 928 -128 1133 580 
Q 1338 1288 1338 2009 
Q 1338 2731 1133 3434 
Q 928 4138 513 4856 
z
" transform="scale(0.015625)"/>
      </defs>
      <use xlink:href="#DejaVuSans-74"/>
      <use xlink:href="#DejaVuSans-6f" transform="translate(39.208984 0)"/>
      <use xlink:href="#DejaVuSans-70" transform="translate(100.390625 0)"/>
      <use xlink:href="#DejaVuSans-31" transform="translate(163.867188 0)"/>
      <use xlink:href="#DejaVuSans-20" transform="translate(227.490234 0)"/>
      <use xlink:href="#DejaVuSans-28" transform="translate(259.277344 0)"/>
      <use xlink:href="#DejaVuSans-74" transform="translate(298.291016 0)"/>
      <use xlink:href="#DejaVuSans-65" transform="translate(337.5 0)"/>
      <use xlink:href="#DejaVuSans-73" transform="translate(399.023438 0)"/>
      <use xlink:href="#DejaVuSans-74" transform="translate(451.123047 0)"/>
      <use xlink:href="#DejaVuSans-29" transform="translate(490.332031 0)"/>
     </g>
    </g>
    <g id="line2d_20">
     <path d="M 301.368438 151.770187 
L 311.368438 151.770187 
L 321.368438 151.770187 
" style="fill: none; stroke: #ff7f0e; stroke-width: 1.5; stroke-linecap: square"/>
    </g>
    <g id="text_14">
     <!-- top3 (test) -->
     <g transform="translate(329.368438 155.270187) scale(0.1 -0.1)">
      <defs>
       <path id="DejaVuSans-33" d="M 2597 2516 
Q 3050 2419 3304 2112 
Q 3559 1806 3559 1356 
Q 3559 666 3084 287 
Q 2609 -91 1734 -91 
Q 1441 -91 1130 -33 
Q 819 25 488 141 
L 488 750 
Q 750 597 1062 519 
Q 1375 441 1716 441 
Q 2309 441 2620 675 
Q 2931 909 2931 1356 
Q 2931 1769 2642 2001 
Q 2353 2234 1838 2234 
L 1294 2234 
L 1294 2753 
L 1863 2753 
Q 2328 2753 2575 2939 
Q 2822 3125 2822 3475 
Q 2822 3834 2567 4026 
Q 2313 4219 1838 4219 
Q 1578 4219 1281 4162 
Q 984 4106 628 3988 
L 628 4550 
Q 988 4650 1302 4700 
Q 1616 4750 1894 4750 
Q 2613 4750 3031 4423 
Q 3450 4097 3450 3541 
Q 3450 3153 3228 2886 
Q 3006 2619 2597 2516 
z
" transform="scale(0.015625)"/>
      </defs>
      <use xlink:href="#DejaVuSans-74"/>
      <use xlink:href="#DejaVuSans-6f" transform="translate(39.208984 0)"/>
      <use xlink:href="#DejaVuSans-70" transform="translate(100.390625 0)"/>
      <use xlink:href="#DejaVuSans-33" transform="translate(163.867188 0)"/>
      <use xlink:href="#DejaVuSans-20" transform="translate(227.490234 0)"/>
      <use xlink:href="#DejaVuSans-28" transform="translate(259.277344 0)"/>
      <use xlink:href="#DejaVuSans-74" transform="translate(298.291016 0)"/>
      <use xlink:href="#DejaVuSans-65" transform="translate(337.5 0)"/>
      <use xlink:href="#DejaVuSans-73" transform="translate(399.023438 0)"/>
      <use xlink:href="#DejaVuSans-74" transform="translate(451.123047 0)"/>
      <use xlink:href="#DejaVuSans-29" transform="translate(490.332031 0)"/>
     </g>
    </g>
    <g id="line2d_21">
     <path d="M 301.368438 166.448312 
L 311.368438 166.448312 
L 321.368438 166.448312 
" style="fill: none; stroke-dasharray: 5.55,2.4; stroke-dashoffset: 0; stroke: #2ca02c; stroke-width: 1.5"/>
     <g>
      <use xlink:href="#md92266c15c" x="311.368438" y="166.448312" style="fill: #2ca02c; stroke: #2ca02c"/>
     </g>
    </g>
    <g id="text_15">
     <!-- top1 (train) -->
     <g transform="translate(329.368438 169.948312) scale(0.1 -0.1)">
      <defs>
       <path id="DejaVuSans-72" d="M 2631 2963 
Q 2534 3019 2420 3045 
Q 2306 3072 2169 3072 
Q 1681 3072 1420 2755 
Q 1159 2438 1159 1844 
L 1159 0 
L 581 0 
L 581 3500 
L 1159 3500 
L 1159 2956 
Q 1341 3275 1631 3429 
Q 1922 3584 2338 3584 
Q 2397 3584 2469 3576 
Q 2541 3569 2628 3553 
L 2631 2963 
z
" transform="scale(0.015625)"/>
       <path id="DejaVuSans-61" d="M 2194 1759 
Q 1497 1759 1228 1600 
Q 959 1441 959 1056 
Q 959 750 1161 570 
Q 1363 391 1709 391 
Q 2188 391 2477 730 
Q 2766 1069 2766 1631 
L 2766 1759 
L 2194 1759 
z
M 3341 1997 
L 3341 0 
L 2766 0 
L 2766 531 
Q 2569 213 2275 61 
Q 1981 -91 1556 -91 
Q 1019 -91 701 211 
Q 384 513 384 1019 
Q 384 1609 779 1909 
Q 1175 2209 1959 2209 
L 2766 2209 
L 2766 2266 
Q 2766 2663 2505 2880 
Q 2244 3097 1772 3097 
Q 1472 3097 1187 3025 
Q 903 2953 641 2809 
L 641 3341 
Q 956 3463 1253 3523 
Q 1550 3584 1831 3584 
Q 2591 3584 2966 3190 
Q 3341 2797 3341 1997 
z
" transform="scale(0.015625)"/>
       <path id="DejaVuSans-69" d="M 603 3500 
L 1178 3500 
L 1178 0 
L 603 0 
L 603 3500 
z
M 603 4863 
L 1178 4863 
L 1178 4134 
L 603 4134 
L 603 4863 
z
" transform="scale(0.015625)"/>
       <path id="DejaVuSans-6e" d="M 3513 2113 
L 3513 0 
L 2938 0 
L 2938 2094 
Q 2938 2591 2744 2837 
Q 2550 3084 2163 3084 
Q 1697 3084 1428 2787 
Q 1159 2491 1159 1978 
L 1159 0 
L 581 0 
L 581 3500 
L 1159 3500 
L 1159 2956 
Q 1366 3272 1645 3428 
Q 1925 3584 2291 3584 
Q 2894 3584 3203 3211 
Q 3513 2838 3513 2113 
z
" transform="scale(0.015625)"/>
      </defs>
      <use xlink:href="#DejaVuSans-74"/>
      <use xlink:href="#DejaVuSans-6f" transform="translate(39.208984 0)"/>
      <use xlink:href="#DejaVuSans-70" transform="translate(100.390625 0)"/>
      <use xlink:href="#DejaVuSans-31" transform="translate(163.867188 0)"/>
      <use xlink:href="#DejaVuSans-20" transform="translate(227.490234 0)"/>
      <use xlink:href="#DejaVuSans-28" transform="translate(259.277344 0)"/>
      <use xlink:href="#DejaVuSans-74" transform="translate(298.291016 0)"/>
      <use xlink:href="#DejaVuSans-72" transform="translate(337.5 0)"/>
      <use xlink:href="#DejaVuSans-61" transform="translate(378.613281 0)"/>
      <use xlink:href="#DejaVuSans-69" transform="translate(439.892578 0)"/>
      <use xlink:href="#DejaVuSans-6e" transform="translate(467.675781 0)"/>
      <use xlink:href="#DejaVuSans-29" transform="translate(531.054688 0)"/>
     </g>
    </g>
    <g id="line2d_22">
     <path d="M 301.368438 181.126438 
L 311.368438 181.126438 
L 321.368438 181.126438 
" style="fill: none; stroke-dasharray: 5.55,2.4; stroke-dashoffset: 0; stroke: #d62728; stroke-width: 1.5"/>
    </g>
    <g id="text_16">
     <!-- top3 (train) -->
     <g transform="translate(329.368438 184.626438) scale(0.1 -0.1)">
      <use xlink:href="#DejaVuSans-74"/>
      <use xlink:href="#DejaVuSans-6f" transform="translate(39.208984 0)"/>
      <use xlink:href="#DejaVuSans-70" transform="translate(100.390625 0)"/>
      <use xlink:href="#DejaVuSans-33" transform="translate(163.867188 0)"/>
      <use xlink:href="#DejaVuSans-20" transform="translate(227.490234 0)"/>
      <use xlink:href="#DejaVuSans-28" transform="translate(259.277344 0)"/>
      <use xlink:href="#DejaVuSans-74" transform="translate(298.291016 0)"/>
      <use xlink:href="#DejaVuSans-72" transform="translate(337.5 0)"/>
      <use xlink:href="#DejaVuSans-61" transform="translate(378.613281 0)"/>
      <use xlink:href="#DejaVuSans-69" transform="translate(439.892578 0)"/>
      <use xlink:href="#DejaVuSans-6e" transform="translate(467.675781 0)"/>
      <use xlink:href="#DejaVuSans-29" transform="translate(531.054688 0)"/>
     </g>
    </g>
    <g id="line2d_23">
     <path d="M 301.368438 195.804563 
L 311.368438 195.804563 
L 321.368438 195.804563 
" style="fill: none; stroke: #9467bd; stroke-width: 1.5; stroke-linecap: square"/>
    </g>
    <g id="text_17">
     <!-- top2 diff (test) -->
     <g transform="translate(329.368438 199.304563) scale(0.1 -0.1)">
      <defs>
       <path id="DejaVuSans-64" d="M 2906 2969 
L 2906 4863 
L 3481 4863 
L 3481 0 
L 2906 0 
L 2906 525 
Q 2725 213 2448 61 
Q 2172 -91 1784 -91 
Q 1150 -91 751 415 
Q 353 922 353 1747 
Q 353 2572 751 3078 
Q 1150 3584 1784 3584 
Q 2172 3584 2448 3432 
Q 2725 3281 2906 2969 
z
M 947 1747 
Q 947 1113 1208 752 
Q 1469 391 1925 391 
Q 2381 391 2643 752 
Q 2906 1113 2906 1747 
Q 2906 2381 2643 2742 
Q 2381 3103 1925 3103 
Q 1469 3103 1208 2742 
Q 947 2381 947 1747 
z
" transform="scale(0.015625)"/>
       <path id="DejaVuSans-66" d="M 2375 4863 
L 2375 4384 
L 1825 4384 
Q 1516 4384 1395 4259 
Q 1275 4134 1275 3809 
L 1275 3500 
L 2222 3500 
L 2222 3053 
L 1275 3053 
L 1275 0 
L 697 0 
L 697 3053 
L 147 3053 
L 147 3500 
L 697 3500 
L 697 3744 
Q 697 4328 969 4595 
Q 1241 4863 1831 4863 
L 2375 4863 
z
" transform="scale(0.015625)"/>
      </defs>
      <use xlink:href="#DejaVuSans-74"/>
      <use xlink:href="#DejaVuSans-6f" transform="translate(39.208984 0)"/>
      <use xlink:href="#DejaVuSans-70" transform="translate(100.390625 0)"/>
      <use xlink:href="#DejaVuSans-32" transform="translate(163.867188 0)"/>
      <use xlink:href="#DejaVuSans-20" transform="translate(227.490234 0)"/>
      <use xlink:href="#DejaVuSans-64" transform="translate(259.277344 0)"/>
      <use xlink:href="#DejaVuSans-69" transform="translate(322.753906 0)"/>
      <use xlink:href="#DejaVuSans-66" transform="translate(350.537109 0)"/>
      <use xlink:href="#DejaVuSans-66" transform="translate(385.742188 0)"/>
      <use xlink:href="#DejaVuSans-20" transform="translate(420.947266 0)"/>
      <use xlink:href="#DejaVuSans-28" transform="translate(452.734375 0)"/>
      <use xlink:href="#DejaVuSans-74" transform="translate(491.748047 0)"/>
      <use xlink:href="#DejaVuSans-65" transform="translate(530.957031 0)"/>
      <use xlink:href="#DejaVuSans-73" transform="translate(592.480469 0)"/>
      <use xlink:href="#DejaVuSans-74" transform="translate(644.580078 0)"/>
      <use xlink:href="#DejaVuSans-29" transform="translate(683.789062 0)"/>
     </g>
    </g>
    <g id="line2d_24">
     <path d="M 301.368438 210.482687 
L 311.368438 210.482687 
L 321.368438 210.482687 
" style="fill: none; stroke: #8c564b; stroke-width: 1.5; stroke-linecap: square"/>
    </g>
    <g id="text_18">
     <!-- top2 diff (train) -->
     <g transform="translate(329.368438 213.982687) scale(0.1 -0.1)">
      <use xlink:href="#DejaVuSans-74"/>
      <use xlink:href="#DejaVuSans-6f" transform="translate(39.208984 0)"/>
      <use xlink:href="#DejaVuSans-70" transform="translate(100.390625 0)"/>
      <use xlink:href="#DejaVuSans-32" transform="translate(163.867188 0)"/>
      <use xlink:href="#DejaVuSans-20" transform="translate(227.490234 0)"/>
      <use xlink:href="#DejaVuSans-64" transform="translate(259.277344 0)"/>
      <use xlink:href="#DejaVuSans-69" transform="translate(322.753906 0)"/>
      <use xlink:href="#DejaVuSans-66" transform="translate(350.537109 0)"/>
      <use xlink:href="#DejaVuSans-66" transform="translate(385.742188 0)"/>
      <use xlink:href="#DejaVuSans-20" transform="translate(420.947266 0)"/>
      <use xlink:href="#DejaVuSans-28" transform="translate(452.734375 0)"/>
      <use xlink:href="#DejaVuSans-74" transform="translate(491.748047 0)"/>
      <use xlink:href="#DejaVuSans-72" transform="translate(530.957031 0)"/>
      <use xlink:href="#DejaVuSans-61" transform="translate(572.070312 0)"/>
      <use xlink:href="#DejaVuSans-69" transform="translate(633.349609 0)"/>
      <use xlink:href="#DejaVuSans-6e" transform="translate(661.132812 0)"/>
      <use xlink:href="#DejaVuSans-29" transform="translate(724.511719 0)"/>
     </g>
    </g>
   </g>
  </g>
 </g>
 <defs>
  <clipPath id="pfc6db8ac32">
   <rect x="57.6" y="41.472" width="357.12" height="266.112"/>
  </clipPath>
 </defs>
</svg>
