<?xml version="1.0" encoding="utf-8" standalone="no"?>
<!DOCTYPE svg PUBLIC "-//W3C//DTD SVG 1.1//EN"
  "http://www.w3.org/Graphics/SVG/1.1/DTD/svg11.dtd">
<svg xmlns:xlink="http://www.w3.org/1999/xlink" width="460.8pt" height="345.6pt" viewBox="0 0 460.8 345.6" xmlns="http://www.w3.org/2000/svg" version="1.1">
 <metadata>
  <rdf:RDF xmlns:dc="http://purl.org/dc/elements/1.1/" xmlns:cc="http://creativecommons.org/ns#" xmlns:rdf="http://www.w3.org/1999/02/22-rdf-syntax-ns#">
   <cc:Work>
    <dc:type rdf:resource="http://purl.org/dc/dcmitype/StillImage"/>
    <dc:date>2025-11-11T12:11:47.439046</dc:date>
    <dc:format>image/svg+xml</dc:format>
    <dc:creator>
     <cc:Agent>
      <dc:title>Matplotlib v3.10.7, https://matplotlib.org/</dc:title>
     </cc:Agent>
    </dc:creator>
   </cc:Work>
  </rdf:RDF>
 </metadata>
 <defs>
  <style type="text/css">*{stroke-linejoin: round; stroke-linecap: butt}</style>
 </defs>
 <g id="figure_1">
  <g id="patch_1">
   <path d="M 0 345.6 
L 460.8 345.6 
L 460.8 0 
L 0 0 
z
" style="fill: #ffffff"/>
  </g>
  <g id="axes_1">
   <g id="patch_2">
    <path d="M 57.6 307.584 
L 414.72 307.584 
L 414.72 41.472 
L 57.6 41.472 
z
" style="fill: #ffffff"/>
   </g>
   <g id="matplotlib.axis_1">
    <g id="xtick_1">
     <g id="line2d_1">
      <defs>
       <path id="m06fe6fa96a" d="M 0 0 
L 0 3.5 
" style="stroke: #000000; stroke-width: 0.8"/>
      </defs>
      <g>
       <use xlink:href="#m06fe6fa96a" x="73.832727" y="307.584" style="stroke: #000000; stroke-width: 0.8"/>
      </g>
     </g>
     <g id="text_1">
      <!-- 0 -->
      <g transform="translate(70.651477 322.182437) scale(0.1 -0.1)">
       <defs>
        <path id="DejaVuSans-30" d="M 2034 4250 
Q 1547 4250 1301 3770 
Q 1056 3291 1056 2328 
Q 1056 1369 1301 889 
Q 1547 409 2034 409 
Q 2525 409 2770 889 
Q 3016 1369 3016 2328 
Q 3016 3291 2770 3770 
Q 2525 4250 2034 4250 
z
M 2034 4750 
Q 2819 4750 3233 4129 
Q 3647 3509 3647 2328 
Q 3647 1150 3233 529 
Q 2819 -91 2034 -91 
Q 1250 -91 836 529 
Q 422 1150 422 2328 
Q 422 3509 836 4129 
Q 1250 4750 2034 4750 
z
" transform="scale(0.015625)"/>
       </defs>
       <use xlink:href="#DejaVuSans-30"/>
      </g>
     </g>
    </g>
    <g id="xtick_2">
     <g id="line2d_2">
      <g>
       <use xlink:href="#m06fe6fa96a" x="138.77013" y="307.584" style="stroke: #000000; stroke-width: 0.8"/>
      </g>
     </g>
     <g id="text_2">
      <!-- 2000 -->
      <g transform="translate(126.04513 322.182437) scale(0.1 -0.1)">
       <defs>
        <path id="DejaVuSans-32" d="M 1228 531 
L 3431 531 
L 3431 0 
L 469 0 
L 469 531 
Q 828 903 1448 1529 
Q 2069 2156 2228 2338 
Q 2531 2678 2651 2914 
Q 2772 3150 2772 3378 
Q 2772 3750 2511 3984 
Q 2250 4219 1831 4219 
Q 1534 4219 1204 4116 
Q 875 4013 500 3803 
L 500 4441 
Q 881 4594 1212 4672 
Q 1544 4750 1819 4750 
Q 2544 4750 2975 4387 
Q 3406 4025 3406 3419 
Q 3406 3131 3298 2873 
Q 3191 2616 2906 2266 
Q 2828 2175 2409 1742 
Q 1991 1309 1228 531 
z
" transform="scale(0.015625)"/>
       </defs>
       <use xlink:href="#DejaVuSans-32"/>
       <use xlink:href="#DejaVuSans-30" transform="translate(63.623047 0)"/>
       <use xlink:href="#DejaVuSans-30" transform="translate(127.246094 0)"/>
       <use xlink:href="#DejaVuSans-30" transform="translate(190.869141 0)"/>
      </g>
     </g>
    </g>
    <g id="xtick_3">
     <g id="line2d_3">
      <g>
       <use xlink:href="#m06fe6fa96a" x="203.707533" y="307.584" style="stroke: #000000; stroke-width: 0.8"/>
      </g>
     </g>
     <g id="text_3">
      <!-- 4000 -->
      <g transform="translate(190.982533 322.182437) scale(0.1 -0.1)">
       <defs>
        <path id="DejaVuSans-34" d="M 2419 4116 
L 825 1625 
L 2419 1625 
L 2419 4116 
z
M 2253 4666 
L 3047 4666 
L 3047 1625 
L 3713 1625 
L 3713 1100 
L 3047 1100 
L 3047 0 
L 2419 0 
L 2419 1100 
L 313 1100 
L 313 1709 
L 2253 4666 
z
" transform="scale(0.015625)"/>
       </defs>
       <use xlink:href="#DejaVuSans-34"/>
       <use xlink:href="#DejaVuSans-30" transform="translate(63.623047 0)"/>
       <use xlink:href="#DejaVuSans-30" transform="translate(127.246094 0)"/>
       <use xlink:href="#DejaVuSans-30" transform="translate(190.869141 0)"/>
      </g>
     </g>
    </g>
    <g id="xtick_4">
     <g id="line2d_4">
      <g>
       <use xlink:href="#m06fe6fa96a" x="268.644936" y="307.584" style="stroke: #000000; stroke-width: 0.8"/>
      </g>
     </g>
     <g id="text_4">
      <!-- 6000 -->
      <g transform="translate(255.919936 322.182437) scale(0.1 -0.1)">
       <defs>
        <path id="DejaVuSans-36" d="M 2113 2584 
Q 1688 2584 1439 2293 
Q 1191 2003 1191 1497 
Q 1191 994 1439 701 
Q 1688 409 2113 409 
Q 2538 409 2786 701 
Q 3034 994 3034 1497 
Q 3034 2003 2786 2293 
Q 2538 2584 2113 2584 
z
M 3366 4563 
L 3366 3988 
Q 3128 4100 2886 4159 
Q 2644 4219 2406 4219 
Q 1781 4219 1451 3797 
Q 1122 3375 1075 2522 
Q 1259 2794 1537 2939 
Q 1816 3084 2150 3084 
Q 2853 3084 3261 2657 
Q 3669 2231 3669 1497 
Q 3669 778 3244 343 
Q 2819 -91 2113 -91 
Q 1303 -91 875 529 
Q 447 1150 447 2328 
Q 447 3434 972 4092 
Q 1497 4750 2381 4750 
Q 2619 4750 2861 4703 
Q 3103 4656 3366 4563 
z
" transform="scale(0.015625)"/>
       </defs>
       <use xlink:href="#DejaVuSans-36"/>
       <use xlink:href="#DejaVuSans-30" transform="translate(63.623047 0)"/>
       <use xlink:href="#DejaVuSans-30" transform="translate(127.246094 0)"/>
       <use xlink:href="#DejaVuSans-30" transform="translate(190.869141 0)"/>
      </g>
     </g>
    </g>
    <g id="xtick_5">
     <g id="line2d_5">
      <g>
       <use xlink:href="#m06fe6fa96a" x="333.582339" y="307.584" style="stroke: #000000; stroke-width: 0.8"/>
      </g>
     </g>
     <g id="text_5">
      <!-- 8000 -->
      <g transform="translate(320.857339 322.182437) scale(0.1 -0.1)">
       <defs>
        <path id="DejaVuSans-38" d="M 2034 2216 
Q 1584 2216 1326 1975 
Q 1069 1734 1069 1313 
Q 1069 891 1326 650 
Q 1584 409 2034 409 
Q 2484 409 2743 651 
Q 3003 894 3003 1313 
Q 3003 1734 2745 1975 
Q 2488 2216 2034 2216 
z
M 1403 2484 
Q 997 2584 770 2862 
Q 544 3141 544 3541 
Q 544 4100 942 4425 
Q 1341 4750 2034 4750 
Q 2731 4750 3128 4425 
Q 3525 4100 3525 3541 
Q 3525 3141 3298 2862 
Q 3072 2584 2669 2484 
Q 3125 2378 3379 2068 
Q 3634 1759 3634 1313 
Q 3634 634 3220 271 
Q 2806 -91 2034 -91 
Q 1263 -91 848 271 
Q 434 634 434 1313 
Q 434 1759 690 2068 
Q 947 2378 1403 2484 
z
M 1172 3481 
Q 1172 3119 1398 2916 
Q 1625 2713 2034 2713 
Q 2441 2713 2670 2916 
Q 2900 3119 2900 3481 
Q 2900 3844 2670 4047 
Q 2441 4250 2034 4250 
Q 1625 4250 1398 4047 
Q 1172 3844 1172 3481 
z
" transform="scale(0.015625)"/>
       </defs>
       <use xlink:href="#DejaVuSans-38"/>
       <use xlink:href="#DejaVuSans-30" transform="translate(63.623047 0)"/>
       <use xlink:href="#DejaVuSans-30" transform="translate(127.246094 0)"/>
       <use xlink:href="#DejaVuSans-30" transform="translate(190.869141 0)"/>
      </g>
     </g>
    </g>
    <g id="xtick_6">
     <g id="line2d_6">
      <g>
       <use xlink:href="#m06fe6fa96a" x="398.519741" y="307.584" style="stroke: #000000; stroke-width: 0.8"/>
      </g>
     </g>
     <g id="text_6">
      <!-- 10000 -->
      <g transform="translate(382.613491 322.182437) scale(0.1 -0.1)">
       <defs>
        <path id="DejaVuSans-31" d="M 794 531 
L 1825 531 
L 1825 4091 
L 703 3866 
L 703 4441 
L 1819 4666 
L 2450 4666 
L 2450 531 
L 3481 531 
L 3481 0 
L 794 0 
L 794 531 
z
" transform="scale(0.015625)"/>
       </defs>
       <use xlink:href="#DejaVuSans-31"/>
       <use xlink:href="#DejaVuSans-30" transform="translate(63.623047 0)"/>
       <use xlink:href="#DejaVuSans-30" transform="translate(127.246094 0)"/>
       <use xlink:href="#DejaVuSans-30" transform="translate(190.869141 0)"/>
       <use xlink:href="#DejaVuSans-30" transform="translate(254.492188 0)"/>
      </g>
     </g>
    </g>
   </g>
   <g id="matplotlib.axis_2">
    <g id="ytick_1">
     <g id="line2d_7">
      <defs>
       <path id="mbcbfb1a410" d="M 0 0 
L -3.5 0 
" style="stroke: #000000; stroke-width: 0.8"/>
      </defs>
      <g>
       <use xlink:href="#mbcbfb1a410" x="57.6" y="296.703678" style="stroke: #000000; stroke-width: 0.8"/>
      </g>
     </g>
     <g id="text_7">
      <!-- 0 -->
      <g transform="translate(44.2375 300.502897) scale(0.1 -0.1)">
       <use xlink:href="#DejaVuSans-30"/>
      </g>
     </g>
    </g>
    <g id="ytick_2">
     <g id="line2d_8">
      <g>
       <use xlink:href="#mbcbfb1a410" x="57.6" y="248.076543" style="stroke: #000000; stroke-width: 0.8"/>
      </g>
     </g>
     <g id="text_8">
      <!-- 20 -->
      <g transform="translate(37.875 251.875761) scale(0.1 -0.1)">
       <use xlink:href="#DejaVuSans-32"/>
       <use xlink:href="#DejaVuSans-30" transform="translate(63.623047 0)"/>
      </g>
     </g>
    </g>
    <g id="ytick_3">
     <g id="line2d_9">
      <g>
       <use xlink:href="#mbcbfb1a410" x="57.6" y="199.449407" style="stroke: #000000; stroke-width: 0.8"/>
      </g>
     </g>
     <g id="text_9">
      <!-- 40 -->
      <g transform="translate(37.875 203.248626) scale(0.1 -0.1)">
       <use xlink:href="#DejaVuSans-34"/>
       <use xlink:href="#DejaVuSans-30" transform="translate(63.623047 0)"/>
      </g>
     </g>
    </g>
    <g id="ytick_4">
     <g id="line2d_10">
      <g>
       <use xlink:href="#mbcbfb1a410" x="57.6" y="150.822271" style="stroke: #000000; stroke-width: 0.8"/>
      </g>
     </g>
     <g id="text_10">
      <!-- 60 -->
      <g transform="translate(37.875 154.62149) scale(0.1 -0.1)">
       <use xlink:href="#DejaVuSans-36"/>
       <use xlink:href="#DejaVuSans-30" transform="translate(63.623047 0)"/>
      </g>
     </g>
    </g>
    <g id="ytick_5">
     <g id="line2d_11">
      <g>
       <use xlink:href="#mbcbfb1a410" x="57.6" y="102.195136" style="stroke: #000000; stroke-width: 0.8"/>
      </g>
     </g>
     <g id="text_11">
      <!-- 80 -->
      <g transform="translate(37.875 105.994354) scale(0.1 -0.1)">
       <use xlink:href="#DejaVuSans-38"/>
       <use xlink:href="#DejaVuSans-30" transform="translate(63.623047 0)"/>
      </g>
     </g>
    </g>
    <g id="ytick_6">
     <g id="line2d_12">
      <g>
       <use xlink:href="#mbcbfb1a410" x="57.6" y="53.568" style="stroke: #000000; stroke-width: 0.8"/>
      </g>
     </g>
     <g id="text_12">
      <!-- 100 -->
      <g transform="translate(31.5125 57.367219) scale(0.1 -0.1)">
       <use xlink:href="#DejaVuSans-31"/>
       <use xlink:href="#DejaVuSans-30" transform="translate(63.623047 0)"/>
       <use xlink:href="#DejaVuSans-30" transform="translate(127.246094 0)"/>
      </g>
     </g>
    </g>
   </g>
   <g id="line2d_13">
    <path d="M 73.832727 214.814227 
L 77.079597 209.537853 
L 80.326468 185.055436 
L 83.573338 165.005183 
L 86.820208 161.206188 
L 90.067078 152.13081 
L 93.313948 147.276537 
L 96.560818 147.698646 
L 99.807688 151.497641 
L 103.054559 140.100647 
L 106.26896 126.081317 
L 106.301429 132.924776 
L 109.548299 121.94991 
L 112.795169 121.94991 
L 116.042039 111.397144 
L 119.288909 116.673536 
L 122.535779 123.849407 
L 125.78265 118.995134 
L 129.02952 120.894631 
L 132.27639 120.472531 
L 135.52326 115.196139 
L 138.737661 104.379558 
L 138.77013 114.774038 
L 142.017 110.975043 
L 145.26387 109.075546 
L 148.510741 107.598149 
L 151.757611 107.598149 
L 155.004481 101.899656 
L 158.251351 103.799154 
L 161.498221 100.000159 
L 164.745091 100.000159 
L 167.991961 100.000159 
L 171.206363 84.719759 
L 171.238832 91.34689 
L 174.485702 89.447393 
L 177.732572 89.447393 
L 180.979442 82.271522 
L 184.226312 93.246388 
L 187.473182 85.648398 
L 190.720052 89.025274 
L 193.966923 85.648398 
L 197.213793 87.125777 
L 200.460663 89.025274 
L 203.675064 76.314482 
L 203.707533 89.025274 
L 206.954403 87.547895 
L 210.201273 81.849403 
L 213.448143 81.849403 
L 216.695014 80.372024 
L 219.941884 81.849403 
L 223.188754 80.372024 
L 226.435624 78.472527 
L 229.682494 78.472527 
L 232.929364 73.196135 
L 236.143766 71.375789 
L 236.176234 76.573029 
L 239.423104 75.095632 
L 242.669975 73.196135 
L 245.916845 73.196135 
L 249.163715 76.573029 
L 252.410585 74.673532 
L 255.657455 69.39714 
L 258.904325 71.296637 
L 262.151195 71.296637 
L 265.398066 69.39714 
L 268.612467 72.088101 
L 268.644936 75.095632 
L 271.891806 67.497642 
L 275.138676 73.196135 
L 278.385546 76.995129 
L 281.632416 72.774034 
L 284.879286 73.196135 
L 288.126157 75.095632 
L 291.373027 71.718737 
L 294.619897 66.020245 
L 297.866767 80.372024 
L 301.081168 78.166492 
L 301.113637 78.472527 
L 304.360507 75.095632 
L 307.607377 81.849403 
L 310.854248 80.372024 
L 314.101118 78.472527 
L 317.347988 83.7489 
L 320.594858 82.271522 
L 323.841728 76.995129 
L 327.088598 78.472527 
L 330.335468 78.472527 
L 333.54987 77.929055 
L 333.582339 83.7489 
L 336.829209 87.125777 
L 340.076079 73.618235 
L 343.322949 82.271522 
L 346.569819 85.648398 
L 349.816689 85.648398 
L 353.063559 82.271522 
L 356.31043 85.648398 
L 359.5573 85.648398 
L 362.80417 82.271522 
L 366.018571 78.166492 
L 366.05104 83.7489 
L 369.29791 85.648398 
L 372.54478 83.7489 
L 375.79165 83.7489 
L 379.038521 80.372024 
L 382.285391 83.7489 
L 385.532261 82.271522 
L 388.779131 80.372024 
L 392.026001 78.894627 
L 395.272871 80.372024 
L 398.487273 75.554683 
" clip-path="url(#pe741a67197)" style="fill: none; stroke: #1f77b4; stroke-width: 1.5; stroke-linecap: square"/>
    <defs>
     <path id="mc2eb987520" d="M 0 3 
C 0.795609 3 1.55874 2.683901 2.12132 2.12132 
C 2.683901 1.55874 3 0.795609 3 0 
C 3 -0.795609 2.683901 -1.55874 2.12132 -2.12132 
C 1.55874 -2.683901 0.795609 -3 0 -3 
C -0.795609 -3 -1.55874 -2.683901 -2.12132 -2.12132 
C -2.683901 -1.55874 -3 -0.795609 -3 0 
C -3 0.795609 -2.683901 1.55874 -2.12132 2.12132 
C -1.55874 2.683901 -0.795609 3 0 3 
z
" style="stroke: #1f77b4"/>
    </defs>
    <g clip-path="url(#pe741a67197)">
     <use xlink:href="#mc2eb987520" x="73.832727" y="214.814227" style="fill: #1f77b4; stroke: #1f77b4"/>
     <use xlink:href="#mc2eb987520" x="77.079597" y="209.537853" style="fill: #1f77b4; stroke: #1f77b4"/>
     <use xlink:href="#mc2eb987520" x="80.326468" y="185.055436" style="fill: #1f77b4; stroke: #1f77b4"/>
     <use xlink:href="#mc2eb987520" x="83.573338" y="165.005183" style="fill: #1f77b4; stroke: #1f77b4"/>
     <use xlink:href="#mc2eb987520" x="86.820208" y="161.206188" style="fill: #1f77b4; stroke: #1f77b4"/>
     <use xlink:href="#mc2eb987520" x="90.067078" y="152.13081" style="fill: #1f77b4; stroke: #1f77b4"/>
     <use xlink:href="#mc2eb987520" x="93.313948" y="147.276537" style="fill: #1f77b4; stroke: #1f77b4"/>
     <use xlink:href="#mc2eb987520" x="96.560818" y="147.698646" style="fill: #1f77b4; stroke: #1f77b4"/>
     <use xlink:href="#mc2eb987520" x="99.807688" y="151.497641" style="fill: #1f77b4; stroke: #1f77b4"/>
     <use xlink:href="#mc2eb987520" x="103.054559" y="140.100647" style="fill: #1f77b4; stroke: #1f77b4"/>
     <use xlink:href="#mc2eb987520" x="106.26896" y="126.081317" style="fill: #1f77b4; stroke: #1f77b4"/>
     <use xlink:href="#mc2eb987520" x="106.301429" y="132.924776" style="fill: #1f77b4; stroke: #1f77b4"/>
     <use xlink:href="#mc2eb987520" x="109.548299" y="121.94991" style="fill: #1f77b4; stroke: #1f77b4"/>
     <use xlink:href="#mc2eb987520" x="112.795169" y="121.94991" style="fill: #1f77b4; stroke: #1f77b4"/>
     <use xlink:href="#mc2eb987520" x="116.042039" y="111.397144" style="fill: #1f77b4; stroke: #1f77b4"/>
     <use xlink:href="#mc2eb987520" x="119.288909" y="116.673536" style="fill: #1f77b4; stroke: #1f77b4"/>
     <use xlink:href="#mc2eb987520" x="122.535779" y="123.849407" style="fill: #1f77b4; stroke: #1f77b4"/>
     <use xlink:href="#mc2eb987520" x="125.78265" y="118.995134" style="fill: #1f77b4; stroke: #1f77b4"/>
     <use xlink:href="#mc2eb987520" x="129.02952" y="120.894631" style="fill: #1f77b4; stroke: #1f77b4"/>
     <use xlink:href="#mc2eb987520" x="132.27639" y="120.472531" style="fill: #1f77b4; stroke: #1f77b4"/>
     <use xlink:href="#mc2eb987520" x="135.52326" y="115.196139" style="fill: #1f77b4; stroke: #1f77b4"/>
     <use xlink:href="#mc2eb987520" x="138.737661" y="104.379558" style="fill: #1f77b4; stroke: #1f77b4"/>
     <use xlink:href="#mc2eb987520" x="138.77013" y="114.774038" style="fill: #1f77b4; stroke: #1f77b4"/>
     <use xlink:href="#mc2eb987520" x="142.017" y="110.975043" style="fill: #1f77b4; stroke: #1f77b4"/>
     <use xlink:href="#mc2eb987520" x="145.26387" y="109.075546" style="fill: #1f77b4; stroke: #1f77b4"/>
     <use xlink:href="#mc2eb987520" x="148.510741" y="107.598149" style="fill: #1f77b4; stroke: #1f77b4"/>
     <use xlink:href="#mc2eb987520" x="151.757611" y="107.598149" style="fill: #1f77b4; stroke: #1f77b4"/>
     <use xlink:href="#mc2eb987520" x="155.004481" y="101.899656" style="fill: #1f77b4; stroke: #1f77b4"/>
     <use xlink:href="#mc2eb987520" x="158.251351" y="103.799154" style="fill: #1f77b4; stroke: #1f77b4"/>
     <use xlink:href="#mc2eb987520" x="161.498221" y="100.000159" style="fill: #1f77b4; stroke: #1f77b4"/>
     <use xlink:href="#mc2eb987520" x="164.745091" y="100.000159" style="fill: #1f77b4; stroke: #1f77b4"/>
     <use xlink:href="#mc2eb987520" x="167.991961" y="100.000159" style="fill: #1f77b4; stroke: #1f77b4"/>
     <use xlink:href="#mc2eb987520" x="171.206363" y="84.719759" style="fill: #1f77b4; stroke: #1f77b4"/>
     <use xlink:href="#mc2eb987520" x="171.238832" y="91.34689" style="fill: #1f77b4; stroke: #1f77b4"/>
     <use xlink:href="#mc2eb987520" x="174.485702" y="89.447393" style="fill: #1f77b4; stroke: #1f77b4"/>
     <use xlink:href="#mc2eb987520" x="177.732572" y="89.447393" style="fill: #1f77b4; stroke: #1f77b4"/>
     <use xlink:href="#mc2eb987520" x="180.979442" y="82.271522" style="fill: #1f77b4; stroke: #1f77b4"/>
     <use xlink:href="#mc2eb987520" x="184.226312" y="93.246388" style="fill: #1f77b4; stroke: #1f77b4"/>
     <use xlink:href="#mc2eb987520" x="187.473182" y="85.648398" style="fill: #1f77b4; stroke: #1f77b4"/>
     <use xlink:href="#mc2eb987520" x="190.720052" y="89.025274" style="fill: #1f77b4; stroke: #1f77b4"/>
     <use xlink:href="#mc2eb987520" x="193.966923" y="85.648398" style="fill: #1f77b4; stroke: #1f77b4"/>
     <use xlink:href="#mc2eb987520" x="197.213793" y="87.125777" style="fill: #1f77b4; stroke: #1f77b4"/>
     <use xlink:href="#mc2eb987520" x="200.460663" y="89.025274" style="fill: #1f77b4; stroke: #1f77b4"/>
     <use xlink:href="#mc2eb987520" x="203.675064" y="76.314482" style="fill: #1f77b4; stroke: #1f77b4"/>
     <use xlink:href="#mc2eb987520" x="203.707533" y="89.025274" style="fill: #1f77b4; stroke: #1f77b4"/>
     <use xlink:href="#mc2eb987520" x="206.954403" y="87.547895" style="fill: #1f77b4; stroke: #1f77b4"/>
     <use xlink:href="#mc2eb987520" x="210.201273" y="81.849403" style="fill: #1f77b4; stroke: #1f77b4"/>
     <use xlink:href="#mc2eb987520" x="213.448143" y="81.849403" style="fill: #1f77b4; stroke: #1f77b4"/>
     <use xlink:href="#mc2eb987520" x="216.695014" y="80.372024" style="fill: #1f77b4; stroke: #1f77b4"/>
     <use xlink:href="#mc2eb987520" x="219.941884" y="81.849403" style="fill: #1f77b4; stroke: #1f77b4"/>
     <use xlink:href="#mc2eb987520" x="223.188754" y="80.372024" style="fill: #1f77b4; stroke: #1f77b4"/>
     <use xlink:href="#mc2eb987520" x="226.435624" y="78.472527" style="fill: #1f77b4; stroke: #1f77b4"/>
     <use xlink:href="#mc2eb987520" x="229.682494" y="78.472527" style="fill: #1f77b4; stroke: #1f77b4"/>
     <use xlink:href="#mc2eb987520" x="232.929364" y="73.196135" style="fill: #1f77b4; stroke: #1f77b4"/>
     <use xlink:href="#mc2eb987520" x="236.143766" y="71.375789" style="fill: #1f77b4; stroke: #1f77b4"/>
     <use xlink:href="#mc2eb987520" x="236.176234" y="76.573029" style="fill: #1f77b4; stroke: #1f77b4"/>
     <use xlink:href="#mc2eb987520" x="239.423104" y="75.095632" style="fill: #1f77b4; stroke: #1f77b4"/>
     <use xlink:href="#mc2eb987520" x="242.669975" y="73.196135" style="fill: #1f77b4; stroke: #1f77b4"/>
     <use xlink:href="#mc2eb987520" x="245.916845" y="73.196135" style="fill: #1f77b4; stroke: #1f77b4"/>
     <use xlink:href="#mc2eb987520" x="249.163715" y="76.573029" style="fill: #1f77b4; stroke: #1f77b4"/>
     <use xlink:href="#mc2eb987520" x="252.410585" y="74.673532" style="fill: #1f77b4; stroke: #1f77b4"/>
     <use xlink:href="#mc2eb987520" x="255.657455" y="69.39714" style="fill: #1f77b4; stroke: #1f77b4"/>
     <use xlink:href="#mc2eb987520" x="258.904325" y="71.296637" style="fill: #1f77b4; stroke: #1f77b4"/>
     <use xlink:href="#mc2eb987520" x="262.151195" y="71.296637" style="fill: #1f77b4; stroke: #1f77b4"/>
     <use xlink:href="#mc2eb987520" x="265.398066" y="69.39714" style="fill: #1f77b4; stroke: #1f77b4"/>
     <use xlink:href="#mc2eb987520" x="268.612467" y="72.088101" style="fill: #1f77b4; stroke: #1f77b4"/>
     <use xlink:href="#mc2eb987520" x="268.644936" y="75.095632" style="fill: #1f77b4; stroke: #1f77b4"/>
     <use xlink:href="#mc2eb987520" x="271.891806" y="67.497642" style="fill: #1f77b4; stroke: #1f77b4"/>
     <use xlink:href="#mc2eb987520" x="275.138676" y="73.196135" style="fill: #1f77b4; stroke: #1f77b4"/>
     <use xlink:href="#mc2eb987520" x="278.385546" y="76.995129" style="fill: #1f77b4; stroke: #1f77b4"/>
     <use xlink:href="#mc2eb987520" x="281.632416" y="72.774034" style="fill: #1f77b4; stroke: #1f77b4"/>
     <use xlink:href="#mc2eb987520" x="284.879286" y="73.196135" style="fill: #1f77b4; stroke: #1f77b4"/>
     <use xlink:href="#mc2eb987520" x="288.126157" y="75.095632" style="fill: #1f77b4; stroke: #1f77b4"/>
     <use xlink:href="#mc2eb987520" x="291.373027" y="71.718737" style="fill: #1f77b4; stroke: #1f77b4"/>
     <use xlink:href="#mc2eb987520" x="294.619897" y="66.020245" style="fill: #1f77b4; stroke: #1f77b4"/>
     <use xlink:href="#mc2eb987520" x="297.866767" y="80.372024" style="fill: #1f77b4; stroke: #1f77b4"/>
     <use xlink:href="#mc2eb987520" x="301.081168" y="78.166492" style="fill: #1f77b4; stroke: #1f77b4"/>
     <use xlink:href="#mc2eb987520" x="301.113637" y="78.472527" style="fill: #1f77b4; stroke: #1f77b4"/>
     <use xlink:href="#mc2eb987520" x="304.360507" y="75.095632" style="fill: #1f77b4; stroke: #1f77b4"/>
     <use xlink:href="#mc2eb987520" x="307.607377" y="81.849403" style="fill: #1f77b4; stroke: #1f77b4"/>
     <use xlink:href="#mc2eb987520" x="310.854248" y="80.372024" style="fill: #1f77b4; stroke: #1f77b4"/>
     <use xlink:href="#mc2eb987520" x="314.101118" y="78.472527" style="fill: #1f77b4; stroke: #1f77b4"/>
     <use xlink:href="#mc2eb987520" x="317.347988" y="83.7489" style="fill: #1f77b4; stroke: #1f77b4"/>
     <use xlink:href="#mc2eb987520" x="320.594858" y="82.271522" style="fill: #1f77b4; stroke: #1f77b4"/>
     <use xlink:href="#mc2eb987520" x="323.841728" y="76.995129" style="fill: #1f77b4; stroke: #1f77b4"/>
     <use xlink:href="#mc2eb987520" x="327.088598" y="78.472527" style="fill: #1f77b4; stroke: #1f77b4"/>
     <use xlink:href="#mc2eb987520" x="330.335468" y="78.472527" style="fill: #1f77b4; stroke: #1f77b4"/>
     <use xlink:href="#mc2eb987520" x="333.54987" y="77.929055" style="fill: #1f77b4; stroke: #1f77b4"/>
     <use xlink:href="#mc2eb987520" x="333.582339" y="83.7489" style="fill: #1f77b4; stroke: #1f77b4"/>
     <use xlink:href="#mc2eb987520" x="336.829209" y="87.125777" style="fill: #1f77b4; stroke: #1f77b4"/>
     <use xlink:href="#mc2eb987520" x="340.076079" y="73.618235" style="fill: #1f77b4; stroke: #1f77b4"/>
     <use xlink:href="#mc2eb987520" x="343.322949" y="82.271522" style="fill: #1f77b4; stroke: #1f77b4"/>
     <use xlink:href="#mc2eb987520" x="346.569819" y="85.648398" style="fill: #1f77b4; stroke: #1f77b4"/>
     <use xlink:href="#mc2eb987520" x="349.816689" y="85.648398" style="fill: #1f77b4; stroke: #1f77b4"/>
     <use xlink:href="#mc2eb987520" x="353.063559" y="82.271522" style="fill: #1f77b4; stroke: #1f77b4"/>
     <use xlink:href="#mc2eb987520" x="356.31043" y="85.648398" style="fill: #1f77b4; stroke: #1f77b4"/>
     <use xlink:href="#mc2eb987520" x="359.5573" y="85.648398" style="fill: #1f77b4; stroke: #1f77b4"/>
     <use xlink:href="#mc2eb987520" x="362.80417" y="82.271522" style="fill: #1f77b4; stroke: #1f77b4"/>
     <use xlink:href="#mc2eb987520" x="366.018571" y="78.166492" style="fill: #1f77b4; stroke: #1f77b4"/>
     <use xlink:href="#mc2eb987520" x="366.05104" y="83.7489" style="fill: #1f77b4; stroke: #1f77b4"/>
     <use xlink:href="#mc2eb987520" x="369.29791" y="85.648398" style="fill: #1f77b4; stroke: #1f77b4"/>
     <use xlink:href="#mc2eb987520" x="372.54478" y="83.7489" style="fill: #1f77b4; stroke: #1f77b4"/>
     <use xlink:href="#mc2eb987520" x="375.79165" y="83.7489" style="fill: #1f77b4; stroke: #1f77b4"/>
     <use xlink:href="#mc2eb987520" x="379.038521" y="80.372024" style="fill: #1f77b4; stroke: #1f77b4"/>
     <use xlink:href="#mc2eb987520" x="382.285391" y="83.7489" style="fill: #1f77b4; stroke: #1f77b4"/>
     <use xlink:href="#mc2eb987520" x="385.532261" y="82.271522" style="fill: #1f77b4; stroke: #1f77b4"/>
     <use xlink:href="#mc2eb987520" x="388.779131" y="80.372024" style="fill: #1f77b4; stroke: #1f77b4"/>
     <use xlink:href="#mc2eb987520" x="392.026001" y="78.894627" style="fill: #1f77b4; stroke: #1f77b4"/>
     <use xlink:href="#mc2eb987520" x="395.272871" y="80.372024" style="fill: #1f77b4; stroke: #1f77b4"/>
     <use xlink:href="#mc2eb987520" x="398.487273" y="75.554683" style="fill: #1f77b4; stroke: #1f77b4"/>
    </g>
   </g>
   <g id="line2d_14">
    <path d="M 73.832727 114.14086 
L 77.079597 114.14086 
L 80.326468 124.693626 
L 83.573338 117.517736 
L 86.820208 113.718741 
L 90.067078 102.321756 
L 93.313948 80.794124 
L 96.560818 72.562975 
L 99.807688 72.562975 
L 103.054559 70.663477 
L 106.26896 69.903678 
L 106.301429 73.618235 
L 109.548299 68.341861 
L 112.795169 66.020245 
L 116.042039 66.020245 
L 119.288909 66.020245 
L 122.535779 64.542866 
L 125.78265 64.542866 
L 129.02952 62.643369 
L 132.27639 59.266492 
L 135.52326 59.266492 
L 138.737661 62.163226 
L 138.77013 59.266492 
L 142.017 59.266492 
L 145.26387 59.266492 
L 148.510741 59.266492 
L 151.757611 57.366995 
L 155.004481 57.366995 
L 158.251351 55.467497 
L 161.498221 55.467497 
L 164.745091 55.467497 
L 167.991961 55.467497 
L 171.206363 54.660211 
L 171.238832 55.467497 
L 174.485702 55.467497 
L 177.732572 53.568 
L 180.979442 53.568 
L 184.226312 53.568 
L 187.473182 53.568 
L 190.720052 53.568 
L 193.966923 53.568 
L 197.213793 53.568 
L 200.460663 53.568 
L 203.675064 53.568 
L 203.707533 53.568 
L 206.954403 53.568 
L 210.201273 53.568 
L 213.448143 53.568 
L 216.695014 53.568 
L 219.941884 53.568 
L 223.188754 53.568 
L 226.435624 53.568 
L 229.682494 53.568 
L 232.929364 53.568 
L 236.143766 53.568 
L 236.176234 53.568 
L 239.423104 53.568 
L 242.669975 53.568 
L 245.916845 53.568 
L 249.163715 53.568 
L 252.410585 53.568 
L 255.657455 53.568 
L 258.904325 53.568 
L 262.151195 53.568 
L 265.398066 53.568 
L 268.612467 53.568 
L 268.644936 53.568 
L 271.891806 53.568 
L 275.138676 53.568 
L 278.385546 53.568 
L 281.632416 53.568 
L 284.879286 53.568 
L 288.126157 53.568 
L 291.373027 53.568 
L 294.619897 53.568 
L 297.866767 53.568 
L 301.081168 53.568 
L 301.113637 53.568 
L 304.360507 53.568 
L 307.607377 53.568 
L 310.854248 53.568 
L 314.101118 53.568 
L 317.347988 53.568 
L 320.594858 53.568 
L 323.841728 53.568 
L 327.088598 53.568 
L 330.335468 53.568 
L 333.54987 53.568 
L 333.582339 53.568 
L 336.829209 53.568 
L 340.076079 53.568 
L 343.322949 53.568 
L 346.569819 53.568 
L 349.816689 53.568 
L 353.063559 53.568 
L 356.31043 53.568 
L 359.5573 53.568 
L 362.80417 53.568 
L 366.018571 53.568 
L 366.05104 53.568 
L 369.29791 53.568 
L 372.54478 53.568 
L 375.79165 53.568 
L 379.038521 53.568 
L 382.285391 53.568 
L 385.532261 53.568 
L 388.779131 53.568 
L 392.026001 53.568 
L 395.272871 53.568 
L 398.487273 53.568 
" clip-path="url(#pe741a67197)" style="fill: none; stroke: #ff7f0e; stroke-width: 1.5; stroke-linecap: square"/>
   </g>
   <g id="line2d_15">
    <path d="M 73.832727 221.990107 
L 77.079597 225.366993 
L 80.326468 190.964979 
L 83.573338 175.135839 
L 86.820208 154.663476 
L 90.067078 137.779049 
L 93.313948 134.402154 
L 96.560818 154.452417 
L 99.807688 155.085586 
L 103.054559 152.763979 
L 106.26896 128.645638 
L 106.301429 146.010208 
L 109.548299 137.779049 
L 112.795169 139.256446 
L 116.042039 125.326786 
L 119.288909 126.804164 
L 122.535779 119.628293 
L 125.78265 112.874541 
L 129.02952 124.904667 
L 132.27639 113.929801 
L 135.52326 123.427288 
L 138.737661 103.04991 
L 138.77013 114.35192 
L 142.017 106.75393 
L 145.26387 102.954935 
L 148.510741 98.522762 
L 151.757611 98.100661 
L 155.004481 94.723767 
L 158.251351 89.447393 
L 161.498221 85.648398 
L 164.745091 81.849403 
L 167.991961 80.372024 
L 171.206363 78.831317 
L 171.238832 78.894627 
L 174.485702 69.39714 
L 177.732572 66.020245 
L 180.979442 62.643369 
L 184.226312 68.341861 
L 187.473182 66.442364 
L 190.720052 64.542866 
L 193.966923 64.542866 
L 197.213793 60.743871 
L 200.460663 62.643369 
L 203.675064 71.803176 
L 203.707533 62.643369 
L 206.954403 59.266492 
L 210.201273 62.22125 
L 213.448143 64.120747 
L 216.695014 57.366995 
L 219.941884 55.467497 
L 223.188754 58.844374 
L 226.435624 56.944876 
L 229.682494 58.844374 
L 232.929364 53.568 
L 236.143766 66.152171 
L 236.176234 60.743871 
L 239.423104 58.844374 
L 242.669975 60.743871 
L 245.916845 58.844374 
L 249.163715 56.944876 
L 252.410585 55.467497 
L 255.657455 58.844374 
L 258.904325 58.844374 
L 262.151195 60.743871 
L 265.398066 58.844374 
L 268.612467 66.152171 
L 268.644936 60.743871 
L 271.891806 55.467497 
L 275.138676 62.643369 
L 278.385546 64.542866 
L 281.632416 64.120747 
L 284.879286 60.743871 
L 288.126157 62.643369 
L 291.373027 62.643369 
L 294.619897 62.22125 
L 297.866767 71.296637 
L 301.081168 78.688854 
L 301.113637 73.196135 
L 304.360507 73.196135 
L 307.607377 69.81924 
L 310.854248 73.196135 
L 314.101118 69.81924 
L 317.347988 69.81924 
L 320.594858 71.296637 
L 323.841728 73.196135 
L 327.088598 71.296637 
L 330.335468 71.296637 
L 333.54987 77.359206 
L 333.582339 71.296637 
L 336.829209 66.020245 
L 340.076079 71.296637 
L 343.322949 69.39714 
L 346.569819 71.296637 
L 349.816689 69.81924 
L 353.063559 67.919742 
L 356.31043 69.81924 
L 359.5573 71.296637 
L 362.80417 67.919742 
L 366.018571 74.652422 
L 366.05104 71.296637 
L 369.29791 67.919742 
L 372.54478 69.81924 
L 375.79165 66.020245 
L 379.038521 66.020245 
L 382.285391 67.919742 
L 385.532261 67.919742 
L 388.779131 71.296637 
L 392.026001 64.542866 
L 395.272871 67.919742 
L 398.487273 73.322774 
" clip-path="url(#pe741a67197)" style="fill: none; stroke-dasharray: 5.55,2.4; stroke-dashoffset: 0; stroke: #2ca02c; stroke-width: 1.5"/>
    <defs>
     <path id="m57460c062a" d="M 0 3 
C 0.795609 3 1.55874 2.683901 2.12132 2.12132 
C 2.683901 1.55874 3 0.795609 3 0 
C 3 -0.795609 2.683901 -1.55874 2.12132 -2.12132 
C 1.55874 -2.683901 0.795609 -3 0 -3 
C -0.795609 -3 -1.55874 -2.683901 -2.12132 -2.12132 
C -2.683901 -1.55874 -3 -0.795609 -3 0 
C -3 0.795609 -2.683901 1.55874 -2.12132 2.12132 
C -1.55874 2.683901 -0.795609 3 0 3 
z
" style="stroke: #2ca02c"/>
    </defs>
    <g clip-path="url(#pe741a67197)">
     <use xlink:href="#m57460c062a" x="73.832727" y="221.990107" style="fill: #2ca02c; stroke: #2ca02c"/>
     <use xlink:href="#m57460c062a" x="77.079597" y="225.366993" style="fill: #2ca02c; stroke: #2ca02c"/>
     <use xlink:href="#m57460c062a" x="80.326468" y="190.964979" style="fill: #2ca02c; stroke: #2ca02c"/>
     <use xlink:href="#m57460c062a" x="83.573338" y="175.135839" style="fill: #2ca02c; stroke: #2ca02c"/>
     <use xlink:href="#m57460c062a" x="86.820208" y="154.663476" style="fill: #2ca02c; stroke: #2ca02c"/>
     <use xlink:href="#m57460c062a" x="90.067078" y="137.779049" style="fill: #2ca02c; stroke: #2ca02c"/>
     <use xlink:href="#m57460c062a" x="93.313948" y="134.402154" style="fill: #2ca02c; stroke: #2ca02c"/>
     <use xlink:href="#m57460c062a" x="96.560818" y="154.452417" style="fill: #2ca02c; stroke: #2ca02c"/>
     <use xlink:href="#m57460c062a" x="99.807688" y="155.085586" style="fill: #2ca02c; stroke: #2ca02c"/>
     <use xlink:href="#m57460c062a" x="103.054559" y="152.763979" style="fill: #2ca02c; stroke: #2ca02c"/>
     <use xlink:href="#m57460c062a" x="106.26896" y="128.645638" style="fill: #2ca02c; stroke: #2ca02c"/>
     <use xlink:href="#m57460c062a" x="106.301429" y="146.010208" style="fill: #2ca02c; stroke: #2ca02c"/>
     <use xlink:href="#m57460c062a" x="109.548299" y="137.779049" style="fill: #2ca02c; stroke: #2ca02c"/>
     <use xlink:href="#m57460c062a" x="112.795169" y="139.256446" style="fill: #2ca02c; stroke: #2ca02c"/>
     <use xlink:href="#m57460c062a" x="116.042039" y="125.326786" style="fill: #2ca02c; stroke: #2ca02c"/>
     <use xlink:href="#m57460c062a" x="119.288909" y="126.804164" style="fill: #2ca02c; stroke: #2ca02c"/>
     <use xlink:href="#m57460c062a" x="122.535779" y="119.628293" style="fill: #2ca02c; stroke: #2ca02c"/>
     <use xlink:href="#m57460c062a" x="125.78265" y="112.874541" style="fill: #2ca02c; stroke: #2ca02c"/>
     <use xlink:href="#m57460c062a" x="129.02952" y="124.904667" style="fill: #2ca02c; stroke: #2ca02c"/>
     <use xlink:href="#m57460c062a" x="132.27639" y="113.929801" style="fill: #2ca02c; stroke: #2ca02c"/>
     <use xlink:href="#m57460c062a" x="135.52326" y="123.427288" style="fill: #2ca02c; stroke: #2ca02c"/>
     <use xlink:href="#m57460c062a" x="138.737661" y="103.04991" style="fill: #2ca02c; stroke: #2ca02c"/>
     <use xlink:href="#m57460c062a" x="138.77013" y="114.35192" style="fill: #2ca02c; stroke: #2ca02c"/>
     <use xlink:href="#m57460c062a" x="142.017" y="106.75393" style="fill: #2ca02c; stroke: #2ca02c"/>
     <use xlink:href="#m57460c062a" x="145.26387" y="102.954935" style="fill: #2ca02c; stroke: #2ca02c"/>
     <use xlink:href="#m57460c062a" x="148.510741" y="98.522762" style="fill: #2ca02c; stroke: #2ca02c"/>
     <use xlink:href="#m57460c062a" x="151.757611" y="98.100661" style="fill: #2ca02c; stroke: #2ca02c"/>
     <use xlink:href="#m57460c062a" x="155.004481" y="94.723767" style="fill: #2ca02c; stroke: #2ca02c"/>
     <use xlink:href="#m57460c062a" x="158.251351" y="89.447393" style="fill: #2ca02c; stroke: #2ca02c"/>
     <use xlink:href="#m57460c062a" x="161.498221" y="85.648398" style="fill: #2ca02c; stroke: #2ca02c"/>
     <use xlink:href="#m57460c062a" x="164.745091" y="81.849403" style="fill: #2ca02c; stroke: #2ca02c"/>
     <use xlink:href="#m57460c062a" x="167.991961" y="80.372024" style="fill: #2ca02c; stroke: #2ca02c"/>
     <use xlink:href="#m57460c062a" x="171.206363" y="78.831317" style="fill: #2ca02c; stroke: #2ca02c"/>
     <use xlink:href="#m57460c062a" x="171.238832" y="78.894627" style="fill: #2ca02c; stroke: #2ca02c"/>
     <use xlink:href="#m57460c062a" x="174.485702" y="69.39714" style="fill: #2ca02c; stroke: #2ca02c"/>
     <use xlink:href="#m57460c062a" x="177.732572" y="66.020245" style="fill: #2ca02c; stroke: #2ca02c"/>
     <use xlink:href="#m57460c062a" x="180.979442" y="62.643369" style="fill: #2ca02c; stroke: #2ca02c"/>
     <use xlink:href="#m57460c062a" x="184.226312" y="68.341861" style="fill: #2ca02c; stroke: #2ca02c"/>
     <use xlink:href="#m57460c062a" x="187.473182" y="66.442364" style="fill: #2ca02c; stroke: #2ca02c"/>
     <use xlink:href="#m57460c062a" x="190.720052" y="64.542866" style="fill: #2ca02c; stroke: #2ca02c"/>
     <use xlink:href="#m57460c062a" x="193.966923" y="64.542866" style="fill: #2ca02c; stroke: #2ca02c"/>
     <use xlink:href="#m57460c062a" x="197.213793" y="60.743871" style="fill: #2ca02c; stroke: #2ca02c"/>
     <use xlink:href="#m57460c062a" x="200.460663" y="62.643369" style="fill: #2ca02c; stroke: #2ca02c"/>
     <use xlink:href="#m57460c062a" x="203.675064" y="71.803176" style="fill: #2ca02c; stroke: #2ca02c"/>
     <use xlink:href="#m57460c062a" x="203.707533" y="62.643369" style="fill: #2ca02c; stroke: #2ca02c"/>
     <use xlink:href="#m57460c062a" x="206.954403" y="59.266492" style="fill: #2ca02c; stroke: #2ca02c"/>
     <use xlink:href="#m57460c062a" x="210.201273" y="62.22125" style="fill: #2ca02c; stroke: #2ca02c"/>
     <use xlink:href="#m57460c062a" x="213.448143" y="64.120747" style="fill: #2ca02c; stroke: #2ca02c"/>
     <use xlink:href="#m57460c062a" x="216.695014" y="57.366995" style="fill: #2ca02c; stroke: #2ca02c"/>
     <use xlink:href="#m57460c062a" x="219.941884" y="55.467497" style="fill: #2ca02c; stroke: #2ca02c"/>
     <use xlink:href="#m57460c062a" x="223.188754" y="58.844374" style="fill: #2ca02c; stroke: #2ca02c"/>
     <use xlink:href="#m57460c062a" x="226.435624" y="56.944876" style="fill: #2ca02c; stroke: #2ca02c"/>
     <use xlink:href="#m57460c062a" x="229.682494" y="58.844374" style="fill: #2ca02c; stroke: #2ca02c"/>
     <use xlink:href="#m57460c062a" x="232.929364" y="53.568" style="fill: #2ca02c; stroke: #2ca02c"/>
     <use xlink:href="#m57460c062a" x="236.143766" y="66.152171" style="fill: #2ca02c; stroke: #2ca02c"/>
     <use xlink:href="#m57460c062a" x="236.176234" y="60.743871" style="fill: #2ca02c; stroke: #2ca02c"/>
     <use xlink:href="#m57460c062a" x="239.423104" y="58.844374" style="fill: #2ca02c; stroke: #2ca02c"/>
     <use xlink:href="#m57460c062a" x="242.669975" y="60.743871" style="fill: #2ca02c; stroke: #2ca02c"/>
     <use xlink:href="#m57460c062a" x="245.916845" y="58.844374" style="fill: #2ca02c; stroke: #2ca02c"/>
     <use xlink:href="#m57460c062a" x="249.163715" y="56.944876" style="fill: #2ca02c; stroke: #2ca02c"/>
     <use xlink:href="#m57460c062a" x="252.410585" y="55.467497" style="fill: #2ca02c; stroke: #2ca02c"/>
     <use xlink:href="#m57460c062a" x="255.657455" y="58.844374" style="fill: #2ca02c; stroke: #2ca02c"/>
     <use xlink:href="#m57460c062a" x="258.904325" y="58.844374" style="fill: #2ca02c; stroke: #2ca02c"/>
     <use xlink:href="#m57460c062a" x="262.151195" y="60.743871" style="fill: #2ca02c; stroke: #2ca02c"/>
     <use xlink:href="#m57460c062a" x="265.398066" y="58.844374" style="fill: #2ca02c; stroke: #2ca02c"/>
     <use xlink:href="#m57460c062a" x="268.612467" y="66.152171" style="fill: #2ca02c; stroke: #2ca02c"/>
     <use xlink:href="#m57460c062a" x="268.644936" y="60.743871" style="fill: #2ca02c; stroke: #2ca02c"/>
     <use xlink:href="#m57460c062a" x="271.891806" y="55.467497" style="fill: #2ca02c; stroke: #2ca02c"/>
     <use xlink:href="#m57460c062a" x="275.138676" y="62.643369" style="fill: #2ca02c; stroke: #2ca02c"/>
     <use xlink:href="#m57460c062a" x="278.385546" y="64.542866" style="fill: #2ca02c; stroke: #2ca02c"/>
     <use xlink:href="#m57460c062a" x="281.632416" y="64.120747" style="fill: #2ca02c; stroke: #2ca02c"/>
     <use xlink:href="#m57460c062a" x="284.879286" y="60.743871" style="fill: #2ca02c; stroke: #2ca02c"/>
     <use xlink:href="#m57460c062a" x="288.126157" y="62.643369" style="fill: #2ca02c; stroke: #2ca02c"/>
     <use xlink:href="#m57460c062a" x="291.373027" y="62.643369" style="fill: #2ca02c; stroke: #2ca02c"/>
     <use xlink:href="#m57460c062a" x="294.619897" y="62.22125" style="fill: #2ca02c; stroke: #2ca02c"/>
     <use xlink:href="#m57460c062a" x="297.866767" y="71.296637" style="fill: #2ca02c; stroke: #2ca02c"/>
     <use xlink:href="#m57460c062a" x="301.081168" y="78.688854" style="fill: #2ca02c; stroke: #2ca02c"/>
     <use xlink:href="#m57460c062a" x="301.113637" y="73.196135" style="fill: #2ca02c; stroke: #2ca02c"/>
     <use xlink:href="#m57460c062a" x="304.360507" y="73.196135" style="fill: #2ca02c; stroke: #2ca02c"/>
     <use xlink:href="#m57460c062a" x="307.607377" y="69.81924" style="fill: #2ca02c; stroke: #2ca02c"/>
     <use xlink:href="#m57460c062a" x="310.854248" y="73.196135" style="fill: #2ca02c; stroke: #2ca02c"/>
     <use xlink:href="#m57460c062a" x="314.101118" y="69.81924" style="fill: #2ca02c; stroke: #2ca02c"/>
     <use xlink:href="#m57460c062a" x="317.347988" y="69.81924" style="fill: #2ca02c; stroke: #2ca02c"/>
     <use xlink:href="#m57460c062a" x="320.594858" y="71.296637" style="fill: #2ca02c; stroke: #2ca02c"/>
     <use xlink:href="#m57460c062a" x="323.841728" y="73.196135" style="fill: #2ca02c; stroke: #2ca02c"/>
     <use xlink:href="#m57460c062a" x="327.088598" y="71.296637" style="fill: #2ca02c; stroke: #2ca02c"/>
     <use xlink:href="#m57460c062a" x="330.335468" y="71.296637" style="fill: #2ca02c; stroke: #2ca02c"/>
     <use xlink:href="#m57460c062a" x="333.54987" y="77.359206" style="fill: #2ca02c; stroke: #2ca02c"/>
     <use xlink:href="#m57460c062a" x="333.582339" y="71.296637" style="fill: #2ca02c; stroke: #2ca02c"/>
     <use xlink:href="#m57460c062a" x="336.829209" y="66.020245" style="fill: #2ca02c; stroke: #2ca02c"/>
     <use xlink:href="#m57460c062a" x="340.076079" y="71.296637" style="fill: #2ca02c; stroke: #2ca02c"/>
     <use xlink:href="#m57460c062a" x="343.322949" y="69.39714" style="fill: #2ca02c; stroke: #2ca02c"/>
     <use xlink:href="#m57460c062a" x="346.569819" y="71.296637" style="fill: #2ca02c; stroke: #2ca02c"/>
     <use xlink:href="#m57460c062a" x="349.816689" y="69.81924" style="fill: #2ca02c; stroke: #2ca02c"/>
     <use xlink:href="#m57460c062a" x="353.063559" y="67.919742" style="fill: #2ca02c; stroke: #2ca02c"/>
     <use xlink:href="#m57460c062a" x="356.31043" y="69.81924" style="fill: #2ca02c; stroke: #2ca02c"/>
     <use xlink:href="#m57460c062a" x="359.5573" y="71.296637" style="fill: #2ca02c; stroke: #2ca02c"/>
     <use xlink:href="#m57460c062a" x="362.80417" y="67.919742" style="fill: #2ca02c; stroke: #2ca02c"/>
     <use xlink:href="#m57460c062a" x="366.018571" y="74.652422" style="fill: #2ca02c; stroke: #2ca02c"/>
     <use xlink:href="#m57460c062a" x="366.05104" y="71.296637" style="fill: #2ca02c; stroke: #2ca02c"/>
     <use xlink:href="#m57460c062a" x="369.29791" y="67.919742" style="fill: #2ca02c; stroke: #2ca02c"/>
     <use xlink:href="#m57460c062a" x="372.54478" y="69.81924" style="fill: #2ca02c; stroke: #2ca02c"/>
     <use xlink:href="#m57460c062a" x="375.79165" y="66.020245" style="fill: #2ca02c; stroke: #2ca02c"/>
     <use xlink:href="#m57460c062a" x="379.038521" y="66.020245" style="fill: #2ca02c; stroke: #2ca02c"/>
     <use xlink:href="#m57460c062a" x="382.285391" y="67.919742" style="fill: #2ca02c; stroke: #2ca02c"/>
     <use xlink:href="#m57460c062a" x="385.532261" y="67.919742" style="fill: #2ca02c; stroke: #2ca02c"/>
     <use xlink:href="#m57460c062a" x="388.779131" y="71.296637" style="fill: #2ca02c; stroke: #2ca02c"/>
     <use xlink:href="#m57460c062a" x="392.026001" y="64.542866" style="fill: #2ca02c; stroke: #2ca02c"/>
     <use xlink:href="#m57460c062a" x="395.272871" y="67.919742" style="fill: #2ca02c; stroke: #2ca02c"/>
     <use xlink:href="#m57460c062a" x="398.487273" y="73.322774" style="fill: #2ca02c; stroke: #2ca02c"/>
    </g>
   </g>
   <g id="line2d_16">
    <path d="M 73.832727 120.472531 
L 77.079597 120.472531 
L 80.326468 121.105672 
L 83.573338 113.929801 
L 86.820208 101.477556 
L 90.067078 88.181074 
L 93.313948 81.005184 
L 96.560818 82.904681 
L 99.807688 81.005184 
L 103.054559 74.251413 
L 106.26896 66.057196 
L 106.301429 72.351915 
L 109.548299 65.598145 
L 112.795169 60.321752 
L 116.042039 56.944876 
L 119.288909 64.120747 
L 122.535779 64.120747 
L 125.78265 65.598145 
L 129.02952 68.975039 
L 132.27639 68.975039 
L 135.52326 62.22125 
L 138.737661 58.554181 
L 138.77013 62.22125 
L 142.017 67.075542 
L 145.26387 65.598145 
L 148.510741 55.467497 
L 151.757611 53.568 
L 155.004481 53.568 
L 158.251351 56.944876 
L 161.498221 53.568 
L 164.745091 53.568 
L 167.991961 53.568 
L 171.206363 53.568 
L 171.238832 53.568 
L 174.485702 53.568 
L 177.732572 53.568 
L 180.979442 53.568 
L 184.226312 53.568 
L 187.473182 53.568 
L 190.720052 53.568 
L 193.966923 53.568 
L 197.213793 53.568 
L 200.460663 53.568 
L 203.675064 53.568 
L 203.707533 53.568 
L 206.954403 53.568 
L 210.201273 53.568 
L 213.448143 53.568 
L 216.695014 53.568 
L 219.941884 53.568 
L 223.188754 53.568 
L 226.435624 53.568 
L 229.682494 53.568 
L 232.929364 53.568 
L 236.143766 53.568 
L 236.176234 53.568 
L 239.423104 53.568 
L 242.669975 53.568 
L 245.916845 53.568 
L 249.163715 53.568 
L 252.410585 53.568 
L 255.657455 53.568 
L 258.904325 53.568 
L 262.151195 53.568 
L 265.398066 53.568 
L 268.612467 53.568 
L 268.644936 53.568 
L 271.891806 53.568 
L 275.138676 53.568 
L 278.385546 53.568 
L 281.632416 53.568 
L 284.879286 53.568 
L 288.126157 53.568 
L 291.373027 53.568 
L 294.619897 53.568 
L 297.866767 53.568 
L 301.081168 53.568 
L 301.113637 53.568 
L 304.360507 53.568 
L 307.607377 53.568 
L 310.854248 53.568 
L 314.101118 53.568 
L 317.347988 53.568 
L 320.594858 53.568 
L 323.841728 53.568 
L 327.088598 53.568 
L 330.335468 53.568 
L 333.54987 53.568 
L 333.582339 53.568 
L 336.829209 53.568 
L 340.076079 53.568 
L 343.322949 53.568 
L 346.569819 53.568 
L 349.816689 53.568 
L 353.063559 53.568 
L 356.31043 53.568 
L 359.5573 53.568 
L 362.80417 53.568 
L 366.018571 53.568 
L 366.05104 53.568 
L 369.29791 53.568 
L 372.54478 53.568 
L 375.79165 53.568 
L 379.038521 53.568 
L 382.285391 53.568 
L 385.532261 53.568 
L 388.779131 53.568 
L 392.026001 53.568 
L 395.272871 53.568 
L 398.487273 53.568 
" clip-path="url(#pe741a67197)" style="fill: none; stroke-dasharray: 5.55,2.4; stroke-dashoffset: 0; stroke: #d62728; stroke-width: 1.5"/>
   </g>
   <g id="line2d_17">
    <path d="M 73.832727 252.765588 
L 77.079597 260.819713 
L 80.326468 280.066251 
L 83.573338 270.499055 
L 86.820208 272.795337 
L 90.067078 285.55996 
L 93.313948 287.433242 
L 96.560818 289.078059 
L 99.807688 288.635995 
L 103.054559 288.291444 
L 106.26896 290.365565 
L 106.301429 288.471033 
L 109.548299 288.085387 
L 112.795169 287.979398 
L 116.042039 287.221387 
L 119.288909 288.700462 
L 122.535779 289.963814 
L 125.78265 290.22006 
L 129.02952 290.483457 
L 132.27639 291.739658 
L 135.52326 291.330176 
L 138.737661 291.609539 
L 138.77013 292.063839 
L 142.017 291.840965 
L 145.26387 291.739658 
L 148.510741 291.707374 
L 151.757611 290.885789 
L 155.004481 290.59371 
L 158.251351 291.146291 
L 161.498221 291.035775 
L 164.745091 291.083139 
L 167.991961 291.193656 
L 171.206363 291.834907 
L 171.238832 290.382151 
L 174.485702 291.300663 
L 177.732572 291.840965 
L 180.979442 291.992925 
L 184.226312 292.833769 
L 187.473182 292.418412 
L 190.720052 292.144884 
L 193.966923 292.752724 
L 197.213793 292.36197 
L 200.460663 293.15795 
L 203.675064 292.618854 
L 203.707533 292.296844 
L 206.954403 292.840523 
L 210.201273 291.840965 
L 213.448143 292.69194 
L 216.695014 293.143477 
L 219.941884 293.380824 
L 223.188754 293.056643 
L 226.435624 291.840965 
L 229.682494 292.246191 
L 232.929364 291.597829 
M 236.176234 291.962533 
L 239.423104 292.651417 
L 242.669975 292.813508 
L 245.916845 292.408281 
L 249.163715 292.813508 
L 252.410585 293.664482 
L 255.657455 292.651417 
L 258.904325 293.056643 
L 262.151195 293.360563 
L 265.398066 292.651417 
L 268.612467 293.336683 
L 268.644936 293.259256 
L 271.891806 292.85403 
L 275.138676 293.218734 
L 278.385546 294.44599 
L 281.632416 293.563176 
L 284.879286 293.461869 
L 288.126157 294.069709 
L 291.373027 293.867095 
L 294.619897 290.625286 
L 297.866767 292.839558 
L 301.081168 292.685729 
L 301.113637 293.259256 
L 304.360507 293.664482 
L 307.607377 293.016121 
L 310.854248 291.102874 
L 314.101118 292.752724 
L 317.347988 292.570372 
L 320.594858 293.360563 
L 323.841728 293.056643 
L 327.088598 292.651417 
L 330.335468 292.85403 
L 333.54987 293.361166 
L 333.582339 292.882975 
L 336.829209 292.91192 
L 340.076079 292.101467 
L 343.322949 292.752724 
L 346.569819 293.147819 
L 349.816689 292.995859 
L 353.063559 293.360563 
L 356.31043 292.600764 
L 359.5573 292.600764 
L 362.80417 292.904683 
L 366.018571 293.626975 
L 366.05104 292.36197 
L 369.29791 292.843899 
L 372.54478 292.431437 
L 375.79165 292.431437 
L 379.038521 292.36197 
L 382.285391 292.257769 
L 385.532261 292.752724 
L 388.779131 292.492221 
L 392.026001 292.448804 
L 395.272871 292.144884 
L 398.487273 293.334151 
" clip-path="url(#pe741a67197)" style="fill: none; stroke: #9467bd; stroke-width: 1.5; stroke-linecap: square"/>
   </g>
   <g id="line2d_18">
    <path d="M 73.832727 249.043007 
L 77.079597 262.181272 
L 80.326468 272.249348 
L 83.573338 286.826291 
L 86.820208 279.785487 
L 90.067078 284.56289 
L 93.313948 286.54408 
L 96.560818 288.666693 
L 99.807688 290.895437 
L 103.054559 291.273648 
L 106.26896 290.01767 
L 106.301429 291.42995 
L 109.548299 291.11033 
L 112.795169 291.840965 
L 116.042039 291.206111 
L 119.288909 290.92722 
L 122.535779 290.635417 
L 125.78265 290.746854 
L 129.02952 290.707013 
L 132.27639 290.562944 
L 135.52326 291.334432 
L 138.737661 290.491974 
L 138.77013 291.424161 
L 142.017 290.05797 
L 145.26387 291.030513 
L 148.510741 291.030513 
L 151.757611 291.63572 
L 155.004481 292.154094 
L 158.251351 291.719397 
L 161.498221 292.175276 
L 164.745091 292.165146 
L 167.991961 292.014633 
L 171.206363 292.078196 
L 171.238832 293.107296 
L 174.485702 291.435739 
L 177.732572 291.638352 
L 180.979442 290.625286 
L 184.226312 291.638352 
L 187.473182 293.542915 
L 190.720052 293.056643 
L 193.966923 293.664482 
L 197.213793 292.448804 
L 200.460663 293.867095 
L 203.675064 292.118291 
L 203.707533 293.056643 
M 210.201273 293.056643 
L 213.448143 293.664482 
M 223.188754 294.272322 
M 229.682494 294.272322 
M 236.176234 294.272322 
L 239.423104 294.272322 
L 242.669975 295.488 
L 245.916845 295.488 
M 255.657455 295.488 
L 258.904325 295.488 
L 262.151195 294.272322 
L 265.398066 293.056643 
M 268.644936 294.272322 
M 275.138676 295.082774 
L 278.385546 294.576241 
L 281.632416 294.272322 
L 284.879286 294.880161 
L 288.126157 294.677548 
L 291.373027 293.461869 
L 294.619897 292.448804 
L 297.866767 290.929206 
L 301.081168 292.598577 
L 301.113637 292.651417 
L 304.360507 292.651417 
L 307.607377 291.840965 
L 310.854248 292.894553 
L 314.101118 293.178211 
L 317.347988 293.421347 
L 320.594858 293.765789 
L 323.841728 294.191276 
L 327.088598 294.069709 
L 330.335468 293.664482 
L 333.54987 293.34341 
L 333.582339 293.360563 
L 336.829209 293.461869 
L 340.076079 294.677548 
L 343.322949 293.461869 
L 346.569819 293.563176 
L 349.816689 294.272322 
L 353.063559 293.360563 
L 356.31043 293.421347 
L 359.5573 293.968402 
L 362.80417 293.968402 
L 366.018571 293.777367 
L 366.05104 293.968402 
L 369.29791 293.664482 
L 372.54478 294.029186 
L 375.79165 293.259256 
L 379.038521 293.867095 
L 382.285391 293.056643 
L 385.532261 293.968402 
L 388.779131 293.563176 
L 392.026001 294.272322 
L 395.272871 293.360563 
L 398.487273 293.797677 
" clip-path="url(#pe741a67197)" style="fill: none; stroke: #8c564b; stroke-width: 1.5; stroke-linecap: square"/>
   </g>
   <g id="patch_3">
    <path d="M 57.6 307.584 
L 57.6 41.472 
" style="fill: none; stroke: #000000; stroke-width: 0.8; stroke-linejoin: miter; stroke-linecap: square"/>
   </g>
   <g id="patch_4">
    <path d="M 414.72 307.584 
L 414.72 41.472 
" style="fill: none; stroke: #000000; stroke-width: 0.8; stroke-linejoin: miter; stroke-linecap: square"/>
   </g>
   <g id="patch_5">
    <path d="M 57.6 307.584 
L 414.72 307.584 
" style="fill: none; stroke: #000000; stroke-width: 0.8; stroke-linejoin: miter; stroke-linecap: square"/>
   </g>
   <g id="patch_6">
    <path d="M 57.6 41.472 
L 414.72 41.472 
" style="fill: none; stroke: #000000; stroke-width: 0.8; stroke-linejoin: miter; stroke-linecap: square"/>
   </g>
   <g id="legend_1">
    <g id="patch_7">
     <path d="M 299.368438 220.062375 
L 407.72 220.062375 
Q 409.72 220.062375 409.72 218.062375 
L 409.72 130.993625 
Q 409.72 128.993625 407.72 128.993625 
L 299.368438 128.993625 
Q 297.368438 128.993625 297.368438 130.993625 
L 297.368438 218.062375 
Q 297.368438 220.062375 299.368438 220.062375 
z
" style="fill: #ffffff; opacity: 0.8; stroke: #cccccc; stroke-linejoin: miter"/>
    </g>
    <g id="line2d_19">
     <path d="M 301.368438 137.092062 
L 311.368438 137.092062 
L 321.368438 137.092062 
" style="fill: none; stroke: #1f77b4; stroke-width: 1.5; stroke-linecap: square"/>
     <g>
      <use xlink:href="#mc2eb987520" x="311.368438" y="137.092062" style="fill: #1f77b4; stroke: #1f77b4"/>
     </g>
    </g>
    <g id="text_13">
     <!-- top1 (test) -->
     <g transform="translate(329.368438 140.592062) scale(0.1 -0.1)">
      <defs>
       <path id="DejaVuSans-74" d="M 1172 4494 
L 1172 3500 
L 2356 3500 
L 2356 3053 
L 1172 3053 
L 1172 1153 
Q 1172 725 1289 603 
Q 1406 481 1766 481 
L 2356 481 
L 2356 0 
L 1766 0 
Q 1100 0 847 248 
Q 594 497 594 1153 
L 594 3053 
L 172 3053 
L 172 3500 
L 594 3500 
L 594 4494 
L 1172 4494 
z
" transform="scale(0.015625)"/>
       <path id="DejaVuSans-6f" d="M 1959 3097 
Q 1497 3097 1228 2736 
Q 959 2375 959 1747 
Q 959 1119 1226 758 
Q 1494 397 1959 397 
Q 2419 397 2687 759 
Q 2956 1122 2956 1747 
Q 2956 2369 2687 2733 
Q 2419 3097 1959 3097 
z
M 1959 3584 
Q 2709 3584 3137 3096 
Q 3566 2609 3566 1747 
Q 3566 888 3137 398 
Q 2709 -91 1959 -91 
Q 1206 -91 779 398 
Q 353 888 353 1747 
Q 353 2609 779 3096 
Q 1206 3584 1959 3584 
z
" transform="scale(0.015625)"/>
       <path id="DejaVuSans-70" d="M 1159 525 
L 1159 -1331 
L 581 -1331 
L 581 3500 
L 1159 3500 
L 1159 2969 
Q 1341 3281 1617 3432 
Q 1894 3584 2278 3584 
Q 2916 3584 3314 3078 
Q 3713 2572 3713 1747 
Q 3713 922 3314 415 
Q 2916 -91 2278 -91 
Q 1894 -91 1617 61 
Q 1341 213 1159 525 
z
M 3116 1747 
Q 3116 2381 2855 2742 
Q 2594 3103 2138 3103 
Q 1681 3103 1420 2742 
Q 1159 2381 1159 1747 
Q 1159 1113 1420 752 
Q 1681 391 2138 391 
Q 2594 391 2855 752 
Q 3116 1113 3116 1747 
z
" transform="scale(0.015625)"/>
       <path id="DejaVuSans-20" transform="scale(0.015625)"/>
       <path id="DejaVuSans-28" d="M 1984 4856 
Q 1566 4138 1362 3434 
Q 1159 2731 1159 2009 
Q 1159 1288 1364 580 
Q 1569 -128 1984 -844 
L 1484 -844 
Q 1016 -109 783 600 
Q 550 1309 550 2009 
Q 550 2706 781 3412 
Q 1013 4119 1484 4856 
L 1984 4856 
z
" transform="scale(0.015625)"/>
       <path id="DejaVuSans-65" d="M 3597 1894 
L 3597 1613 
L 953 1613 
Q 991 1019 1311 708 
Q 1631 397 2203 397 
Q 2534 397 2845 478 
Q 3156 559 3463 722 
L 3463 178 
Q 3153 47 2828 -22 
Q 2503 -91 2169 -91 
Q 1331 -91 842 396 
Q 353 884 353 1716 
Q 353 2575 817 3079 
Q 1281 3584 2069 3584 
Q 2775 3584 3186 3129 
Q 3597 2675 3597 1894 
z
M 3022 2063 
Q 3016 2534 2758 2815 
Q 2500 3097 2075 3097 
Q 1594 3097 1305 2825 
Q 1016 2553 972 2059 
L 3022 2063 
z
" transform="scale(0.015625)"/>
       <path id="DejaVuSans-73" d="M 2834 3397 
L 2834 2853 
Q 2591 2978 2328 3040 
Q 2066 3103 1784 3103 
Q 1356 3103 1142 2972 
Q 928 2841 928 2578 
Q 928 2378 1081 2264 
Q 1234 2150 1697 2047 
L 1894 2003 
Q 2506 1872 2764 1633 
Q 3022 1394 3022 966 
Q 3022 478 2636 193 
Q 2250 -91 1575 -91 
Q 1294 -91 989 -36 
Q 684 19 347 128 
L 347 722 
Q 666 556 975 473 
Q 1284 391 1588 391 
Q 1994 391 2212 530 
Q 2431 669 2431 922 
Q 2431 1156 2273 1281 
Q 2116 1406 1581 1522 
L 1381 1569 
Q 847 1681 609 1914 
Q 372 2147 372 2553 
Q 372 3047 722 3315 
Q 1072 3584 1716 3584 
Q 2034 3584 2315 3537 
Q 2597 3491 2834 3397 
z
" transform="scale(0.015625)"/>
       <path id="DejaVuSans-29" d="M 513 4856 
L 1013 4856 
Q 1481 4119 1714 3412 
Q 1947 2706 1947 2009 
Q 1947 1309 1714 600 
Q 1481 -109 1013 -844 
L 513 -844 
Q 928 -128 1133 580 
Q 1338 1288 1338 2009 
Q 1338 2731 1133 3434 
Q 928 4138 513 4856 
z
" transform="scale(0.015625)"/>
      </defs>
      <use xlink:href="#DejaVuSans-74"/>
      <use xlink:href="#DejaVuSans-6f" transform="translate(39.208984 0)"/>
      <use xlink:href="#DejaVuSans-70" transform="translate(100.390625 0)"/>
      <use xlink:href="#DejaVuSans-31" transform="translate(163.867188 0)"/>
      <use xlink:href="#DejaVuSans-20" transform="translate(227.490234 0)"/>
      <use xlink:href="#DejaVuSans-28" transform="translate(259.277344 0)"/>
      <use xlink:href="#DejaVuSans-74" transform="translate(298.291016 0)"/>
      <use xlink:href="#DejaVuSans-65" transform="translate(337.5 0)"/>
      <use xlink:href="#DejaVuSans-73" transform="translate(399.023438 0)"/>
      <use xlink:href="#DejaVuSans-74" transform="translate(451.123047 0)"/>
      <use xlink:href="#DejaVuSans-29" transform="translate(490.332031 0)"/>
     </g>
    </g>
    <g id="line2d_20">
     <path d="M 301.368438 151.770187 
L 311.368438 151.770187 
L 321.368438 151.770187 
" style="fill: none; stroke: #ff7f0e; stroke-width: 1.5; stroke-linecap: square"/>
    </g>
    <g id="text_14">
     <!-- top3 (test) -->
     <g transform="translate(329.368438 155.270187) scale(0.1 -0.1)">
      <defs>
       <path id="DejaVuSans-33" d="M 2597 2516 
Q 3050 2419 3304 2112 
Q 3559 1806 3559 1356 
Q 3559 666 3084 287 
Q 2609 -91 1734 -91 
Q 1441 -91 1130 -33 
Q 819 25 488 141 
L 488 750 
Q 750 597 1062 519 
Q 1375 441 1716 441 
Q 2309 441 2620 675 
Q 2931 909 2931 1356 
Q 2931 1769 2642 2001 
Q 2353 2234 1838 2234 
L 1294 2234 
L 1294 2753 
L 1863 2753 
Q 2328 2753 2575 2939 
Q 2822 3125 2822 3475 
Q 2822 3834 2567 4026 
Q 2313 4219 1838 4219 
Q 1578 4219 1281 4162 
Q 984 4106 628 3988 
L 628 4550 
Q 988 4650 1302 4700 
Q 1616 4750 1894 4750 
Q 2613 4750 3031 4423 
Q 3450 4097 3450 3541 
Q 3450 3153 3228 2886 
Q 3006 2619 2597 2516 
z
" transform="scale(0.015625)"/>
      </defs>
      <use xlink:href="#DejaVuSans-74"/>
      <use xlink:href="#DejaVuSans-6f" transform="translate(39.208984 0)"/>
      <use xlink:href="#DejaVuSans-70" transform="translate(100.390625 0)"/>
      <use xlink:href="#DejaVuSans-33" transform="translate(163.867188 0)"/>
      <use xlink:href="#DejaVuSans-20" transform="translate(227.490234 0)"/>
      <use xlink:href="#DejaVuSans-28" transform="translate(259.277344 0)"/>
      <use xlink:href="#DejaVuSans-74" transform="translate(298.291016 0)"/>
      <use xlink:href="#DejaVuSans-65" transform="translate(337.5 0)"/>
      <use xlink:href="#DejaVuSans-73" transform="translate(399.023438 0)"/>
      <use xlink:href="#DejaVuSans-74" transform="translate(451.123047 0)"/>
      <use xlink:href="#DejaVuSans-29" transform="translate(490.332031 0)"/>
     </g>
    </g>
    <g id="line2d_21">
     <path d="M 301.368438 166.448312 
L 311.368438 166.448312 
L 321.368438 166.448312 
" style="fill: none; stroke-dasharray: 5.55,2.4; stroke-dashoffset: 0; stroke: #2ca02c; stroke-width: 1.5"/>
     <g>
      <use xlink:href="#m57460c062a" x="311.368438" y="166.448312" style="fill: #2ca02c; stroke: #2ca02c"/>
     </g>
    </g>
    <g id="text_15">
     <!-- top1 (train) -->
     <g transform="translate(329.368438 169.948312) scale(0.1 -0.1)">
      <defs>
       <path id="DejaVuSans-72" d="M 2631 2963 
Q 2534 3019 2420 3045 
Q 2306 3072 2169 3072 
Q 1681 3072 1420 2755 
Q 1159 2438 1159 1844 
L 1159 0 
L 581 0 
L 581 3500 
L 1159 3500 
L 1159 2956 
Q 1341 3275 1631 3429 
Q 1922 3584 2338 3584 
Q 2397 3584 2469 3576 
Q 2541 3569 2628 3553 
L 2631 2963 
z
" transform="scale(0.015625)"/>
       <path id="DejaVuSans-61" d="M 2194 1759 
Q 1497 1759 1228 1600 
Q 959 1441 959 1056 
Q 959 750 1161 570 
Q 1363 391 1709 391 
Q 2188 391 2477 730 
Q 2766 1069 2766 1631 
L 2766 1759 
L 2194 1759 
z
M 3341 1997 
L 3341 0 
L 2766 0 
L 2766 531 
Q 2569 213 2275 61 
Q 1981 -91 1556 -91 
Q 1019 -91 701 211 
Q 384 513 384 1019 
Q 384 1609 779 1909 
Q 1175 2209 1959 2209 
L 2766 2209 
L 2766 2266 
Q 2766 2663 2505 2880 
Q 2244 3097 1772 3097 
Q 1472 3097 1187 3025 
Q 903 2953 641 2809 
L 641 3341 
Q 956 3463 1253 3523 
Q 1550 3584 1831 3584 
Q 2591 3584 2966 3190 
Q 3341 2797 3341 1997 
z
" transform="scale(0.015625)"/>
       <path id="DejaVuSans-69" d="M 603 3500 
L 1178 3500 
L 1178 0 
L 603 0 
L 603 3500 
z
M 603 4863 
L 1178 4863 
L 1178 4134 
L 603 4134 
L 603 4863 
z
" transform="scale(0.015625)"/>
       <path id="DejaVuSans-6e" d="M 3513 2113 
L 3513 0 
L 2938 0 
L 2938 2094 
Q 2938 2591 2744 2837 
Q 2550 3084 2163 3084 
Q 1697 3084 1428 2787 
Q 1159 2491 1159 1978 
L 1159 0 
L 581 0 
L 581 3500 
L 1159 3500 
L 1159 2956 
Q 1366 3272 1645 3428 
Q 1925 3584 2291 3584 
Q 2894 3584 3203 3211 
Q 3513 2838 3513 2113 
z
" transform="scale(0.015625)"/>
      </defs>
      <use xlink:href="#DejaVuSans-74"/>
      <use xlink:href="#DejaVuSans-6f" transform="translate(39.208984 0)"/>
      <use xlink:href="#DejaVuSans-70" transform="translate(100.390625 0)"/>
      <use xlink:href="#DejaVuSans-31" transform="translate(163.867188 0)"/>
      <use xlink:href="#DejaVuSans-20" transform="translate(227.490234 0)"/>
      <use xlink:href="#DejaVuSans-28" transform="translate(259.277344 0)"/>
      <use xlink:href="#DejaVuSans-74" transform="translate(298.291016 0)"/>
      <use xlink:href="#DejaVuSans-72" transform="translate(337.5 0)"/>
      <use xlink:href="#DejaVuSans-61" transform="translate(378.613281 0)"/>
      <use xlink:href="#DejaVuSans-69" transform="translate(439.892578 0)"/>
      <use xlink:href="#DejaVuSans-6e" transform="translate(467.675781 0)"/>
      <use xlink:href="#DejaVuSans-29" transform="translate(531.054688 0)"/>
     </g>
    </g>
    <g id="line2d_22">
     <path d="M 301.368438 181.126438 
L 311.368438 181.126438 
L 321.368438 181.126438 
" style="fill: none; stroke-dasharray: 5.55,2.4; stroke-dashoffset: 0; stroke: #d62728; stroke-width: 1.5"/>
    </g>
    <g id="text_16">
     <!-- top3 (train) -->
     <g transform="translate(329.368438 184.626438) scale(0.1 -0.1)">
      <use xlink:href="#DejaVuSans-74"/>
      <use xlink:href="#DejaVuSans-6f" transform="translate(39.208984 0)"/>
      <use xlink:href="#DejaVuSans-70" transform="translate(100.390625 0)"/>
      <use xlink:href="#DejaVuSans-33" transform="translate(163.867188 0)"/>
      <use xlink:href="#DejaVuSans-20" transform="translate(227.490234 0)"/>
      <use xlink:href="#DejaVuSans-28" transform="translate(259.277344 0)"/>
      <use xlink:href="#DejaVuSans-74" transform="translate(298.291016 0)"/>
      <use xlink:href="#DejaVuSans-72" transform="translate(337.5 0)"/>
      <use xlink:href="#DejaVuSans-61" transform="translate(378.613281 0)"/>
      <use xlink:href="#DejaVuSans-69" transform="translate(439.892578 0)"/>
      <use xlink:href="#DejaVuSans-6e" transform="translate(467.675781 0)"/>
      <use xlink:href="#DejaVuSans-29" transform="translate(531.054688 0)"/>
     </g>
    </g>
    <g id="line2d_23">
     <path d="M 301.368438 195.804563 
L 311.368438 195.804563 
L 321.368438 195.804563 
" style="fill: none; stroke: #9467bd; stroke-width: 1.5; stroke-linecap: square"/>
    </g>
    <g id="text_17">
     <!-- top2 diff (test) -->
     <g transform="translate(329.368438 199.304563) scale(0.1 -0.1)">
      <defs>
       <path id="DejaVuSans-64" d="M 2906 2969 
L 2906 4863 
L 3481 4863 
L 3481 0 
L 2906 0 
L 2906 525 
Q 2725 213 2448 61 
Q 2172 -91 1784 -91 
Q 1150 -91 751 415 
Q 353 922 353 1747 
Q 353 2572 751 3078 
Q 1150 3584 1784 3584 
Q 2172 3584 2448 3432 
Q 2725 3281 2906 2969 
z
M 947 1747 
Q 947 1113 1208 752 
Q 1469 391 1925 391 
Q 2381 391 2643 752 
Q 2906 1113 2906 1747 
Q 2906 2381 2643 2742 
Q 2381 3103 1925 3103 
Q 1469 3103 1208 2742 
Q 947 2381 947 1747 
z
" transform="scale(0.015625)"/>
       <path id="DejaVuSans-66" d="M 2375 4863 
L 2375 4384 
L 1825 4384 
Q 1516 4384 1395 4259 
Q 1275 4134 1275 3809 
L 1275 3500 
L 2222 3500 
L 2222 3053 
L 1275 3053 
L 1275 0 
L 697 0 
L 697 3053 
L 147 3053 
L 147 3500 
L 697 3500 
L 697 3744 
Q 697 4328 969 4595 
Q 1241 4863 1831 4863 
L 2375 4863 
z
" transform="scale(0.015625)"/>
      </defs>
      <use xlink:href="#DejaVuSans-74"/>
      <use xlink:href="#DejaVuSans-6f" transform="translate(39.208984 0)"/>
      <use xlink:href="#DejaVuSans-70" transform="translate(100.390625 0)"/>
      <use xlink:href="#DejaVuSans-32" transform="translate(163.867188 0)"/>
      <use xlink:href="#DejaVuSans-20" transform="translate(227.490234 0)"/>
      <use xlink:href="#DejaVuSans-64" transform="translate(259.277344 0)"/>
      <use xlink:href="#DejaVuSans-69" transform="translate(322.753906 0)"/>
      <use xlink:href="#DejaVuSans-66" transform="translate(350.537109 0)"/>
      <use xlink:href="#DejaVuSans-66" transform="translate(385.742188 0)"/>
      <use xlink:href="#DejaVuSans-20" transform="translate(420.947266 0)"/>
      <use xlink:href="#DejaVuSans-28" transform="translate(452.734375 0)"/>
      <use xlink:href="#DejaVuSans-74" transform="translate(491.748047 0)"/>
      <use xlink:href="#DejaVuSans-65" transform="translate(530.957031 0)"/>
      <use xlink:href="#DejaVuSans-73" transform="translate(592.480469 0)"/>
      <use xlink:href="#DejaVuSans-74" transform="translate(644.580078 0)"/>
      <use xlink:href="#DejaVuSans-29" transform="translate(683.789062 0)"/>
     </g>
    </g>
    <g id="line2d_24">
     <path d="M 301.368438 210.482687 
L 311.368438 210.482687 
L 321.368438 210.482687 
" style="fill: none; stroke: #8c564b; stroke-width: 1.5; stroke-linecap: square"/>
    </g>
    <g id="text_18">
     <!-- top2 diff (train) -->
     <g transform="translate(329.368438 213.982687) scale(0.1 -0.1)">
      <use xlink:href="#DejaVuSans-74"/>
      <use xlink:href="#DejaVuSans-6f" transform="translate(39.208984 0)"/>
      <use xlink:href="#DejaVuSans-70" transform="translate(100.390625 0)"/>
      <use xlink:href="#DejaVuSans-32" transform="translate(163.867188 0)"/>
      <use xlink:href="#DejaVuSans-20" transform="translate(227.490234 0)"/>
      <use xlink:href="#DejaVuSans-64" transform="translate(259.277344 0)"/>
      <use xlink:href="#DejaVuSans-69" transform="translate(322.753906 0)"/>
      <use xlink:href="#DejaVuSans-66" transform="translate(350.537109 0)"/>
      <use xlink:href="#DejaVuSans-66" transform="translate(385.742188 0)"/>
      <use xlink:href="#DejaVuSans-20" transform="translate(420.947266 0)"/>
      <use xlink:href="#DejaVuSans-28" transform="translate(452.734375 0)"/>
      <use xlink:href="#DejaVuSans-74" transform="translate(491.748047 0)"/>
      <use xlink:href="#DejaVuSans-72" transform="translate(530.957031 0)"/>
      <use xlink:href="#DejaVuSans-61" transform="translate(572.070312 0)"/>
      <use xlink:href="#DejaVuSans-69" transform="translate(633.349609 0)"/>
      <use xlink:href="#DejaVuSans-6e" transform="translate(661.132812 0)"/>
      <use xlink:href="#DejaVuSans-29" transform="translate(724.511719 0)"/>
     </g>
    </g>
   </g>
  </g>
 </g>
 <defs>
  <clipPath id="pe741a67197">
   <rect x="57.6" y="41.472" width="357.12" height="266.112"/>
  </clipPath>
 </defs>
</svg>
