<?xml version="1.0" encoding="utf-8" standalone="no"?>
<!DOCTYPE svg PUBLIC "-//W3C//DTD SVG 1.1//EN"
  "http://www.w3.org/Graphics/SVG/1.1/DTD/svg11.dtd">
<svg xmlns:xlink="http://www.w3.org/1999/xlink" width="432pt" height="288pt" viewBox="0 0 432 288" xmlns="http://www.w3.org/2000/svg" version="1.1">
 <metadata>
  <rdf:RDF xmlns:dc="http://purl.org/dc/elements/1.1/" xmlns:cc="http://creativecommons.org/ns#" xmlns:rdf="http://www.w3.org/1999/02/22-rdf-syntax-ns#">
   <cc:Work>
    <dc:type rdf:resource="http://purl.org/dc/dcmitype/StillImage"/>
    <dc:date>2025-11-15T15:25:30.456925</dc:date>
    <dc:format>image/svg+xml</dc:format>
    <dc:creator>
     <cc:Agent>
      <dc:title>Matplotlib v3.6.2, https://matplotlib.org/</dc:title>
     </cc:Agent>
    </dc:creator>
   </cc:Work>
  </rdf:RDF>
 </metadata>
 <defs>
  <style type="text/css">*{stroke-linejoin: round; stroke-linecap: butt}</style>
 </defs>
 <g id="figure_1">
  <g id="patch_1">
   <path d="M 0 288 
L 432 288 
L 432 0 
L 0 0 
L 0 288 
z
" style="fill: none"/>
  </g>
  <g id="axes_1">
   <g id="patch_2">
    <path d="M 92.655 224.22 
L 414.72 224.22 
L 414.72 17.28 
L 92.655 17.28 
z
" style="fill: #ffffff"/>
   </g>
   <g id="patch_3">
    <path d="M 107.294318 194.657143 
L 147.678644 194.657143 
L 147.678644 194.657143 
L 107.294318 194.657143 
z
" clip-path="url(#p1f9125ec12)" style="fill: #e6e6e6"/>
   </g>
   <g id="patch_4">
    <path d="M 157.774726 194.657143 
L 198.159052 194.657143 
L 198.159052 165.094286 
L 157.774726 165.094286 
z
" clip-path="url(#p1f9125ec12)" style="fill: #e6e6e6"/>
   </g>
   <g id="patch_5">
    <path d="M 208.255133 194.657143 
L 248.639459 194.657143 
L 248.639459 135.531429 
L 208.255133 135.531429 
z
" clip-path="url(#p1f9125ec12)" style="fill: #e6e6e6"/>
   </g>
   <g id="patch_6">
    <path d="M 258.735541 194.657143 
L 299.119867 194.657143 
L 299.119867 105.968571 
L 258.735541 105.968571 
z
" clip-path="url(#p1f9125ec12)" style="fill: #e6e6e6"/>
   </g>
   <g id="patch_7">
    <path d="M 309.215948 194.657143 
L 349.600274 194.657143 
L 349.600274 76.405714 
L 309.215948 76.405714 
z
" clip-path="url(#p1f9125ec12)" style="fill: #e6e6e6"/>
   </g>
   <g id="patch_8">
    <path d="M 359.696356 194.657143 
L 400.080682 194.657143 
L 400.080682 46.842857 
L 359.696356 46.842857 
z
" clip-path="url(#p1f9125ec12)" style="fill: #e6e6e6"/>
   </g>
   <g id="PolyCollection_1">
    <path d="M 140.106583 194.657143 
L 114.866379 194.657143 
L 114.866379 194.657143 
L 114.866379 194.657143 
L 114.866379 194.657143 
L 114.866379 194.657143 
L 114.866379 194.657143 
L 114.866379 194.657143 
L 114.866379 194.657143 
L 114.866379 194.657143 
L 114.866379 194.657143 
L 114.866379 194.657143 
L 114.866379 194.657143 
L 114.866379 194.657143 
L 114.866379 194.657143 
L 114.866379 194.657143 
L 114.866379 194.657143 
L 114.866379 194.657143 
L 114.866379 194.657143 
L 114.866379 194.657143 
L 114.866379 194.657143 
L 114.866379 194.657143 
L 114.866379 194.657143 
L 114.866379 194.657143 
L 114.866379 194.657143 
L 114.866379 194.657143 
L 114.866379 194.657143 
L 114.866379 194.657143 
L 114.866379 194.657143 
L 114.866379 194.657143 
L 114.866379 194.657143 
L 114.866379 194.657143 
L 114.866379 194.657143 
L 114.866379 194.657143 
L 114.866379 194.657143 
L 114.866379 194.657143 
L 114.866379 194.657143 
L 114.866379 194.657143 
L 114.866379 194.657143 
L 114.866379 194.657143 
L 114.866379 194.657143 
L 114.866379 194.657143 
L 114.866379 194.657143 
L 114.866379 194.657143 
L 114.866379 194.657143 
L 114.866379 194.657143 
L 114.866379 194.657143 
L 114.866379 194.657143 
L 114.866379 194.657143 
L 114.866379 194.657143 
L 114.866379 194.657143 
L 114.866379 194.657143 
L 114.866379 194.657143 
L 114.866379 194.657143 
L 114.866379 194.657143 
L 114.866379 194.657143 
L 114.866379 194.657143 
L 114.866379 194.657143 
L 114.866379 194.657143 
L 114.866379 194.657143 
L 114.866379 194.657143 
L 114.866379 194.657143 
L 114.866379 194.657143 
L 114.866379 194.657143 
L 114.866379 194.657143 
L 114.866379 194.657143 
L 114.866379 194.657143 
L 114.866379 194.657143 
L 114.866379 194.657143 
L 114.866379 194.657143 
L 114.866379 194.657143 
L 114.866379 194.657143 
L 114.866379 194.657143 
L 114.866379 194.657143 
L 114.866379 194.657143 
L 114.866379 194.657143 
L 114.866379 194.657143 
L 114.866379 194.657143 
L 114.866379 194.657143 
L 114.866379 194.657143 
L 114.866379 194.657143 
L 114.866379 194.657143 
L 114.866379 194.657143 
L 114.866379 194.657143 
L 114.866379 194.657143 
L 114.866379 194.657143 
L 114.866379 194.657143 
L 114.866379 194.657143 
L 114.866379 194.657143 
L 114.866379 194.657143 
L 114.866379 194.657143 
L 114.866379 194.657143 
L 114.866379 194.657143 
L 114.866379 194.657143 
L 114.866379 194.657143 
L 114.866379 194.657143 
L 114.866379 194.657143 
L 114.866379 194.657143 
L 114.866379 194.657143 
L 114.866379 194.657143 
L 114.866379 194.657143 
L 140.106583 194.657143 
L 140.106583 194.657143 
L 140.106583 194.657143 
L 140.106583 194.657143 
L 140.106583 194.657143 
L 140.106583 194.657143 
L 140.106583 194.657143 
L 140.106583 194.657143 
L 140.106583 194.657143 
L 140.106583 194.657143 
L 140.106583 194.657143 
L 140.106583 194.657143 
L 140.106583 194.657143 
L 140.106583 194.657143 
L 140.106583 194.657143 
L 140.106583 194.657143 
L 140.106583 194.657143 
L 140.106583 194.657143 
L 140.106583 194.657143 
L 140.106583 194.657143 
L 140.106583 194.657143 
L 140.106583 194.657143 
L 140.106583 194.657143 
L 140.106583 194.657143 
L 140.106583 194.657143 
L 140.106583 194.657143 
L 140.106583 194.657143 
L 140.106583 194.657143 
L 140.106583 194.657143 
L 140.106583 194.657143 
L 140.106583 194.657143 
L 140.106583 194.657143 
L 140.106583 194.657143 
L 140.106583 194.657143 
L 140.106583 194.657143 
L 140.106583 194.657143 
L 140.106583 194.657143 
L 140.106583 194.657143 
L 140.106583 194.657143 
L 140.106583 194.657143 
L 140.106583 194.657143 
L 140.106583 194.657143 
L 140.106583 194.657143 
L 140.106583 194.657143 
L 140.106583 194.657143 
L 140.106583 194.657143 
L 140.106583 194.657143 
L 140.106583 194.657143 
L 140.106583 194.657143 
L 140.106583 194.657143 
L 140.106583 194.657143 
L 140.106583 194.657143 
L 140.106583 194.657143 
L 140.106583 194.657143 
L 140.106583 194.657143 
L 140.106583 194.657143 
L 140.106583 194.657143 
L 140.106583 194.657143 
L 140.106583 194.657143 
L 140.106583 194.657143 
L 140.106583 194.657143 
L 140.106583 194.657143 
L 140.106583 194.657143 
L 140.106583 194.657143 
L 140.106583 194.657143 
L 140.106583 194.657143 
L 140.106583 194.657143 
L 140.106583 194.657143 
L 140.106583 194.657143 
L 140.106583 194.657143 
L 140.106583 194.657143 
L 140.106583 194.657143 
L 140.106583 194.657143 
L 140.106583 194.657143 
L 140.106583 194.657143 
L 140.106583 194.657143 
L 140.106583 194.657143 
L 140.106583 194.657143 
L 140.106583 194.657143 
L 140.106583 194.657143 
L 140.106583 194.657143 
L 140.106583 194.657143 
L 140.106583 194.657143 
L 140.106583 194.657143 
L 140.106583 194.657143 
L 140.106583 194.657143 
L 140.106583 194.657143 
L 140.106583 194.657143 
L 140.106583 194.657143 
L 140.106583 194.657143 
L 140.106583 194.657143 
L 140.106583 194.657143 
L 140.106583 194.657143 
L 140.106583 194.657143 
L 140.106583 194.657143 
L 140.106583 194.657143 
L 140.106583 194.657143 
L 140.106583 194.657143 
L 140.106583 194.657143 
L 140.106583 194.657143 
L 140.106583 194.657143 
z
" clip-path="url(#p1f9125ec12)" style="fill: #1f77b4; fill-opacity: 0.3"/>
   </g>
   <g id="PolyCollection_2">
    <path d="M 177.984158 186.068044 
L 177.949619 186.068044 
L 177.946294 185.893725 
L 177.944258 185.719406 
L 177.939957 185.545087 
L 177.928429 185.370768 
L 177.90663 185.196449 
L 177.875799 185.02213 
L 177.840507 184.847811 
L 177.804498 184.673492 
L 177.766504 184.499173 
L 177.719863 184.324854 
L 177.657256 184.150535 
L 177.576979 183.976217 
L 177.48332 183.801898 
L 177.378786 183.627579 
L 177.257844 183.45326 
L 177.111569 183.278941 
L 176.936043 183.104622 
L 176.73118 182.930303 
L 176.493497 182.755984 
L 176.216275 182.581665 
L 175.895909 182.407346 
L 175.532136 182.233027 
L 175.120612 182.058708 
L 174.648508 181.884389 
L 174.100171 181.710071 
L 173.469368 181.535752 
L 172.768776 181.361433 
L 172.026776 181.187114 
L 171.269226 181.012795 
L 170.496274 180.838476 
L 169.665482 180.664157 
L 168.699748 180.489838 
L 167.562722 180.315519 
L 166.394012 180.1412 
L 165.543062 179.966881 
L 165.346787 179.792562 
L 165.826167 179.618244 
L 166.670438 179.443925 
L 167.526424 179.269606 
L 168.233369 179.095287 
L 168.805502 178.920968 
L 169.303161 178.746649 
L 169.759477 178.57233 
L 170.175208 178.398011 
L 170.53697 178.223692 
L 170.8441 178.049373 
L 171.131956 177.875054 
L 171.463404 177.700735 
L 171.885127 177.526416 
L 172.387831 177.352098 
L 172.911084 177.177779 
L 173.390189 177.00346 
L 173.801223 176.829141 
L 174.165629 176.654822 
L 174.515934 176.480503 
L 174.856878 176.306184 
L 175.15909 176.131865 
L 175.391593 175.957546 
L 175.558105 175.783227 
L 175.696698 175.608908 
L 175.843065 175.434589 
L 175.99939 175.260271 
L 176.142593 175.085952 
L 176.255725 174.911633 
L 176.342555 174.737314 
L 176.417905 174.562995 
L 176.497011 174.388676 
L 176.593157 174.214357 
L 176.713039 174.040038 
L 176.848867 173.865719 
L 176.980156 173.6914 
L 177.089101 173.517081 
L 177.174484 173.342762 
L 177.248203 173.168444 
L 177.319614 172.994125 
L 177.387569 172.819806 
L 177.447392 172.645487 
L 177.499484 172.471168 
L 177.548068 172.296849 
L 177.595829 172.12253 
L 177.642669 171.948211 
L 177.686218 171.773892 
L 177.721933 171.599573 
L 177.746522 171.425254 
L 177.762991 171.250935 
L 177.77964 171.076616 
L 177.802807 170.902298 
L 177.831725 170.727979 
L 177.860188 170.55366 
L 177.881918 170.379341 
L 177.894957 170.205022 
L 177.902509 170.030703 
L 177.909731 169.856384 
L 177.919136 169.682065 
L 177.929091 169.507746 
L 177.936741 169.333427 
L 177.941568 169.159108 
L 177.945516 168.984789 
L 177.950351 168.810471 
L 177.983427 168.810471 
L 177.983427 168.810471 
L 177.988261 168.984789 
L 177.992209 169.159108 
L 177.997037 169.333427 
L 178.004687 169.507746 
L 178.014642 169.682065 
L 178.024047 169.856384 
L 178.031269 170.030703 
L 178.038821 170.205022 
L 178.05186 170.379341 
L 178.073589 170.55366 
L 178.102053 170.727979 
L 178.130971 170.902298 
L 178.154138 171.076616 
L 178.170787 171.250935 
L 178.187255 171.425254 
L 178.211844 171.599573 
L 178.24756 171.773892 
L 178.291109 171.948211 
L 178.337949 172.12253 
L 178.38571 172.296849 
L 178.434294 172.471168 
L 178.486386 172.645487 
L 178.546209 172.819806 
L 178.614163 172.994125 
L 178.685575 173.168444 
L 178.759293 173.342762 
L 178.844676 173.517081 
L 178.953622 173.6914 
L 179.08491 173.865719 
L 179.220739 174.040038 
L 179.34062 174.214357 
L 179.436767 174.388676 
L 179.515873 174.562995 
L 179.591222 174.737314 
L 179.678052 174.911633 
L 179.791184 175.085952 
L 179.934387 175.260271 
L 180.090713 175.434589 
L 180.23708 175.608908 
L 180.375672 175.783227 
L 180.542184 175.957546 
L 180.774687 176.131865 
L 181.076899 176.306184 
L 181.417844 176.480503 
L 181.768149 176.654822 
L 182.132554 176.829141 
L 182.543589 177.00346 
L 183.022693 177.177779 
L 183.545946 177.352098 
L 184.04865 177.526416 
L 184.470373 177.700735 
L 184.801822 177.875054 
L 185.089678 178.049373 
L 185.396807 178.223692 
L 185.75857 178.398011 
L 186.1743 178.57233 
L 186.630617 178.746649 
L 187.128275 178.920968 
L 187.700408 179.095287 
L 188.407354 179.269606 
L 189.26334 179.443925 
L 190.10761 179.618244 
L 190.586991 179.792562 
L 190.390716 179.966881 
L 189.539765 180.1412 
L 188.371056 180.315519 
L 187.234029 180.489838 
L 186.268296 180.664157 
L 185.437503 180.838476 
L 184.664551 181.012795 
L 183.907001 181.187114 
L 183.165001 181.361433 
L 182.464409 181.535752 
L 181.833607 181.710071 
L 181.28527 181.884389 
L 180.813165 182.058708 
L 180.401641 182.233027 
L 180.037868 182.407346 
L 179.717503 182.581665 
L 179.440281 182.755984 
L 179.202598 182.930303 
L 178.997735 183.104622 
L 178.822209 183.278941 
L 178.675934 183.45326 
L 178.554991 183.627579 
L 178.450458 183.801898 
L 178.356799 183.976217 
L 178.276522 184.150535 
L 178.213915 184.324854 
L 178.167273 184.499173 
L 178.129279 184.673492 
L 178.093271 184.847811 
L 178.057978 185.02213 
L 178.027147 185.196449 
L 178.005349 185.370768 
L 177.99382 185.545087 
L 177.989519 185.719406 
L 177.987483 185.893725 
L 177.984158 186.068044 
z
" clip-path="url(#p1f9125ec12)" style="fill: #1f77b4; fill-opacity: 0.3"/>
   </g>
   <g id="PolyCollection_3">
    <path d="M 228.458774 177.191921 
L 228.435819 177.191921 
L 228.432772 176.851627 
L 228.427628 176.511333 
L 228.417139 176.17104 
L 228.399887 175.830746 
L 228.377961 175.490452 
L 228.354933 175.150158 
L 228.331638 174.809864 
L 228.304136 174.46957 
L 228.266239 174.129276 
L 228.21378 173.788982 
L 228.145777 173.448688 
L 228.062026 173.108394 
L 227.96086 172.7681 
L 227.839069 172.427806 
L 227.693891 172.087512 
L 227.526967 171.747218 
L 227.345708 171.406924 
L 227.156213 171.06663 
L 226.95349 170.726336 
L 226.720393 170.386042 
L 226.434723 170.045748 
L 226.077698 169.705454 
L 225.643303 169.365161 
L 225.145344 169.024867 
L 224.611021 168.684573 
L 224.058422 168.344279 
L 223.476936 168.003985 
L 222.836605 167.663691 
L 222.120866 167.323397 
L 221.334589 166.983103 
L 220.460721 166.642809 
L 219.429275 166.302515 
L 218.200799 165.962221 
L 216.93575 165.621927 
L 216.025172 165.281633 
L 215.827194 164.941339 
L 216.34531 164.601045 
L 217.23911 164.260751 
L 218.143556 163.920457 
L 218.903828 163.580163 
L 219.537296 163.239869 
L 220.091184 162.899576 
L 220.583091 162.559282 
L 221.025527 162.218988 
L 221.44677 161.878694 
L 221.874373 161.5384 
L 222.314185 161.198106 
L 222.752256 160.857812 
L 223.170388 160.517518 
L 223.556152 160.177224 
L 223.901987 159.83693 
L 224.20391 159.496636 
L 224.469092 159.156342 
L 224.71995 158.816048 
L 224.978755 158.475754 
L 225.247756 158.13546 
L 225.512676 157.795166 
L 225.76336 157.454872 
L 226.001612 157.114578 
L 226.230541 156.774284 
L 226.445937 156.433991 
L 226.639948 156.093697 
L 226.808002 155.753403 
L 226.951015 155.413109 
L 227.07399 155.072815 
L 227.183011 154.732521 
L 227.281814 154.392227 
L 227.371317 154.051933 
L 227.452421 153.711639 
L 227.526884 153.371345 
L 227.595318 153.031051 
L 227.657879 152.690757 
L 227.71727 152.350463 
L 227.777524 152.010169 
L 227.839886 151.669875 
L 227.902769 151.329581 
L 227.964306 150.989287 
L 228.021974 150.648993 
L 228.072001 150.308699 
L 228.11265 149.968405 
L 228.146722 149.628112 
L 228.178329 149.287818 
L 228.208229 148.947524 
L 228.234117 148.60723 
L 228.254656 148.266936 
L 228.271434 147.926642 
L 228.287012 147.586348 
L 228.302551 147.246054 
L 228.317986 146.90576 
L 228.333615 146.565466 
L 228.350441 146.225172 
L 228.368583 145.884878 
L 228.385914 145.544584 
L 228.399555 145.20429 
L 228.408924 144.863996 
L 228.416074 144.523702 
L 228.422954 144.183408 
L 228.42967 143.843114 
L 228.435456 143.50282 
L 228.459137 143.50282 
L 228.459137 143.50282 
L 228.464922 143.843114 
L 228.471638 144.183408 
L 228.478519 144.523702 
L 228.485669 144.863996 
L 228.495037 145.20429 
L 228.508679 145.544584 
L 228.526009 145.884878 
L 228.544151 146.225172 
L 228.560978 146.565466 
L 228.576607 146.90576 
L 228.592042 147.246054 
L 228.60758 147.586348 
L 228.623158 147.926642 
L 228.639936 148.266936 
L 228.660476 148.60723 
L 228.686364 148.947524 
L 228.716263 149.287818 
L 228.74787 149.628112 
L 228.781943 149.968405 
L 228.822592 150.308699 
L 228.872619 150.648993 
L 228.930286 150.989287 
L 228.991823 151.329581 
L 229.054707 151.669875 
L 229.117069 152.010169 
L 229.177322 152.350463 
L 229.236713 152.690757 
L 229.299274 153.031051 
L 229.367709 153.371345 
L 229.442171 153.711639 
L 229.523275 154.051933 
L 229.612778 154.392227 
L 229.711582 154.732521 
L 229.820602 155.072815 
L 229.943578 155.413109 
L 230.08659 155.753403 
L 230.254644 156.093697 
L 230.448655 156.433991 
L 230.664052 156.774284 
L 230.892981 157.114578 
L 231.131233 157.454872 
L 231.381916 157.795166 
L 231.646837 158.13546 
L 231.915838 158.475754 
L 232.174642 158.816048 
L 232.425501 159.156342 
L 232.690682 159.496636 
L 232.992606 159.83693 
L 233.33844 160.177224 
L 233.724204 160.517518 
L 234.142337 160.857812 
L 234.580408 161.198106 
L 235.020219 161.5384 
L 235.447823 161.878694 
L 235.869066 162.218988 
L 236.311501 162.559282 
L 236.803409 162.899576 
L 237.357296 163.239869 
L 237.990764 163.580163 
L 238.751037 163.920457 
L 239.655482 164.260751 
L 240.549283 164.601045 
L 241.067398 164.941339 
L 240.869421 165.281633 
L 239.958843 165.621927 
L 238.693794 165.962221 
L 237.465318 166.302515 
L 236.433872 166.642809 
L 235.560003 166.983103 
L 234.773727 167.323397 
L 234.057987 167.663691 
L 233.417657 168.003985 
L 232.83617 168.344279 
L 232.283571 168.684573 
L 231.749248 169.024867 
L 231.251289 169.365161 
L 230.816894 169.705454 
L 230.459869 170.045748 
L 230.1742 170.386042 
L 229.941103 170.726336 
L 229.73838 171.06663 
L 229.548884 171.406924 
L 229.367625 171.747218 
L 229.200702 172.087512 
L 229.055523 172.427806 
L 228.933733 172.7681 
L 228.832566 173.108394 
L 228.748815 173.448688 
L 228.680813 173.788982 
L 228.628353 174.129276 
L 228.590456 174.46957 
L 228.562955 174.809864 
L 228.53966 175.150158 
L 228.516632 175.490452 
L 228.494706 175.830746 
L 228.477454 176.17104 
L 228.466965 176.511333 
L 228.46182 176.851627 
L 228.458774 177.191921 
z
" clip-path="url(#p1f9125ec12)" style="fill: #1f77b4; fill-opacity: 0.3"/>
   </g>
   <g id="PolyCollection_4">
    <path d="M 278.93841 170.846809 
L 278.916997 170.846809 
L 278.914935 170.287105 
L 278.914061 169.727401 
L 278.913169 169.167697 
L 278.910736 168.607992 
L 278.90598 168.048288 
L 278.89917 167.488584 
L 278.890283 166.92888 
L 278.876769 166.369176 
L 278.854017 165.809472 
L 278.819448 165.249767 
L 278.774829 164.690063 
L 278.722501 164.130359 
L 278.660412 163.570655 
L 278.582812 163.010951 
L 278.484809 162.451247 
L 278.365727 161.891542 
L 278.229299 161.331838 
L 278.078702 160.772134 
L 277.909592 160.21243 
L 277.710859 159.652726 
L 277.474016 159.093022 
L 277.199032 158.533317 
L 276.888043 157.973613 
L 276.534944 157.413909 
L 276.12368 156.854205 
L 275.634021 156.294501 
L 275.045856 155.734797 
L 274.342381 155.175092 
L 273.518995 154.615388 
L 272.59673 154.055684 
L 271.623727 153.49598 
L 270.642233 152.936276 
L 269.636345 152.376572 
L 268.549864 151.816867 
L 267.435911 151.257163 
L 266.577384 150.697459 
L 266.307602 150.137755 
L 266.653691 149.578051 
L 267.301672 149.018347 
L 267.946025 148.458642 
L 268.521196 147.898938 
L 269.091198 147.339234 
L 269.673869 146.77953 
L 270.22678 146.219826 
L 270.734528 145.660122 
L 271.243664 145.100417 
L 271.80506 144.540713 
L 272.415716 143.981009 
L 273.031245 143.421305 
L 273.61224 142.861601 
L 274.144401 142.301896 
L 274.625265 141.742192 
L 275.044939 141.182488 
L 275.387473 140.622784 
L 275.652653 140.06308 
L 275.868447 139.503376 
L 276.076381 138.943671 
L 276.307554 138.383967 
L 276.570857 137.824263 
L 276.852942 137.264559 
L 277.122486 136.704855 
L 277.342037 136.145151 
L 277.489652 135.585446 
L 277.57488 135.025742 
L 277.632955 134.466038 
L 277.702811 133.906334 
L 277.80462 133.34663 
L 277.930353 132.786926 
L 278.055395 132.227221 
L 278.160714 131.667517 
L 278.243339 131.107813 
L 278.309997 130.548109 
L 278.367474 129.988405 
L 278.418494 129.428701 
L 278.461085 128.868996 
L 278.490644 128.309292 
L 278.507054 127.749588 
L 278.521056 127.189884 
L 278.548142 126.63018 
L 278.593581 126.070476 
L 278.647154 125.510771 
L 278.693957 124.951067 
L 278.727103 124.391363 
L 278.749099 123.831659 
L 278.765004 123.271955 
L 278.777477 122.712251 
L 278.787249 122.152546 
L 278.795909 121.592842 
L 278.807204 121.033138 
L 278.824664 120.473434 
L 278.847148 119.91373 
L 278.868844 119.354025 
L 278.88533 118.794321 
L 278.896968 118.234617 
L 278.905278 117.674913 
L 278.909977 117.115209 
L 278.911178 116.555505 
L 278.911335 115.9958 
L 278.913247 115.436096 
L 278.942161 115.436096 
L 278.942161 115.436096 
L 278.944073 115.9958 
L 278.944229 116.555505 
L 278.945431 117.115209 
L 278.95013 117.674913 
L 278.95844 118.234617 
L 278.970077 118.794321 
L 278.986563 119.354025 
L 279.008259 119.91373 
L 279.030744 120.473434 
L 279.048203 121.033138 
L 279.059499 121.592842 
L 279.068158 122.152546 
L 279.07793 122.712251 
L 279.090403 123.271955 
L 279.106309 123.831659 
L 279.128305 124.391363 
L 279.16145 124.951067 
L 279.208254 125.510771 
L 279.261827 126.070476 
L 279.307266 126.63018 
L 279.334352 127.189884 
L 279.348354 127.749588 
L 279.364764 128.309292 
L 279.394322 128.868996 
L 279.436914 129.428701 
L 279.487933 129.988405 
L 279.54541 130.548109 
L 279.612068 131.107813 
L 279.694693 131.667517 
L 279.800012 132.227221 
L 279.925055 132.786926 
L 280.050788 133.34663 
L 280.152597 133.906334 
L 280.222452 134.466038 
L 280.280528 135.025742 
L 280.365755 135.585446 
L 280.513371 136.145151 
L 280.732921 136.704855 
L 281.002465 137.264559 
L 281.28455 137.824263 
L 281.547854 138.383967 
L 281.779027 138.943671 
L 281.986961 139.503376 
L 282.202754 140.06308 
L 282.467935 140.622784 
L 282.810469 141.182488 
L 283.230142 141.742192 
L 283.711007 142.301896 
L 284.243167 142.861601 
L 284.824162 143.421305 
L 285.439691 143.981009 
L 286.050348 144.540713 
L 286.611744 145.100417 
L 287.12088 145.660122 
L 287.628628 146.219826 
L 288.181538 146.77953 
L 288.76421 147.339234 
L 289.334212 147.898938 
L 289.909383 148.458642 
L 290.553736 149.018347 
L 291.201717 149.578051 
L 291.547806 150.137755 
L 291.278023 150.697459 
L 290.419497 151.257163 
L 289.305543 151.816867 
L 288.219062 152.376572 
L 287.213174 152.936276 
L 286.23168 153.49598 
L 285.258678 154.055684 
L 284.336412 154.615388 
L 283.513027 155.175092 
L 282.809551 155.734797 
L 282.221387 156.294501 
L 281.731728 156.854205 
L 281.320464 157.413909 
L 280.967365 157.973613 
L 280.656375 158.533317 
L 280.381391 159.093022 
L 280.144549 159.652726 
L 279.945816 160.21243 
L 279.776706 160.772134 
L 279.626109 161.331838 
L 279.489681 161.891542 
L 279.370598 162.451247 
L 279.272596 163.010951 
L 279.194996 163.570655 
L 279.132907 164.130359 
L 279.080579 164.690063 
L 279.035959 165.249767 
L 279.00139 165.809472 
L 278.978639 166.369176 
L 278.965125 166.92888 
L 278.956237 167.488584 
L 278.949428 168.048288 
L 278.944671 168.607992 
L 278.942238 169.167697 
L 278.941346 169.727401 
L 278.940472 170.287105 
L 278.93841 170.846809 
z
" clip-path="url(#p1f9125ec12)" style="fill: #1f77b4; fill-opacity: 0.3"/>
   </g>
   <g id="PolyCollection_5">
    <path d="M 329.432163 158.855719 
L 329.384059 158.855719 
L 329.377784 158.13691 
L 329.37129 157.418101 
L 329.360281 156.699293 
L 329.340427 155.980484 
L 329.309093 155.261675 
L 329.266146 154.542867 
L 329.214426 153.824058 
L 329.157158 153.105249 
L 329.093506 152.38644 
L 329.019245 151.667632 
L 328.932148 150.948823 
L 328.832117 150.230014 
L 328.714751 149.511205 
L 328.569849 148.792397 
L 328.3873 148.073588 
L 328.158521 147.354779 
L 327.871157 146.63597 
L 327.508656 145.917162 
L 327.060117 145.198353 
L 326.532522 144.479544 
L 325.95208 143.760736 
L 325.34871 143.041927 
L 324.733717 142.323118 
L 324.090451 141.604309 
L 323.389489 140.885501 
L 322.614108 140.166692 
L 321.766871 139.447883 
L 320.84654 138.729074 
L 319.825935 138.010266 
L 318.700927 137.291457 
L 317.616893 136.572648 
L 316.89244 135.85384 
L 316.788009 135.135031 
L 317.253434 134.416222 
L 318.002484 133.697413 
L 318.790886 132.978605 
L 319.524604 132.259796 
L 320.177656 131.540987 
L 320.740389 130.822178 
L 321.243536 130.10337 
L 321.751628 129.384561 
L 322.298811 128.665752 
L 322.847421 127.946943 
L 323.326909 127.228135 
L 323.709972 126.509326 
L 324.03786 125.790517 
L 324.372311 125.071709 
L 324.738343 124.3529 
L 325.118942 123.634091 
L 325.48945 122.915282 
L 325.840932 122.196474 
L 326.173425 121.477665 
L 326.481378 120.758856 
L 326.755502 120.040047 
L 326.99788 119.321239 
L 327.223846 118.60243 
L 327.442821 117.883621 
L 327.6483 117.164813 
L 327.830416 116.446004 
L 327.984717 115.727195 
L 328.108014 115.008386 
L 328.200223 114.289578 
L 328.271965 113.570769 
L 328.341101 112.85196 
L 328.4202 112.133151 
L 328.50917 111.414343 
L 328.597205 110.695534 
L 328.67224 109.976725 
L 328.733669 109.257916 
L 328.795036 108.539108 
L 328.868968 107.820299 
L 328.950172 107.10149 
L 329.018423 106.382682 
L 329.059592 105.663873 
L 329.079874 104.945064 
L 329.0971 104.226255 
L 329.122623 103.507447 
L 329.156167 102.788638 
L 329.193067 102.069829 
L 329.229229 101.35102 
L 329.261148 100.632212 
L 329.286181 99.913403 
L 329.303237 99.194594 
L 329.312964 98.475785 
L 329.317843 97.756977 
L 329.321385 97.038168 
L 329.326537 96.319359 
L 329.334894 95.600551 
L 329.346728 94.881742 
L 329.360653 94.162933 
L 329.373852 93.444124 
L 329.38406 92.725316 
L 329.391045 92.006507 
L 329.395554 91.287698 
L 329.39806 90.568889 
L 329.399065 89.850081 
L 329.399392 89.131272 
L 329.399809 88.412463 
L 329.40084 87.693655 
L 329.415383 87.693655 
L 329.415383 87.693655 
L 329.416414 88.412463 
L 329.416831 89.131272 
L 329.417158 89.850081 
L 329.418163 90.568889 
L 329.420669 91.287698 
L 329.425178 92.006507 
L 329.432162 92.725316 
L 329.442371 93.444124 
L 329.455569 94.162933 
L 329.469495 94.881742 
L 329.481329 95.600551 
L 329.489686 96.319359 
L 329.494837 97.038168 
L 329.49838 97.756977 
L 329.503259 98.475785 
L 329.512986 99.194594 
L 329.530042 99.913403 
L 329.555075 100.632212 
L 329.586993 101.35102 
L 329.623155 102.069829 
L 329.660056 102.788638 
L 329.6936 103.507447 
L 329.719123 104.226255 
L 329.736349 104.945064 
L 329.756631 105.663873 
L 329.797799 106.382682 
L 329.86605 107.10149 
L 329.947254 107.820299 
L 330.021187 108.539108 
L 330.082553 109.257916 
L 330.143983 109.976725 
L 330.219017 110.695534 
L 330.307053 111.414343 
L 330.396023 112.133151 
L 330.475121 112.85196 
L 330.544258 113.570769 
L 330.615999 114.289578 
L 330.708209 115.008386 
L 330.831506 115.727195 
L 330.985806 116.446004 
L 331.167923 117.164813 
L 331.373402 117.883621 
L 331.592377 118.60243 
L 331.818343 119.321239 
L 332.060721 120.040047 
L 332.334845 120.758856 
L 332.642797 121.477665 
L 332.975291 122.196474 
L 333.326772 122.915282 
L 333.697281 123.634091 
L 334.07788 124.3529 
L 334.443912 125.071709 
L 334.778362 125.790517 
L 335.10625 126.509326 
L 335.489313 127.228135 
L 335.968802 127.946943 
L 336.517411 128.665752 
L 337.064594 129.384561 
L 337.572686 130.10337 
L 338.075833 130.822178 
L 338.638567 131.540987 
L 339.291618 132.259796 
L 340.025336 132.978605 
L 340.813738 133.697413 
L 341.562789 134.416222 
L 342.028213 135.135031 
L 341.923783 135.85384 
L 341.199329 136.572648 
L 340.115295 137.291457 
L 338.990288 138.010266 
L 337.969682 138.729074 
L 337.049352 139.447883 
L 336.202114 140.166692 
L 335.426734 140.885501 
L 334.725771 141.604309 
L 334.082505 142.323118 
L 333.467513 143.041927 
L 332.864143 143.760736 
L 332.283701 144.479544 
L 331.756105 145.198353 
L 331.307567 145.917162 
L 330.945066 146.63597 
L 330.657701 147.354779 
L 330.428923 148.073588 
L 330.246373 148.792397 
L 330.101472 149.511205 
L 329.984106 150.230014 
L 329.884075 150.948823 
L 329.796978 151.667632 
L 329.722717 152.38644 
L 329.659064 153.105249 
L 329.601796 153.824058 
L 329.550076 154.542867 
L 329.50713 155.261675 
L 329.475796 155.980484 
L 329.455942 156.699293 
L 329.444933 157.418101 
L 329.438438 158.13691 
L 329.432163 158.855719 
z
" clip-path="url(#p1f9125ec12)" style="fill: #1f77b4; fill-opacity: 0.3"/>
   </g>
   <g id="PolyCollection_6">
    <path d="M 379.905556 149.078981 
L 379.871482 149.078981 
L 379.862199 148.203059 
L 379.849298 147.327137 
L 379.83081 146.451216 
L 379.804823 145.575294 
L 379.770992 144.699373 
L 379.732404 143.823451 
L 379.693949 142.94753 
L 379.655476 142.071608 
L 379.607163 141.195686 
L 379.534966 140.319765 
L 379.431901 139.443843 
L 379.303943 138.567922 
L 379.163547 137.692 
L 379.013615 136.816078 
L 378.838151 135.940157 
L 378.614886 135.064235 
L 378.340157 134.188314 
L 378.037451 133.312392 
L 377.731503 132.43647 
L 377.408945 131.560549 
L 377.017608 130.684627 
L 376.514273 129.808706 
L 375.900945 128.932784 
L 375.209288 128.056862 
L 374.461775 127.180941 
L 373.652721 126.305019 
L 372.7645 125.429098 
L 371.785166 124.553176 
L 370.687105 123.677254 
L 369.448489 122.801333 
L 368.212302 121.925411 
L 367.368342 121.04949 
L 367.268417 120.173568 
L 367.849916 119.297646 
L 368.702774 118.421725 
L 369.475582 117.545803 
L 370.097472 116.669882 
L 370.680902 115.79396 
L 371.330723 114.918038 
L 372.04353 114.042117 
L 372.738084 113.166195 
L 373.337345 112.290274 
L 373.807362 111.414352 
L 374.160145 110.53843 
L 374.453661 109.662509 
L 374.765171 108.786587 
L 375.13711 107.910666 
L 375.5513 107.034744 
L 375.958736 106.158822 
L 376.325053 105.282901 
L 376.645651 104.406979 
L 376.933466 103.531058 
L 377.200301 102.655136 
L 377.440403 101.779214 
L 377.635245 100.903293 
L 377.782848 100.027371 
L 377.909123 99.15145 
L 378.041636 98.275528 
L 378.187504 97.399607 
L 378.34173 96.523685 
L 378.49879 95.647763 
L 378.647745 94.771842 
L 378.770908 93.89592 
L 378.86057 93.019999 
L 378.92953 92.144077 
L 378.995149 91.268155 
L 379.061351 90.392234 
L 379.123515 89.516312 
L 379.180304 88.640391 
L 379.234191 87.764469 
L 379.28837 86.888547 
L 379.346002 86.012626 
L 379.407533 85.136704 
L 379.468979 84.260783 
L 379.524965 83.384861 
L 379.57169 82.508939 
L 379.607049 81.633018 
L 379.631944 80.757096 
L 379.652755 79.881175 
L 379.678099 79.005253 
L 379.709582 78.129331 
L 379.738834 77.25341 
L 379.756945 76.377488 
L 379.764064 75.501567 
L 379.767595 74.625645 
L 379.7742 73.749723 
L 379.786178 72.873802 
L 379.802958 71.99788 
L 379.822357 71.121959 
L 379.841157 70.246037 
L 379.85668 69.370115 
L 379.867408 68.494194 
L 379.872428 67.618272 
L 379.872298 66.742351 
L 379.870222 65.866429 
L 379.870089 64.990507 
L 379.873008 64.114586 
L 379.877175 63.238664 
L 379.880811 62.362743 
L 379.896226 62.362743 
L 379.896226 62.362743 
L 379.899863 63.238664 
L 379.904029 64.114586 
L 379.906949 64.990507 
L 379.906815 65.866429 
L 379.904739 66.742351 
L 379.90461 67.618272 
L 379.90963 68.494194 
L 379.920357 69.370115 
L 379.93588 70.246037 
L 379.954681 71.121959 
L 379.97408 71.99788 
L 379.99086 72.873802 
L 380.002838 73.749723 
L 380.009442 74.625645 
L 380.012973 75.501567 
L 380.020092 76.377488 
L 380.038204 77.25341 
L 380.067456 78.129331 
L 380.098939 79.005253 
L 380.124283 79.881175 
L 380.145093 80.757096 
L 380.169988 81.633018 
L 380.205348 82.508939 
L 380.252072 83.384861 
L 380.308059 84.260783 
L 380.369505 85.136704 
L 380.431036 86.012626 
L 380.488667 86.888547 
L 380.542846 87.764469 
L 380.596733 88.640391 
L 380.653523 89.516312 
L 380.715687 90.392234 
L 380.781889 91.268155 
L 380.847507 92.144077 
L 380.916467 93.019999 
L 381.006129 93.89592 
L 381.129293 94.771842 
L 381.278248 95.647763 
L 381.435307 96.523685 
L 381.589534 97.399607 
L 381.735402 98.275528 
L 381.867914 99.15145 
L 381.99419 100.027371 
L 382.141792 100.903293 
L 382.336635 101.779214 
L 382.576737 102.655136 
L 382.843571 103.531058 
L 383.131386 104.406979 
L 383.451985 105.282901 
L 383.818302 106.158822 
L 384.225738 107.034744 
L 384.639928 107.910666 
L 385.011867 108.786587 
L 385.323377 109.662509 
L 385.616893 110.53843 
L 385.969675 111.414352 
L 386.439693 112.290274 
L 387.038954 113.166195 
L 387.733507 114.042117 
L 388.446314 114.918038 
L 389.096135 115.79396 
L 389.679566 116.669882 
L 390.301456 117.545803 
L 391.074263 118.421725 
L 391.927122 119.297646 
L 392.508621 120.173568 
L 392.408696 121.04949 
L 391.564736 121.925411 
L 390.328549 122.801333 
L 389.089932 123.677254 
L 387.991872 124.553176 
L 387.012538 125.429098 
L 386.124317 126.305019 
L 385.315263 127.180941 
L 384.567749 128.056862 
L 383.876093 128.932784 
L 383.262764 129.808706 
L 382.75943 130.684627 
L 382.368092 131.560549 
L 382.045535 132.43647 
L 381.739586 133.312392 
L 381.436881 134.188314 
L 381.162152 135.064235 
L 380.938887 135.940157 
L 380.763422 136.816078 
L 380.61349 137.692 
L 380.473095 138.567922 
L 380.345136 139.443843 
L 380.242072 140.319765 
L 380.169875 141.195686 
L 380.121561 142.071608 
L 380.083088 142.94753 
L 380.044633 143.823451 
L 380.006046 144.699373 
L 379.972215 145.575294 
L 379.946228 146.451216 
L 379.927739 147.327137 
L 379.914838 148.203059 
L 379.905556 149.078981 
z
" clip-path="url(#p1f9125ec12)" style="fill: #1f77b4; fill-opacity: 0.3"/>
   </g>
   <g id="matplotlib.axis_1">
    <g id="xtick_1">
     <g id="line2d_1">
      <defs>
       <path id="ma891a30e57" d="M 0 0 
L 0 5 
" style="stroke: #000000; stroke-width: 3"/>
      </defs>
      <g>
       <use xlink:href="#ma891a30e57" x="127.486481" y="224.22" style="stroke: #000000; stroke-width: 3"/>
      </g>
     </g>
     <g id="text_1">
      <text style="font: 16px 'DejaVu Serif', 'Bitstream Vera Serif', 'Computer Modern Roman', 'New Century Schoolbook', 'Century Schoolbook L', 'Utopia', 'ITC Bookman', 'Bookman', 'Nimbus Roman No9 L', 'Times New Roman', 'Times', 'Palatino', 'Charter', serif; text-anchor: middle" x="127.486481" y="244.8775" transform="rotate(-0 127.486481 244.8775)">100%</text>
     </g>
    </g>
    <g id="xtick_2">
     <g id="line2d_2">
      <g>
       <use xlink:href="#ma891a30e57" x="177.966889" y="224.22" style="stroke: #000000; stroke-width: 3"/>
      </g>
     </g>
     <g id="text_2">
      <text style="font: 16px 'DejaVu Serif', 'Bitstream Vera Serif', 'Computer Modern Roman', 'New Century Schoolbook', 'Century Schoolbook L', 'Utopia', 'ITC Bookman', 'Bookman', 'Nimbus Roman No9 L', 'Times New Roman', 'Times', 'Palatino', 'Charter', serif; text-anchor: middle" x="177.966889" y="244.8775" transform="rotate(-0 177.966889 244.8775)">120%</text>
     </g>
    </g>
    <g id="xtick_3">
     <g id="line2d_3">
      <g>
       <use xlink:href="#ma891a30e57" x="228.447296" y="224.22" style="stroke: #000000; stroke-width: 3"/>
      </g>
     </g>
     <g id="text_3">
      <text style="font: 16px 'DejaVu Serif', 'Bitstream Vera Serif', 'Computer Modern Roman', 'New Century Schoolbook', 'Century Schoolbook L', 'Utopia', 'ITC Bookman', 'Bookman', 'Nimbus Roman No9 L', 'Times New Roman', 'Times', 'Palatino', 'Charter', serif; text-anchor: middle" x="228.447296" y="244.8775" transform="rotate(-0 228.447296 244.8775)">140%</text>
     </g>
    </g>
    <g id="xtick_4">
     <g id="line2d_4">
      <g>
       <use xlink:href="#ma891a30e57" x="278.927704" y="224.22" style="stroke: #000000; stroke-width: 3"/>
      </g>
     </g>
     <g id="text_4">
      <text style="font: 16px 'DejaVu Serif', 'Bitstream Vera Serif', 'Computer Modern Roman', 'New Century Schoolbook', 'Century Schoolbook L', 'Utopia', 'ITC Bookman', 'Bookman', 'Nimbus Roman No9 L', 'Times New Roman', 'Times', 'Palatino', 'Charter', serif; text-anchor: middle" x="278.927704" y="244.8775" transform="rotate(-0 278.927704 244.8775)">160%</text>
     </g>
    </g>
    <g id="xtick_5">
     <g id="line2d_5">
      <g>
       <use xlink:href="#ma891a30e57" x="329.408111" y="224.22" style="stroke: #000000; stroke-width: 3"/>
      </g>
     </g>
     <g id="text_5">
      <text style="font: 16px 'DejaVu Serif', 'Bitstream Vera Serif', 'Computer Modern Roman', 'New Century Schoolbook', 'Century Schoolbook L', 'Utopia', 'ITC Bookman', 'Bookman', 'Nimbus Roman No9 L', 'Times New Roman', 'Times', 'Palatino', 'Charter', serif; text-anchor: middle" x="329.408111" y="244.8775" transform="rotate(-0 329.408111 244.8775)">180%</text>
     </g>
    </g>
    <g id="xtick_6">
     <g id="line2d_6">
      <g>
       <use xlink:href="#ma891a30e57" x="379.888519" y="224.22" style="stroke: #000000; stroke-width: 3"/>
      </g>
     </g>
     <g id="text_6">
      <text style="font: 16px 'DejaVu Serif', 'Bitstream Vera Serif', 'Computer Modern Roman', 'New Century Schoolbook', 'Century Schoolbook L', 'Utopia', 'ITC Bookman', 'Bookman', 'Nimbus Roman No9 L', 'Times New Roman', 'Times', 'Palatino', 'Charter', serif; text-anchor: middle" x="379.888519" y="244.8775" transform="rotate(-0 379.888519 244.8775)">200%</text>
     </g>
    </g>
    <g id="text_7">
     <text style="font: 16px 'DejaVu Serif', 'Bitstream Vera Serif', 'Computer Modern Roman', 'New Century Schoolbook', 'Century Schoolbook L', 'Utopia', 'ITC Bookman', 'Bookman', 'Nimbus Roman No9 L', 'Times New Roman', 'Times', 'Palatino', 'Charter', serif; text-anchor: middle" x="253.6875" y="264.3625" transform="rotate(-0 253.6875 264.3625)">Max length w.r.t. straight line</text>
    </g>
   </g>
   <g id="matplotlib.axis_2">
    <g id="ytick_1">
     <g id="line2d_7">
      <defs>
       <path id="m8e58beb32f" d="M 0 0 
L -5 0 
" style="stroke: #000000; stroke-width: 3"/>
      </defs>
      <g>
       <use xlink:href="#m8e58beb32f" x="92.655" y="194.657143" style="stroke: #000000; stroke-width: 3"/>
      </g>
     </g>
     <g id="text_8">
      <text style="font: 16px 'DejaVu Serif', 'Bitstream Vera Serif', 'Computer Modern Roman', 'New Century Schoolbook', 'Century Schoolbook L', 'Utopia', 'ITC Bookman', 'Bookman', 'Nimbus Roman No9 L', 'Times New Roman', 'Times', 'Palatino', 'Charter', serif; text-anchor: end" x="84.155" y="200.735893" transform="rotate(-0 84.155 200.735893)">100%</text>
     </g>
    </g>
    <g id="ytick_2">
     <g id="line2d_8">
      <g>
       <use xlink:href="#m8e58beb32f" x="92.655" y="165.094286" style="stroke: #000000; stroke-width: 3"/>
      </g>
     </g>
     <g id="text_9">
      <text style="font: 16px 'DejaVu Serif', 'Bitstream Vera Serif', 'Computer Modern Roman', 'New Century Schoolbook', 'Century Schoolbook L', 'Utopia', 'ITC Bookman', 'Bookman', 'Nimbus Roman No9 L', 'Times New Roman', 'Times', 'Palatino', 'Charter', serif; text-anchor: end" x="84.155" y="171.173036" transform="rotate(-0 84.155 171.173036)">120%</text>
     </g>
    </g>
    <g id="ytick_3">
     <g id="line2d_9">
      <g>
       <use xlink:href="#m8e58beb32f" x="92.655" y="135.531429" style="stroke: #000000; stroke-width: 3"/>
      </g>
     </g>
     <g id="text_10">
      <text style="font: 16px 'DejaVu Serif', 'Bitstream Vera Serif', 'Computer Modern Roman', 'New Century Schoolbook', 'Century Schoolbook L', 'Utopia', 'ITC Bookman', 'Bookman', 'Nimbus Roman No9 L', 'Times New Roman', 'Times', 'Palatino', 'Charter', serif; text-anchor: end" x="84.155" y="141.610179" transform="rotate(-0 84.155 141.610179)">140%</text>
     </g>
    </g>
    <g id="ytick_4">
     <g id="line2d_10">
      <g>
       <use xlink:href="#m8e58beb32f" x="92.655" y="105.968571" style="stroke: #000000; stroke-width: 3"/>
      </g>
     </g>
     <g id="text_11">
      <text style="font: 16px 'DejaVu Serif', 'Bitstream Vera Serif', 'Computer Modern Roman', 'New Century Schoolbook', 'Century Schoolbook L', 'Utopia', 'ITC Bookman', 'Bookman', 'Nimbus Roman No9 L', 'Times New Roman', 'Times', 'Palatino', 'Charter', serif; text-anchor: end" x="84.155" y="112.047321" transform="rotate(-0 84.155 112.047321)">160%</text>
     </g>
    </g>
    <g id="ytick_5">
     <g id="line2d_11">
      <g>
       <use xlink:href="#m8e58beb32f" x="92.655" y="76.405714" style="stroke: #000000; stroke-width: 3"/>
      </g>
     </g>
     <g id="text_12">
      <text style="font: 16px 'DejaVu Serif', 'Bitstream Vera Serif', 'Computer Modern Roman', 'New Century Schoolbook', 'Century Schoolbook L', 'Utopia', 'ITC Bookman', 'Bookman', 'Nimbus Roman No9 L', 'Times New Roman', 'Times', 'Palatino', 'Charter', serif; text-anchor: end" x="84.155" y="82.484464" transform="rotate(-0 84.155 82.484464)">180%</text>
     </g>
    </g>
    <g id="ytick_6">
     <g id="line2d_12">
      <g>
       <use xlink:href="#m8e58beb32f" x="92.655" y="46.842857" style="stroke: #000000; stroke-width: 3"/>
      </g>
     </g>
     <g id="text_13">
      <text style="font: 16px 'DejaVu Serif', 'Bitstream Vera Serif', 'Computer Modern Roman', 'New Century Schoolbook', 'Century Schoolbook L', 'Utopia', 'ITC Bookman', 'Bookman', 'Nimbus Roman No9 L', 'Times New Roman', 'Times', 'Palatino', 'Charter', serif; text-anchor: end" x="84.155" y="52.921607" transform="rotate(-0 84.155 52.921607)">200%</text>
     </g>
    </g>
    <g id="text_14">
     <text style="font: 16px 'DejaVu Serif', 'Bitstream Vera Serif', 'Computer Modern Roman', 'New Century Schoolbook', 'Century Schoolbook L', 'Utopia', 'ITC Bookman', 'Bookman', 'Nimbus Roman No9 L', 'Times New Roman', 'Times', 'Palatino', 'Charter', serif; text-anchor: middle" x="31.085" y="120.75" transform="rotate(-90 31.085 120.75)">Actual variation</text>
    </g>
   </g>
   <g id="LineCollection_1">
    <path d="M 121.17643 194.657143 
L 133.796532 194.657143 
" clip-path="url(#p1f9125ec12)" style="fill: none; stroke: #1f77b4; stroke-width: 3"/>
    <path d="M 171.656838 168.810471 
L 184.27694 168.810471 
" clip-path="url(#p1f9125ec12)" style="fill: none; stroke: #1f77b4; stroke-width: 3"/>
    <path d="M 222.137245 143.50282 
L 234.757347 143.50282 
" clip-path="url(#p1f9125ec12)" style="fill: none; stroke: #1f77b4; stroke-width: 3"/>
    <path d="M 272.617653 115.436096 
L 285.237755 115.436096 
" clip-path="url(#p1f9125ec12)" style="fill: none; stroke: #1f77b4; stroke-width: 3"/>
    <path d="M 323.09806 87.693655 
L 335.718162 87.693655 
" clip-path="url(#p1f9125ec12)" style="fill: none; stroke: #1f77b4; stroke-width: 3"/>
    <path d="M 373.578468 62.362743 
L 386.19857 62.362743 
" clip-path="url(#p1f9125ec12)" style="fill: none; stroke: #1f77b4; stroke-width: 3"/>
   </g>
   <g id="LineCollection_2">
    <path d="M 121.17643 194.657143 
L 133.796532 194.657143 
" clip-path="url(#p1f9125ec12)" style="fill: none; stroke: #1f77b4; stroke-width: 3"/>
    <path d="M 171.656838 186.068044 
L 184.27694 186.068044 
" clip-path="url(#p1f9125ec12)" style="fill: none; stroke: #1f77b4; stroke-width: 3"/>
    <path d="M 222.137245 177.191921 
L 234.757347 177.191921 
" clip-path="url(#p1f9125ec12)" style="fill: none; stroke: #1f77b4; stroke-width: 3"/>
    <path d="M 272.617653 170.846809 
L 285.237755 170.846809 
" clip-path="url(#p1f9125ec12)" style="fill: none; stroke: #1f77b4; stroke-width: 3"/>
    <path d="M 323.09806 158.855719 
L 335.718162 158.855719 
" clip-path="url(#p1f9125ec12)" style="fill: none; stroke: #1f77b4; stroke-width: 3"/>
    <path d="M 373.578468 149.078981 
L 386.19857 149.078981 
" clip-path="url(#p1f9125ec12)" style="fill: none; stroke: #1f77b4; stroke-width: 3"/>
   </g>
   <g id="LineCollection_3">
    <path d="M 127.486481 194.657143 
L 127.486481 194.657143 
" clip-path="url(#p1f9125ec12)" style="fill: none; stroke: #1f77b4; stroke-width: 3"/>
    <path d="M 177.966889 186.068044 
L 177.966889 168.810471 
" clip-path="url(#p1f9125ec12)" style="fill: none; stroke: #1f77b4; stroke-width: 3"/>
    <path d="M 228.447296 177.191921 
L 228.447296 143.50282 
" clip-path="url(#p1f9125ec12)" style="fill: none; stroke: #1f77b4; stroke-width: 3"/>
    <path d="M 278.927704 170.846809 
L 278.927704 115.436096 
" clip-path="url(#p1f9125ec12)" style="fill: none; stroke: #1f77b4; stroke-width: 3"/>
    <path d="M 329.408111 158.855719 
L 329.408111 87.693655 
" clip-path="url(#p1f9125ec12)" style="fill: none; stroke: #1f77b4; stroke-width: 3"/>
    <path d="M 379.888519 149.078981 
L 379.888519 62.362743 
" clip-path="url(#p1f9125ec12)" style="fill: none; stroke: #1f77b4; stroke-width: 3"/>
   </g>
   <g id="patch_9">
    <path d="M 92.655 224.22 
L 92.655 17.28 
" style="fill: none; stroke: #000000; stroke-width: 3; stroke-linejoin: miter; stroke-linecap: square"/>
   </g>
   <g id="patch_10">
    <path d="M 92.655 224.22 
L 414.72 224.22 
" style="fill: none; stroke: #000000; stroke-width: 3; stroke-linejoin: miter; stroke-linecap: square"/>
   </g>
  </g>
 </g>
 <defs>
  <clipPath id="p1f9125ec12">
   <rect x="92.655" y="17.28" width="322.065" height="206.94"/>
  </clipPath>
 </defs>
</svg>
