<?xml version="1.0" encoding="utf-8" standalone="no"?>
<!DOCTYPE svg PUBLIC "-//W3C//DTD SVG 1.1//EN"
  "http://www.w3.org/Graphics/SVG/1.1/DTD/svg11.dtd">
<svg xmlns:xlink="http://www.w3.org/1999/xlink" width="432pt" height="288pt" viewBox="0 0 432 288" xmlns="http://www.w3.org/2000/svg" version="1.1">
 <metadata>
  <rdf:RDF xmlns:dc="http://purl.org/dc/elements/1.1/" xmlns:cc="http://creativecommons.org/ns#" xmlns:rdf="http://www.w3.org/1999/02/22-rdf-syntax-ns#">
   <cc:Work>
    <dc:type rdf:resource="http://purl.org/dc/dcmitype/StillImage"/>
    <dc:date>2025-11-15T19:43:14.822675</dc:date>
    <dc:format>image/svg+xml</dc:format>
    <dc:creator>
     <cc:Agent>
      <dc:title>Matplotlib v3.6.2, https://matplotlib.org/</dc:title>
     </cc:Agent>
    </dc:creator>
   </cc:Work>
  </rdf:RDF>
 </metadata>
 <defs>
  <style type="text/css">*{stroke-linejoin: round; stroke-linecap: butt}</style>
 </defs>
 <g id="figure_1">
  <g id="patch_1">
   <path d="M 0 288 
L 432 288 
L 432 0 
L 0 0 
L 0 288 
z
" style="fill: none"/>
  </g>
  <g id="axes_1">
   <g id="patch_2">
    <path d="M 92.53 222.22 
L 403.350909 222.22 
L 403.350909 23.78 
L 92.53 23.78 
z
" style="fill: #ffffff"/>
   </g>
   <g id="matplotlib.axis_1">
    <g id="xtick_1">
     <g id="line2d_1">
      <defs>
       <path id="mdceefce380" d="M 0 0 
L 0 5 
" style="stroke: #000000; stroke-width: 3"/>
      </defs>
      <g>
       <use xlink:href="#mdceefce380" x="106.658223" y="222.22" style="stroke: #000000; stroke-width: 3"/>
      </g>
     </g>
     <g id="text_1">
      <text style="font: 16px 'DejaVu Serif', 'Bitstream Vera Serif', 'Computer Modern Roman', 'New Century Schoolbook', 'Century Schoolbook L', 'Utopia', 'ITC Bookman', 'Bookman', 'Nimbus Roman No9 L', 'Times New Roman', 'Times', 'Palatino', 'Charter', serif; text-anchor: middle" x="106.658223" y="242.8775" transform="rotate(-0 106.658223 242.8775)">0</text>
     </g>
    </g>
    <g id="xtick_2">
     <g id="line2d_2">
      <g>
       <use xlink:href="#mdceefce380" x="163.171116" y="222.22" style="stroke: #000000; stroke-width: 3"/>
      </g>
     </g>
     <g id="text_2">
      <text style="font: 16px 'DejaVu Serif', 'Bitstream Vera Serif', 'Computer Modern Roman', 'New Century Schoolbook', 'Century Schoolbook L', 'Utopia', 'ITC Bookman', 'Bookman', 'Nimbus Roman No9 L', 'Times New Roman', 'Times', 'Palatino', 'Charter', serif; text-anchor: middle" x="163.171116" y="242.8775" transform="rotate(-0 163.171116 242.8775)">2</text>
     </g>
    </g>
    <g id="xtick_3">
     <g id="line2d_3">
      <g>
       <use xlink:href="#mdceefce380" x="219.684008" y="222.22" style="stroke: #000000; stroke-width: 3"/>
      </g>
     </g>
     <g id="text_3">
      <text style="font: 16px 'DejaVu Serif', 'Bitstream Vera Serif', 'Computer Modern Roman', 'New Century Schoolbook', 'Century Schoolbook L', 'Utopia', 'ITC Bookman', 'Bookman', 'Nimbus Roman No9 L', 'Times New Roman', 'Times', 'Palatino', 'Charter', serif; text-anchor: middle" x="219.684008" y="242.8775" transform="rotate(-0 219.684008 242.8775)">3</text>
     </g>
    </g>
    <g id="xtick_4">
     <g id="line2d_4">
      <g>
       <use xlink:href="#mdceefce380" x="276.196901" y="222.22" style="stroke: #000000; stroke-width: 3"/>
      </g>
     </g>
     <g id="text_4">
      <text style="font: 16px 'DejaVu Serif', 'Bitstream Vera Serif', 'Computer Modern Roman', 'New Century Schoolbook', 'Century Schoolbook L', 'Utopia', 'ITC Bookman', 'Bookman', 'Nimbus Roman No9 L', 'Times New Roman', 'Times', 'Palatino', 'Charter', serif; text-anchor: middle" x="276.196901" y="242.8775" transform="rotate(-0 276.196901 242.8775)">4</text>
     </g>
    </g>
    <g id="xtick_5">
     <g id="line2d_5">
      <g>
       <use xlink:href="#mdceefce380" x="332.709793" y="222.22" style="stroke: #000000; stroke-width: 3"/>
      </g>
     </g>
     <g id="text_5">
      <text style="font: 20px 'DejaVu Serif', 'Bitstream Vera Serif', 'Computer Modern Roman', 'New Century Schoolbook', 'Century Schoolbook L', 'Utopia', 'ITC Bookman', 'Bookman', 'Nimbus Roman No9 L', 'Times New Roman', 'Times', 'Palatino', 'Charter', serif; text-anchor: middle" x="332.709793" y="245.916875" transform="rotate(-0 332.709793 245.916875)">∞</text>
     </g>
    </g>
    <g id="xtick_6">
     <g id="line2d_6">
      <g>
       <use xlink:href="#mdceefce380" x="389.222686" y="222.22" style="stroke: #000000; stroke-width: 3"/>
      </g>
     </g>
     <g id="text_6">
      <text style="font: 16px 'DejaVu Serif', 'Bitstream Vera Serif', 'Computer Modern Roman', 'New Century Schoolbook', 'Century Schoolbook L', 'Utopia', 'ITC Bookman', 'Bookman', 'Nimbus Roman No9 L', 'Times New Roman', 'Times', 'Palatino', 'Charter', serif; text-anchor: middle" x="389.222686" y="242.8775" transform="rotate(-0 389.222686 242.8775)">∞/FD</text>
     </g>
    </g>
    <g id="text_7">
     <text style="font: 16px 'DejaVu Serif', 'Bitstream Vera Serif', 'Computer Modern Roman', 'New Century Schoolbook', 'Century Schoolbook L', 'Utopia', 'ITC Bookman', 'Bookman', 'Nimbus Roman No9 L', 'Times New Roman', 'Times', 'Palatino', 'Charter', serif; text-anchor: middle" x="247.940455" y="266.23375" transform="rotate(-0 247.940455 266.23375)">Network Dimension</text>
    </g>
   </g>
   <g id="matplotlib.axis_2">
    <g id="ytick_1">
     <g id="line2d_7">
      <defs>
       <path id="mf224ed3afc" d="M 0 0 
L -5 0 
" style="stroke: #000000; stroke-width: 3"/>
      </defs>
      <g>
       <use xlink:href="#mf224ed3afc" x="92.53" y="205.861139" style="stroke: #000000; stroke-width: 3"/>
      </g>
     </g>
     <g id="text_8">
      <text style="font: 16px 'DejaVu Serif', 'Bitstream Vera Serif', 'Computer Modern Roman', 'New Century Schoolbook', 'Century Schoolbook L', 'Utopia', 'ITC Bookman', 'Bookman', 'Nimbus Roman No9 L', 'Times New Roman', 'Times', 'Palatino', 'Charter', serif; text-anchor: end" x="84.03" y="211.939889" transform="rotate(-0 84.03 211.939889)">70%</text>
     </g>
    </g>
    <g id="ytick_2">
     <g id="line2d_8">
      <g>
       <use xlink:href="#mf224ed3afc" x="92.53" y="114.82057" style="stroke: #000000; stroke-width: 3"/>
      </g>
     </g>
     <g id="text_9">
      <text style="font: 16px 'DejaVu Serif', 'Bitstream Vera Serif', 'Computer Modern Roman', 'New Century Schoolbook', 'Century Schoolbook L', 'Utopia', 'ITC Bookman', 'Bookman', 'Nimbus Roman No9 L', 'Times New Roman', 'Times', 'Palatino', 'Charter', serif; text-anchor: end" x="84.03" y="120.89932" transform="rotate(-0 84.03 120.89932)">85%</text>
     </g>
    </g>
    <g id="ytick_3">
     <g id="line2d_9">
      <g>
       <use xlink:href="#mf224ed3afc" x="92.53" y="23.78" style="stroke: #000000; stroke-width: 3"/>
      </g>
     </g>
     <g id="text_10">
      <text style="font: 16px 'DejaVu Serif', 'Bitstream Vera Serif', 'Computer Modern Roman', 'New Century Schoolbook', 'Century Schoolbook L', 'Utopia', 'ITC Bookman', 'Bookman', 'Nimbus Roman No9 L', 'Times New Roman', 'Times', 'Palatino', 'Charter', serif; text-anchor: end" x="84.03" y="29.85875" transform="rotate(-0 84.03 29.85875)">100%</text>
     </g>
    </g>
    <g id="text_11">
     <text style="font: 16px 'DejaVu Serif', 'Bitstream Vera Serif', 'Computer Modern Roman', 'New Century Schoolbook', 'Century Schoolbook L', 'Utopia', 'ITC Bookman', 'Bookman', 'Nimbus Roman No9 L', 'Times New Roman', 'Times', 'Palatino', 'Charter', serif; text-anchor: middle" x="30.7325" y="123" transform="rotate(-90 30.7325 123)">Test Accuracy</text>
    </g>
   </g>
   <g id="line2d_10">
    <path d="M 106.658223 214.751828 
L 163.171116 154.176649 
L 219.684008 149.672053 
L 276.196901 178.181468 
L 332.709793 130.468168 
L 389.222686 143.389282 
" clip-path="url(#p34a4e51bb4)" style="fill: none; stroke-dasharray: 11.1,4.8; stroke-dashoffset: 0; stroke: #1f77b4; stroke-width: 3"/>
    <defs>
     <path id="mf0b3f2551c" d="M 0 5 
C 1.326016 5 2.597899 4.473168 3.535534 3.535534 
C 4.473168 2.597899 5 1.326016 5 0 
C 5 -1.326016 4.473168 -2.597899 3.535534 -3.535534 
C 2.597899 -4.473168 1.326016 -5 0 -5 
C -1.326016 -5 -2.597899 -4.473168 -3.535534 -3.535534 
C -4.473168 -2.597899 -5 -1.326016 -5 0 
C -5 1.326016 -4.473168 2.597899 -3.535534 3.535534 
C -2.597899 4.473168 -1.326016 5 0 5 
z
" style="stroke: #1f77b4"/>
    </defs>
    <g clip-path="url(#p34a4e51bb4)">
     <use xlink:href="#mf0b3f2551c" x="106.658223" y="214.751828" style="fill: #1f77b4; stroke: #1f77b4"/>
     <use xlink:href="#mf0b3f2551c" x="163.171116" y="154.176649" style="fill: #1f77b4; stroke: #1f77b4"/>
     <use xlink:href="#mf0b3f2551c" x="219.684008" y="149.672053" style="fill: #1f77b4; stroke: #1f77b4"/>
     <use xlink:href="#mf0b3f2551c" x="276.196901" y="178.181468" style="fill: #1f77b4; stroke: #1f77b4"/>
     <use xlink:href="#mf0b3f2551c" x="332.709793" y="130.468168" style="fill: #1f77b4; stroke: #1f77b4"/>
     <use xlink:href="#mf0b3f2551c" x="389.222686" y="143.389282" style="fill: #1f77b4; stroke: #1f77b4"/>
    </g>
   </g>
   <g id="line2d_11">
    <path d="M 106.658223 197.326086 
L 163.171116 113.101693 
L 219.684008 127.14898 
L 276.196901 122.110916 
L 332.709793 103.084894 
L 389.222686 130.112563 
" clip-path="url(#p34a4e51bb4)" style="fill: none; stroke-dasharray: 11.1,4.8; stroke-dashoffset: 0; stroke: #ff7f0e; stroke-width: 3"/>
    <defs>
     <path id="ma18c94c860" d="M 0 5 
C 1.326016 5 2.597899 4.473168 3.535534 3.535534 
C 4.473168 2.597899 5 1.326016 5 0 
C 5 -1.326016 4.473168 -2.597899 3.535534 -3.535534 
C 2.597899 -4.473168 1.326016 -5 0 -5 
C -1.326016 -5 -2.597899 -4.473168 -3.535534 -3.535534 
C -4.473168 -2.597899 -5 -1.326016 -5 0 
C -5 1.326016 -4.473168 2.597899 -3.535534 3.535534 
C -2.597899 4.473168 -1.326016 5 0 5 
z
" style="stroke: #ff7f0e"/>
    </defs>
    <g clip-path="url(#p34a4e51bb4)">
     <use xlink:href="#ma18c94c860" x="106.658223" y="197.326086" style="fill: #ff7f0e; stroke: #ff7f0e"/>
     <use xlink:href="#ma18c94c860" x="163.171116" y="113.101693" style="fill: #ff7f0e; stroke: #ff7f0e"/>
     <use xlink:href="#ma18c94c860" x="219.684008" y="127.14898" style="fill: #ff7f0e; stroke: #ff7f0e"/>
     <use xlink:href="#ma18c94c860" x="276.196901" y="122.110916" style="fill: #ff7f0e; stroke: #ff7f0e"/>
     <use xlink:href="#ma18c94c860" x="332.709793" y="103.084894" style="fill: #ff7f0e; stroke: #ff7f0e"/>
     <use xlink:href="#ma18c94c860" x="389.222686" y="130.112563" style="fill: #ff7f0e; stroke: #ff7f0e"/>
    </g>
   </g>
   <g id="line2d_12">
    <path d="M 106.658223 136.336005 
L 163.171116 79.909849 
L 219.684008 89.748846 
L 276.196901 91.349188 
L 332.709793 80.621089 
L 389.222686 95.142545 
" clip-path="url(#p34a4e51bb4)" style="fill: none; stroke-dasharray: 11.1,4.8; stroke-dashoffset: 0; stroke: #2ca02c; stroke-width: 3"/>
    <defs>
     <path id="m02fdb80489" d="M 0 5 
C 1.326016 5 2.597899 4.473168 3.535534 3.535534 
C 4.473168 2.597899 5 1.326016 5 0 
C 5 -1.326016 4.473168 -2.597899 3.535534 -3.535534 
C 2.597899 -4.473168 1.326016 -5 0 -5 
C -1.326016 -5 -2.597899 -4.473168 -3.535534 -3.535534 
C -4.473168 -2.597899 -5 -1.326016 -5 0 
C -5 1.326016 -4.473168 2.597899 -3.535534 3.535534 
C -2.597899 4.473168 -1.326016 5 0 5 
z
" style="stroke: #2ca02c"/>
    </defs>
    <g clip-path="url(#p34a4e51bb4)">
     <use xlink:href="#m02fdb80489" x="106.658223" y="136.336005" style="fill: #2ca02c; stroke: #2ca02c"/>
     <use xlink:href="#m02fdb80489" x="163.171116" y="79.909849" style="fill: #2ca02c; stroke: #2ca02c"/>
     <use xlink:href="#m02fdb80489" x="219.684008" y="89.748846" style="fill: #2ca02c; stroke: #2ca02c"/>
     <use xlink:href="#m02fdb80489" x="276.196901" y="91.349188" style="fill: #2ca02c; stroke: #2ca02c"/>
     <use xlink:href="#m02fdb80489" x="332.709793" y="80.621089" style="fill: #2ca02c; stroke: #2ca02c"/>
     <use xlink:href="#m02fdb80489" x="389.222686" y="95.142545" style="fill: #2ca02c; stroke: #2ca02c"/>
    </g>
   </g>
   <g id="line2d_13">
    <path d="M 106.658223 146.886302 
L 163.171116 65.388378 
L 219.684008 81.806513 
L 276.196901 79.376382 
L 332.709793 73.152909 
L 389.222686 80.384004 
" clip-path="url(#p34a4e51bb4)" style="fill: none; stroke-dasharray: 11.1,4.8; stroke-dashoffset: 0; stroke: #d62728; stroke-width: 3"/>
    <defs>
     <path id="m0f2bb46046" d="M 0 5 
C 1.326016 5 2.597899 4.473168 3.535534 3.535534 
C 4.473168 2.597899 5 1.326016 5 0 
C 5 -1.326016 4.473168 -2.597899 3.535534 -3.535534 
C 2.597899 -4.473168 1.326016 -5 0 -5 
C -1.326016 -5 -2.597899 -4.473168 -3.535534 -3.535534 
C -4.473168 -2.597899 -5 -1.326016 -5 0 
C -5 1.326016 -4.473168 2.597899 -3.535534 3.535534 
C -2.597899 4.473168 -1.326016 5 0 5 
z
" style="stroke: #d62728"/>
    </defs>
    <g clip-path="url(#p34a4e51bb4)">
     <use xlink:href="#m0f2bb46046" x="106.658223" y="146.886302" style="fill: #d62728; stroke: #d62728"/>
     <use xlink:href="#m0f2bb46046" x="163.171116" y="65.388378" style="fill: #d62728; stroke: #d62728"/>
     <use xlink:href="#m0f2bb46046" x="219.684008" y="81.806513" style="fill: #d62728; stroke: #d62728"/>
     <use xlink:href="#m0f2bb46046" x="276.196901" y="79.376382" style="fill: #d62728; stroke: #d62728"/>
     <use xlink:href="#m0f2bb46046" x="332.709793" y="73.152909" style="fill: #d62728; stroke: #d62728"/>
     <use xlink:href="#m0f2bb46046" x="389.222686" y="80.384004" style="fill: #d62728; stroke: #d62728"/>
    </g>
   </g>
   <g id="patch_3">
    <path d="M 92.53 222.22 
L 92.53 23.78 
" style="fill: none; stroke: #000000; stroke-width: 3; stroke-linejoin: miter; stroke-linecap: square"/>
   </g>
   <g id="patch_4">
    <path d="M 92.53 222.22 
L 403.350909 222.22 
" style="fill: none; stroke: #000000; stroke-width: 3; stroke-linejoin: miter; stroke-linecap: square"/>
   </g>
   <g id="text_12">
    <text style="fill: #1f77b4; font: 16px 'DejaVu Serif', 'Bitstream Vera Serif', 'Computer Modern Roman', 'New Century Schoolbook', 'Century Schoolbook L', 'Utopia', 'ITC Bookman', 'Bookman', 'Nimbus Roman No9 L', 'Times New Roman', 'Times', 'Palatino', 'Charter', serif; text-anchor: start" x="394.873975" y="147.804282" transform="rotate(-0 394.873975 147.804282)">15</text>
   </g>
   <g id="text_13">
    <text style="fill: #ff7f0e; font: 16px 'DejaVu Serif', 'Bitstream Vera Serif', 'Computer Modern Roman', 'New Century Schoolbook', 'Century Schoolbook L', 'Utopia', 'ITC Bookman', 'Bookman', 'Nimbus Roman No9 L', 'Times New Roman', 'Times', 'Palatino', 'Charter', serif; text-anchor: start" x="394.873975" y="134.527563" transform="rotate(-0 394.873975 134.527563)">25</text>
   </g>
   <g id="text_14">
    <text style="fill: #2ca02c; font: 16px 'DejaVu Serif', 'Bitstream Vera Serif', 'Computer Modern Roman', 'New Century Schoolbook', 'Century Schoolbook L', 'Utopia', 'ITC Bookman', 'Bookman', 'Nimbus Roman No9 L', 'Times New Roman', 'Times', 'Palatino', 'Charter', serif; text-anchor: start" x="394.873975" y="99.557545" transform="rotate(-0 394.873975 99.557545)">45</text>
   </g>
   <g id="text_15">
    <text style="fill: #d62728; font: 16px 'DejaVu Serif', 'Bitstream Vera Serif', 'Computer Modern Roman', 'New Century Schoolbook', 'Century Schoolbook L', 'Utopia', 'ITC Bookman', 'Bookman', 'Nimbus Roman No9 L', 'Times New Roman', 'Times', 'Palatino', 'Charter', serif; text-anchor: start" x="394.873975" y="84.799004" transform="rotate(-0 394.873975 84.799004)">60</text>
   </g>
   <g id="line2d_14">
    <path d="M 130.958767 222.22 
L 138.870572 222.22 
" style="fill: none; stroke: #ffffff; stroke-width: 3; stroke-linecap: square"/>
   </g>
   <g id="line2d_15">
    <path d="M 300.497445 222.22 
L 308.40925 222.22 
" style="fill: none; stroke: #ffffff; stroke-width: 3; stroke-linecap: square"/>
   </g>
   <g id="line2d_16">
    <path d="M 124.339913 227.059896 
L 134.186847 217.380104 
" style="fill: none; stroke: #000000; stroke-width: 1.5; stroke-linecap: square"/>
   </g>
   <g id="line2d_17">
    <path d="M 135.642492 227.059896 
L 145.489426 217.380104 
" style="fill: none; stroke: #000000; stroke-width: 1.5; stroke-linecap: square"/>
   </g>
   <g id="line2d_18">
    <path d="M 293.878591 227.059896 
L 303.725525 217.380104 
" style="fill: none; stroke: #000000; stroke-width: 1.5; stroke-linecap: square"/>
   </g>
   <g id="line2d_19">
    <path d="M 305.181169 227.059896 
L 315.028103 217.380104 
" style="fill: none; stroke: #000000; stroke-width: 1.5; stroke-linecap: square"/>
   </g>
  </g>
 </g>
 <defs>
  <clipPath id="p34a4e51bb4">
   <rect x="92.53" y="23.78" width="310.820909" height="198.44"/>
  </clipPath>
 </defs>
</svg>
